<?xml version="1.0" encoding="utf-8"?>
<!-- Generator: Adobe Illustrator 25.0.0, SVG Export Plug-In . SVG Version: 6.00 Build 0)  -->
<svg version="1.1" id="Livello_1" xmlns="http://www.w3.org/2000/svg" xmlns:xlink="http://www.w3.org/1999/xlink" x="0px" y="0px"
	 viewBox="0 0 739.51 55" style="enable-background:new 0 0 739.51 55;" xml:space="preserve">
<polygon id="logo-bottom-main" style="fill:#F5A214;" points="278.9,55 284.4,55 711.61,55 669.14,0 284.4,0 278.9,0 69.4,0 
	27.9,55 "/>
<polygon id="bottom-left-minor-bg" style="opacity:0.5;fill:#F5A214;" points="0,55 21.49,55 55.8,9.54 34.31,9.54 "/>
<polygon id="bottom-right-minor-bg" style="opacity:0.5;fill:#F5A214;" points="739.51,55 718.02,55 683.71,9.54 705.21,9.54 "/>
<path id="site-info" style="fill:#1D1D1B;" d="M285.64,17.95v0.79h-3.44v2.5h2.94v0.79h-2.94v3.08h-0.98v-7.17H285.64z
	 M286.45,25.12v-5.07h0.51c0.1,0,0.16,0.02,0.2,0.06c0.04,0.04,0.06,0.1,0.08,0.19l0.06,0.79c0.17-0.35,0.39-0.63,0.64-0.83
	c0.26-0.2,0.55-0.3,0.9-0.3c0.14,0,0.27,0.02,0.38,0.05c0.11,0.03,0.22,0.08,0.31,0.13l-0.12,0.67c-0.02,0.08-0.07,0.12-0.15,0.12
	c-0.05,0-0.12-0.02-0.21-0.05c-0.1-0.03-0.23-0.05-0.41-0.05c-0.31,0-0.57,0.09-0.78,0.27c-0.21,0.18-0.38,0.44-0.52,0.78v3.23
	H286.45z M294.01,25.12h-0.4c-0.09,0-0.16-0.01-0.21-0.04c-0.05-0.03-0.09-0.08-0.1-0.17l-0.1-0.47c-0.13,0.12-0.26,0.23-0.39,0.32
	c-0.13,0.09-0.26,0.17-0.4,0.24c-0.14,0.07-0.29,0.11-0.45,0.15c-0.16,0.03-0.33,0.05-0.53,0.05c-0.2,0-0.38-0.03-0.55-0.08
	c-0.17-0.06-0.32-0.14-0.45-0.25c-0.13-0.11-0.23-0.25-0.3-0.42c-0.07-0.17-0.11-0.37-0.11-0.6c0-0.2,0.06-0.39,0.17-0.58
	s0.29-0.35,0.53-0.49c0.24-0.14,0.57-0.26,0.96-0.35c0.4-0.09,0.88-0.14,1.46-0.14v-0.4c0-0.4-0.08-0.7-0.25-0.9
	c-0.17-0.2-0.42-0.3-0.75-0.3c-0.22,0-0.4,0.03-0.55,0.08c-0.15,0.05-0.28,0.12-0.38,0.18s-0.2,0.13-0.28,0.19
	c-0.08,0.05-0.16,0.08-0.23,0.08c-0.06,0-0.11-0.02-0.16-0.05c-0.04-0.03-0.08-0.07-0.11-0.12l-0.16-0.29
	c0.28-0.27,0.58-0.47,0.9-0.6c0.32-0.13,0.68-0.2,1.08-0.2c0.28,0,0.54,0.05,0.75,0.14c0.22,0.09,0.41,0.22,0.56,0.39
	c0.15,0.17,0.26,0.37,0.34,0.6c0.08,0.24,0.12,0.5,0.12,0.78V25.12z M291.7,24.57c0.16,0,0.3-0.02,0.43-0.05
	c0.13-0.03,0.25-0.08,0.37-0.13s0.23-0.13,0.33-0.21c0.1-0.08,0.21-0.18,0.31-0.29v-1.04c-0.41,0-0.76,0.03-1.05,0.08
	s-0.52,0.12-0.7,0.2c-0.18,0.08-0.31,0.18-0.39,0.3c-0.08,0.11-0.12,0.24-0.12,0.38c0,0.13,0.02,0.25,0.06,0.35
	c0.04,0.1,0.1,0.18,0.18,0.24c0.07,0.06,0.16,0.11,0.26,0.14S291.58,24.57,291.7,24.57z M295.36,25.12v-5.07h0.53
	c0.13,0,0.21,0.06,0.24,0.19l0.07,0.55c0.22-0.24,0.47-0.44,0.74-0.59c0.27-0.15,0.59-0.23,0.94-0.23c0.28,0,0.52,0.05,0.73,0.14
	c0.21,0.09,0.39,0.22,0.53,0.39c0.14,0.17,0.25,0.37,0.32,0.61c0.07,0.24,0.11,0.5,0.11,0.78v3.23h-0.89v-3.23
	c0-0.38-0.09-0.68-0.26-0.89c-0.17-0.21-0.44-0.32-0.8-0.32c-0.26,0-0.51,0.06-0.74,0.19s-0.44,0.3-0.63,0.51v3.73H295.36z
	 M304.37,20.95c-0.03,0.04-0.05,0.06-0.08,0.08c-0.03,0.02-0.06,0.03-0.11,0.03c-0.05,0-0.1-0.02-0.16-0.06
	c-0.06-0.04-0.13-0.09-0.22-0.14s-0.2-0.1-0.33-0.14s-0.29-0.06-0.47-0.06c-0.25,0-0.47,0.04-0.66,0.13
	c-0.19,0.09-0.35,0.22-0.48,0.38c-0.13,0.17-0.23,0.37-0.29,0.61s-0.1,0.5-0.1,0.79c0,0.31,0.03,0.58,0.1,0.82
	c0.07,0.24,0.17,0.44,0.29,0.6c0.13,0.16,0.28,0.29,0.46,0.37s0.39,0.13,0.61,0.13c0.22,0,0.4-0.03,0.54-0.08
	c0.14-0.05,0.26-0.11,0.35-0.17s0.17-0.12,0.23-0.17s0.12-0.08,0.18-0.08c0.08,0,0.13,0.03,0.17,0.08l0.25,0.33
	c-0.22,0.27-0.5,0.47-0.83,0.59s-0.68,0.19-1.04,0.19c-0.32,0-0.61-0.06-0.88-0.17c-0.27-0.12-0.51-0.29-0.71-0.51
	c-0.2-0.22-0.36-0.49-0.47-0.82c-0.11-0.32-0.17-0.69-0.17-1.1c0-0.38,0.05-0.72,0.16-1.04s0.26-0.6,0.46-0.83
	c0.2-0.23,0.45-0.41,0.75-0.54c0.3-0.13,0.64-0.2,1.02-0.2c0.35,0,0.67,0.06,0.94,0.17c0.27,0.12,0.52,0.28,0.73,0.49L304.37,20.95z
	 M307.59,19.97c0.3,0,0.58,0.05,0.84,0.15c0.26,0.1,0.48,0.25,0.67,0.44c0.19,0.19,0.33,0.43,0.44,0.71c0.1,0.28,0.16,0.6,0.16,0.96
	c0,0.14-0.02,0.23-0.04,0.28c-0.03,0.05-0.09,0.07-0.17,0.07h-3.37c0.01,0.32,0.05,0.6,0.13,0.83s0.19,0.43,0.33,0.59
	s0.31,0.28,0.5,0.35c0.19,0.08,0.41,0.12,0.65,0.12c0.22,0,0.42-0.03,0.58-0.08s0.3-0.11,0.42-0.17c0.12-0.06,0.21-0.12,0.29-0.17
	s0.15-0.08,0.2-0.08c0.07,0,0.13,0.03,0.17,0.08l0.25,0.33c-0.11,0.13-0.24,0.25-0.4,0.35c-0.15,0.1-0.32,0.18-0.49,0.24
	c-0.17,0.06-0.36,0.11-0.54,0.14c-0.19,0.03-0.37,0.05-0.55,0.05c-0.35,0-0.67-0.06-0.97-0.18s-0.55-0.29-0.76-0.52
	c-0.22-0.23-0.38-0.51-0.5-0.85c-0.12-0.34-0.18-0.72-0.18-1.16c0-0.35,0.05-0.68,0.16-0.99c0.11-0.31,0.26-0.57,0.47-0.8
	c0.2-0.22,0.45-0.4,0.75-0.53C306.89,20.04,307.22,19.97,307.59,19.97z M307.61,20.63c-0.43,0-0.77,0.12-1.01,0.37
	c-0.25,0.25-0.4,0.59-0.46,1.03h2.76c0-0.21-0.03-0.4-0.08-0.57c-0.06-0.17-0.14-0.32-0.25-0.45c-0.11-0.12-0.24-0.22-0.4-0.29
	S307.82,20.63,307.61,20.63z M313.73,20.89c-0.04,0.07-0.1,0.11-0.19,0.11c-0.05,0-0.11-0.02-0.17-0.05
	c-0.06-0.04-0.14-0.08-0.23-0.12s-0.2-0.09-0.33-0.12c-0.13-0.04-0.28-0.06-0.45-0.06c-0.15,0-0.29,0.02-0.41,0.06
	c-0.12,0.04-0.22,0.09-0.31,0.16c-0.09,0.07-0.15,0.14-0.2,0.23c-0.04,0.09-0.07,0.18-0.07,0.29c0,0.13,0.04,0.24,0.11,0.33
	c0.08,0.09,0.17,0.16,0.3,0.22c0.12,0.06,0.26,0.12,0.42,0.17c0.16,0.05,0.32,0.1,0.48,0.15c0.17,0.06,0.33,0.12,0.48,0.18
	c0.16,0.07,0.3,0.15,0.42,0.25c0.12,0.1,0.22,0.22,0.3,0.37c0.07,0.14,0.11,0.32,0.11,0.52c0,0.23-0.04,0.45-0.12,0.65
	c-0.08,0.2-0.21,0.37-0.37,0.51c-0.16,0.14-0.36,0.26-0.6,0.34c-0.24,0.08-0.51,0.12-0.82,0.12c-0.35,0-0.67-0.06-0.96-0.17
	s-0.53-0.26-0.73-0.44l0.21-0.34c0.03-0.04,0.06-0.08,0.1-0.1c0.04-0.02,0.08-0.03,0.14-0.03c0.06,0,0.12,0.02,0.19,0.07
	c0.07,0.05,0.15,0.1,0.24,0.16c0.1,0.06,0.21,0.11,0.35,0.16c0.13,0.05,0.3,0.07,0.51,0.07c0.17,0,0.33-0.02,0.46-0.07
	s0.24-0.11,0.33-0.18c0.09-0.08,0.15-0.17,0.19-0.26c0.04-0.1,0.06-0.21,0.06-0.32c0-0.14-0.04-0.26-0.11-0.35
	c-0.07-0.09-0.17-0.17-0.3-0.23c-0.12-0.07-0.26-0.12-0.42-0.17c-0.16-0.05-0.32-0.1-0.48-0.15c-0.17-0.05-0.33-0.11-0.49-0.18
	s-0.3-0.15-0.42-0.26s-0.22-0.23-0.3-0.38c-0.08-0.15-0.11-0.34-0.11-0.55c0-0.19,0.04-0.38,0.12-0.56c0.08-0.18,0.2-0.33,0.35-0.47
	c0.15-0.13,0.34-0.24,0.56-0.32s0.48-0.12,0.77-0.12c0.33,0,0.63,0.05,0.9,0.16c0.27,0.1,0.49,0.25,0.69,0.43L313.73,20.89z
	 M318.62,20.95c-0.03,0.04-0.05,0.06-0.08,0.08c-0.03,0.02-0.06,0.03-0.11,0.03c-0.05,0-0.1-0.02-0.16-0.06
	c-0.06-0.04-0.13-0.09-0.22-0.14s-0.2-0.1-0.33-0.14s-0.29-0.06-0.47-0.06c-0.25,0-0.47,0.04-0.66,0.13
	c-0.19,0.09-0.35,0.22-0.48,0.38c-0.13,0.17-0.23,0.37-0.29,0.61s-0.1,0.5-0.1,0.79c0,0.31,0.03,0.58,0.1,0.82
	c0.07,0.24,0.17,0.44,0.29,0.6c0.13,0.16,0.28,0.29,0.46,0.37s0.39,0.13,0.61,0.13c0.22,0,0.4-0.03,0.54-0.08
	c0.14-0.05,0.26-0.11,0.35-0.17s0.17-0.12,0.23-0.17s0.12-0.08,0.18-0.08c0.08,0,0.13,0.03,0.17,0.08l0.25,0.33
	c-0.22,0.27-0.5,0.47-0.83,0.59s-0.68,0.19-1.04,0.19c-0.32,0-0.61-0.06-0.88-0.17c-0.27-0.12-0.51-0.29-0.71-0.51
	c-0.2-0.22-0.36-0.49-0.47-0.82c-0.11-0.32-0.17-0.69-0.17-1.1c0-0.38,0.05-0.72,0.16-1.04s0.26-0.6,0.46-0.83
	c0.2-0.23,0.45-0.41,0.75-0.54c0.3-0.13,0.64-0.2,1.02-0.2c0.35,0,0.67,0.06,0.94,0.17c0.27,0.12,0.52,0.28,0.73,0.49L318.62,20.95z
	 M321.89,19.97c0.37,0,0.7,0.06,1,0.19c0.3,0.12,0.55,0.3,0.76,0.52s0.37,0.5,0.48,0.82c0.11,0.32,0.17,0.68,0.17,1.08
	c0,0.4-0.06,0.76-0.17,1.08s-0.27,0.59-0.48,0.82c-0.21,0.23-0.46,0.4-0.76,0.52c-0.3,0.12-0.63,0.18-1,0.18
	c-0.37,0-0.7-0.06-1-0.18c-0.3-0.12-0.55-0.3-0.76-0.52c-0.21-0.23-0.37-0.5-0.49-0.82s-0.17-0.68-0.17-1.08
	c0-0.4,0.06-0.76,0.17-1.08c0.11-0.32,0.28-0.6,0.49-0.82s0.46-0.4,0.76-0.52C321.18,20.03,321.52,19.97,321.89,19.97z
	 M321.89,24.49c0.5,0,0.87-0.17,1.12-0.5s0.37-0.8,0.37-1.4c0-0.6-0.12-1.07-0.37-1.41s-0.62-0.5-1.12-0.5
	c-0.25,0-0.47,0.04-0.66,0.13c-0.19,0.09-0.34,0.21-0.47,0.38s-0.22,0.36-0.28,0.6c-0.06,0.24-0.09,0.51-0.09,0.81
	s0.03,0.57,0.09,0.8c0.06,0.24,0.15,0.44,0.28,0.6c0.12,0.16,0.28,0.29,0.47,0.37C321.41,24.45,321.63,24.49,321.89,24.49z
	 M327.47,25.12v-7.17h2.28c0.44,0,0.82,0.04,1.14,0.13s0.58,0.21,0.79,0.37s0.36,0.36,0.46,0.59c0.1,0.23,0.15,0.49,0.15,0.78
	c0,0.18-0.03,0.35-0.08,0.51c-0.06,0.16-0.14,0.31-0.25,0.46c-0.11,0.14-0.25,0.26-0.42,0.38c-0.17,0.11-0.37,0.2-0.59,0.27
	c0.52,0.1,0.92,0.29,1.19,0.57s0.4,0.63,0.4,1.08c0,0.3-0.06,0.58-0.17,0.83s-0.27,0.46-0.49,0.64c-0.22,0.18-0.48,0.32-0.79,0.42
	c-0.31,0.1-0.67,0.15-1.07,0.15H327.47z M328.44,21.16h1.28c0.27,0,0.51-0.03,0.71-0.09c0.2-0.06,0.37-0.14,0.5-0.25
	c0.13-0.11,0.23-0.24,0.29-0.39c0.06-0.15,0.09-0.32,0.09-0.5c0-0.42-0.13-0.73-0.38-0.92c-0.25-0.2-0.65-0.29-1.18-0.29h-1.31
	V21.16z M328.44,21.85v2.5h1.55c0.28,0,0.51-0.03,0.71-0.09s0.36-0.15,0.49-0.27c0.13-0.12,0.22-0.25,0.28-0.41s0.09-0.33,0.09-0.52
	c0-0.37-0.13-0.66-0.39-0.88c-0.26-0.22-0.66-0.32-1.19-0.32H328.44z M334.99,18.46c0,0.09-0.02,0.17-0.05,0.24
	c-0.04,0.08-0.08,0.14-0.14,0.2c-0.06,0.06-0.13,0.1-0.2,0.14s-0.16,0.05-0.25,0.05c-0.09,0-0.17-0.02-0.24-0.05
	c-0.08-0.03-0.14-0.08-0.2-0.14c-0.06-0.06-0.1-0.12-0.14-0.2c-0.03-0.07-0.05-0.16-0.05-0.24s0.02-0.17,0.05-0.25
	c0.03-0.08,0.08-0.15,0.14-0.21c0.06-0.06,0.12-0.1,0.2-0.14c0.07-0.03,0.16-0.05,0.24-0.05c0.09,0,0.17,0.02,0.25,0.05
	s0.14,0.08,0.2,0.14c0.06,0.06,0.1,0.13,0.14,0.21C334.97,18.29,334.99,18.38,334.99,18.46z M334.79,20.05v5.07h-0.89v-5.07H334.79z
	 M340.08,25.12h-0.4c-0.09,0-0.16-0.01-0.21-0.04c-0.05-0.03-0.09-0.08-0.1-0.17l-0.1-0.47c-0.13,0.12-0.26,0.23-0.39,0.32
	c-0.13,0.09-0.26,0.17-0.4,0.24c-0.14,0.07-0.29,0.11-0.45,0.15c-0.16,0.03-0.33,0.05-0.53,0.05c-0.2,0-0.38-0.03-0.55-0.08
	c-0.17-0.06-0.32-0.14-0.45-0.25c-0.13-0.11-0.23-0.25-0.3-0.42c-0.07-0.17-0.11-0.37-0.11-0.6c0-0.2,0.06-0.39,0.17-0.58
	s0.29-0.35,0.53-0.49c0.24-0.14,0.57-0.26,0.96-0.35c0.4-0.09,0.88-0.14,1.46-0.14v-0.4c0-0.4-0.08-0.7-0.25-0.9
	c-0.17-0.2-0.42-0.3-0.75-0.3c-0.22,0-0.4,0.03-0.55,0.08c-0.15,0.05-0.28,0.12-0.38,0.18s-0.2,0.13-0.28,0.19
	c-0.08,0.05-0.16,0.08-0.23,0.08c-0.06,0-0.11-0.02-0.16-0.05c-0.04-0.03-0.08-0.07-0.11-0.12l-0.16-0.29
	c0.28-0.27,0.58-0.47,0.9-0.6c0.32-0.13,0.68-0.2,1.08-0.2c0.28,0,0.54,0.05,0.75,0.14c0.22,0.09,0.41,0.22,0.56,0.39
	c0.15,0.17,0.26,0.37,0.34,0.6c0.08,0.24,0.12,0.5,0.12,0.78V25.12z M337.77,24.57c0.16,0,0.3-0.02,0.43-0.05
	c0.13-0.03,0.25-0.08,0.37-0.13s0.23-0.13,0.33-0.21c0.1-0.08,0.21-0.18,0.31-0.29v-1.04c-0.41,0-0.76,0.03-1.05,0.08
	s-0.52,0.12-0.7,0.2c-0.18,0.08-0.31,0.18-0.39,0.3c-0.08,0.11-0.12,0.24-0.12,0.38c0,0.13,0.02,0.25,0.06,0.35
	c0.04,0.1,0.1,0.18,0.18,0.24c0.07,0.06,0.16,0.11,0.26,0.14S337.65,24.57,337.77,24.57z M341.43,25.12v-5.07h0.53
	c0.13,0,0.21,0.06,0.24,0.19l0.07,0.55c0.22-0.24,0.47-0.44,0.74-0.59c0.27-0.15,0.59-0.23,0.94-0.23c0.28,0,0.52,0.05,0.73,0.14
	c0.21,0.09,0.39,0.22,0.53,0.39c0.14,0.17,0.25,0.37,0.32,0.61c0.07,0.24,0.11,0.5,0.11,0.78v3.23h-0.89v-3.23
	c0-0.38-0.09-0.68-0.26-0.89c-0.17-0.21-0.44-0.32-0.8-0.32c-0.26,0-0.51,0.06-0.74,0.19s-0.44,0.3-0.63,0.51v3.73H341.43z
	 M350.44,20.95c-0.03,0.04-0.05,0.06-0.08,0.08c-0.03,0.02-0.06,0.03-0.11,0.03c-0.05,0-0.1-0.02-0.16-0.06
	c-0.06-0.04-0.13-0.09-0.22-0.14s-0.2-0.1-0.33-0.14s-0.29-0.06-0.47-0.06c-0.25,0-0.47,0.04-0.66,0.13
	c-0.19,0.09-0.35,0.22-0.48,0.38c-0.13,0.17-0.23,0.37-0.29,0.61s-0.1,0.5-0.1,0.79c0,0.31,0.03,0.58,0.1,0.82
	c0.07,0.24,0.17,0.44,0.29,0.6c0.13,0.16,0.28,0.29,0.46,0.37s0.39,0.13,0.61,0.13c0.22,0,0.4-0.03,0.54-0.08
	c0.14-0.05,0.26-0.11,0.35-0.17s0.17-0.12,0.23-0.17s0.12-0.08,0.18-0.08c0.08,0,0.13,0.03,0.17,0.08l0.25,0.33
	c-0.22,0.27-0.5,0.47-0.83,0.59s-0.68,0.19-1.04,0.19c-0.32,0-0.61-0.06-0.88-0.17c-0.27-0.12-0.51-0.29-0.71-0.51
	c-0.2-0.22-0.36-0.49-0.47-0.82c-0.11-0.32-0.17-0.69-0.17-1.1c0-0.38,0.05-0.72,0.16-1.04s0.26-0.6,0.46-0.83
	c0.2-0.23,0.45-0.41,0.75-0.54c0.3-0.13,0.64-0.2,1.02-0.2c0.35,0,0.67,0.06,0.94,0.17c0.27,0.12,0.52,0.28,0.73,0.49L350.44,20.95z
	 M352.85,18.46c0,0.09-0.02,0.17-0.05,0.24c-0.04,0.08-0.08,0.14-0.14,0.2c-0.06,0.06-0.13,0.1-0.2,0.14s-0.16,0.05-0.25,0.05
	c-0.09,0-0.17-0.02-0.24-0.05c-0.08-0.03-0.14-0.08-0.2-0.14c-0.06-0.06-0.1-0.12-0.14-0.2c-0.03-0.07-0.05-0.16-0.05-0.24
	s0.02-0.17,0.05-0.25c0.03-0.08,0.08-0.15,0.14-0.21c0.06-0.06,0.12-0.1,0.2-0.14c0.07-0.03,0.16-0.05,0.24-0.05
	c0.09,0,0.17,0.02,0.25,0.05s0.14,0.08,0.2,0.14c0.06,0.06,0.1,0.13,0.14,0.21C352.83,18.29,352.85,18.38,352.85,18.46z
	 M352.65,20.05v5.07h-0.89v-5.07H352.65z M357.94,25.12h-0.4c-0.09,0-0.16-0.01-0.21-0.04c-0.05-0.03-0.09-0.08-0.1-0.17l-0.1-0.47
	c-0.13,0.12-0.26,0.23-0.39,0.32c-0.13,0.09-0.26,0.17-0.4,0.24c-0.14,0.07-0.29,0.11-0.45,0.15c-0.16,0.03-0.33,0.05-0.53,0.05
	c-0.2,0-0.38-0.03-0.55-0.08c-0.17-0.06-0.32-0.14-0.45-0.25c-0.13-0.11-0.23-0.25-0.3-0.42c-0.07-0.17-0.11-0.37-0.11-0.6
	c0-0.2,0.06-0.39,0.17-0.58s0.29-0.35,0.53-0.49c0.24-0.14,0.57-0.26,0.96-0.35c0.4-0.09,0.88-0.14,1.46-0.14v-0.4
	c0-0.4-0.08-0.7-0.25-0.9c-0.17-0.2-0.42-0.3-0.75-0.3c-0.22,0-0.4,0.03-0.55,0.08c-0.15,0.05-0.28,0.12-0.38,0.18
	s-0.2,0.13-0.28,0.19c-0.08,0.05-0.16,0.08-0.23,0.08c-0.06,0-0.11-0.02-0.16-0.05c-0.04-0.03-0.08-0.07-0.11-0.12l-0.16-0.29
	c0.28-0.27,0.58-0.47,0.9-0.6c0.32-0.13,0.68-0.2,1.08-0.2c0.28,0,0.54,0.05,0.75,0.14c0.22,0.09,0.41,0.22,0.56,0.39
	c0.15,0.17,0.26,0.37,0.34,0.6c0.08,0.24,0.12,0.5,0.12,0.78V25.12z M355.63,24.57c0.16,0,0.3-0.02,0.43-0.05
	c0.13-0.03,0.25-0.08,0.37-0.13s0.23-0.13,0.33-0.21c0.1-0.08,0.21-0.18,0.31-0.29v-1.04c-0.41,0-0.76,0.03-1.05,0.08
	s-0.52,0.12-0.7,0.2c-0.18,0.08-0.31,0.18-0.39,0.3c-0.08,0.11-0.12,0.24-0.12,0.38c0,0.13,0.02,0.25,0.06,0.35
	c0.04,0.1,0.1,0.18,0.18,0.24c0.07,0.06,0.16,0.11,0.26,0.14S355.51,24.57,355.63,24.57z M359.29,25.12v-5.07h0.51
	c0.1,0,0.16,0.02,0.2,0.06c0.04,0.04,0.06,0.1,0.08,0.19l0.06,0.79c0.17-0.35,0.39-0.63,0.64-0.83c0.26-0.2,0.55-0.3,0.9-0.3
	c0.14,0,0.27,0.02,0.38,0.05c0.11,0.03,0.22,0.08,0.31,0.13l-0.12,0.67c-0.02,0.08-0.07,0.12-0.15,0.12c-0.05,0-0.12-0.02-0.21-0.05
	c-0.1-0.03-0.23-0.05-0.41-0.05c-0.31,0-0.57,0.09-0.78,0.27c-0.21,0.18-0.38,0.44-0.52,0.78v3.23H359.29z M366.88,25.12
	c-0.13,0-0.21-0.06-0.24-0.19l-0.08-0.61c-0.22,0.26-0.46,0.47-0.74,0.63s-0.6,0.24-0.96,0.24c-0.29,0-0.55-0.06-0.79-0.17
	c-0.24-0.11-0.44-0.28-0.6-0.49s-0.29-0.49-0.38-0.81c-0.09-0.32-0.14-0.7-0.14-1.12c0-0.37,0.05-0.72,0.15-1.04s0.24-0.6,0.43-0.84
	c0.19-0.24,0.42-0.42,0.69-0.56c0.27-0.13,0.58-0.2,0.92-0.2c0.31,0,0.58,0.05,0.79,0.16c0.22,0.11,0.42,0.25,0.59,0.44v-2.81h0.89
	v7.37H366.88z M365.16,24.47c0.29,0,0.54-0.07,0.76-0.2c0.22-0.13,0.42-0.32,0.6-0.56v-2.45c-0.16-0.22-0.34-0.37-0.54-0.46
	c-0.2-0.09-0.41-0.13-0.65-0.13c-0.47,0-0.84,0.17-1.09,0.5c-0.25,0.34-0.38,0.82-0.38,1.44c0,0.33,0.03,0.61,0.09,0.85
	c0.06,0.24,0.14,0.43,0.25,0.58c0.11,0.15,0.24,0.26,0.4,0.33C364.77,24.43,364.95,24.47,365.16,24.47z M370.1,18.46
	c0,0.09-0.02,0.17-0.05,0.24c-0.04,0.08-0.08,0.14-0.14,0.2c-0.06,0.06-0.13,0.1-0.2,0.14c-0.08,0.03-0.16,0.05-0.25,0.05
	c-0.09,0-0.17-0.02-0.24-0.05s-0.14-0.08-0.2-0.14c-0.06-0.06-0.1-0.12-0.14-0.2c-0.03-0.07-0.05-0.16-0.05-0.24
	s0.02-0.17,0.05-0.25c0.03-0.08,0.08-0.15,0.14-0.21c0.06-0.06,0.12-0.1,0.2-0.14s0.16-0.05,0.24-0.05c0.09,0,0.17,0.02,0.25,0.05
	c0.08,0.03,0.14,0.08,0.2,0.14c0.06,0.06,0.1,0.13,0.14,0.21C370.08,18.29,370.1,18.38,370.1,18.46z M369.9,20.05v5.07h-0.89v-5.07
	H369.9z M373.82,17.45h0.69v9.38h-0.69V17.45z M379.53,22.44v2.68h-0.96v-7.17h2.12c0.45,0,0.85,0.05,1.18,0.16
	c0.33,0.11,0.61,0.25,0.83,0.45c0.22,0.19,0.38,0.43,0.49,0.7s0.16,0.58,0.16,0.92c0,0.33-0.06,0.64-0.17,0.92
	c-0.12,0.28-0.29,0.51-0.51,0.71c-0.22,0.2-0.5,0.36-0.84,0.47c-0.33,0.11-0.72,0.17-1.15,0.17H379.53z M379.53,21.67h1.15
	c0.28,0,0.52-0.04,0.73-0.11s0.39-0.18,0.53-0.31c0.14-0.13,0.25-0.29,0.33-0.47c0.07-0.18,0.11-0.39,0.11-0.61
	c0-0.46-0.14-0.81-0.42-1.07c-0.28-0.26-0.71-0.38-1.28-0.38h-1.15V21.67z M382.91,24.57c0-0.09,0.02-0.17,0.05-0.25
	c0.03-0.08,0.08-0.14,0.13-0.2c0.06-0.06,0.12-0.1,0.2-0.13c0.08-0.03,0.16-0.05,0.24-0.05c0.09,0,0.17,0.02,0.25,0.05
	c0.08,0.03,0.14,0.08,0.2,0.13s0.1,0.12,0.13,0.2c0.03,0.08,0.05,0.16,0.05,0.25c0,0.09-0.02,0.17-0.05,0.25
	c-0.03,0.08-0.08,0.14-0.13,0.2s-0.12,0.1-0.2,0.13c-0.08,0.03-0.16,0.05-0.25,0.05c-0.09,0-0.17-0.02-0.24-0.05
	c-0.08-0.03-0.14-0.08-0.2-0.13c-0.05-0.06-0.1-0.12-0.13-0.2C382.92,24.74,382.91,24.66,382.91,24.57z M386.61,25.12h-0.97v-7.17
	h0.97V25.12z M387.7,17.95h0.78c0.09,0,0.16,0.02,0.21,0.06c0.05,0.04,0.09,0.1,0.12,0.17l2.03,5.06c0.05,0.11,0.09,0.24,0.13,0.37
	c0.04,0.13,0.08,0.27,0.11,0.41c0.03-0.14,0.06-0.28,0.1-0.41c0.04-0.13,0.08-0.26,0.12-0.37l2.01-5.06
	c0.02-0.06,0.06-0.11,0.12-0.16c0.06-0.05,0.13-0.07,0.21-0.07h0.78l-2.92,7.17h-0.88L387.7,17.95z M400.54,25.12h-0.75
	c-0.09,0-0.16-0.02-0.21-0.07c-0.05-0.04-0.09-0.1-0.12-0.17l-0.67-1.73h-3.21l-0.67,1.73c-0.02,0.06-0.06,0.11-0.12,0.16
	s-0.13,0.07-0.21,0.07h-0.75l2.87-7.17h0.99L400.54,25.12z M395.85,22.46h2.67l-1.12-2.92c-0.07-0.18-0.15-0.41-0.21-0.67
	c-0.04,0.14-0.07,0.26-0.11,0.38c-0.04,0.12-0.07,0.22-0.1,0.3L395.85,22.46z M403.14,20.82c0-0.09,0.02-0.17,0.05-0.25
	c0.03-0.08,0.08-0.14,0.13-0.2s0.12-0.1,0.2-0.13c0.08-0.03,0.16-0.05,0.25-0.05s0.17,0.02,0.25,0.05c0.08,0.03,0.14,0.08,0.2,0.13
	s0.1,0.12,0.13,0.2c0.03,0.08,0.05,0.16,0.05,0.25c0,0.09-0.02,0.17-0.05,0.25c-0.03,0.08-0.08,0.14-0.13,0.2s-0.12,0.1-0.2,0.13
	c-0.08,0.03-0.16,0.05-0.25,0.05s-0.17-0.02-0.25-0.05c-0.08-0.03-0.14-0.08-0.2-0.13s-0.1-0.12-0.13-0.2S403.14,20.91,403.14,20.82
	z M403.14,24.57c0-0.09,0.02-0.17,0.05-0.25c0.03-0.08,0.08-0.14,0.13-0.2s0.12-0.1,0.2-0.13c0.08-0.03,0.16-0.05,0.25-0.05
	s0.17,0.02,0.25,0.05c0.08,0.03,0.14,0.08,0.2,0.13s0.1,0.12,0.13,0.2c0.03,0.08,0.05,0.16,0.05,0.25c0,0.09-0.02,0.17-0.05,0.25
	c-0.03,0.08-0.08,0.14-0.13,0.2s-0.12,0.1-0.2,0.13c-0.08,0.03-0.16,0.05-0.25,0.05s-0.17-0.02-0.25-0.05
	c-0.08-0.03-0.14-0.08-0.2-0.13s-0.1-0.12-0.13-0.2S403.14,24.66,403.14,24.57z M408.39,24.44h1.54v-4.88
	c0-0.15,0.01-0.29,0.02-0.44l-1.28,1.09c-0.03,0.03-0.07,0.05-0.1,0.06c-0.03,0.01-0.07,0.02-0.1,0.02c-0.05,0-0.09-0.01-0.13-0.03
	c-0.04-0.02-0.07-0.05-0.09-0.08l-0.28-0.38l2.13-1.85h0.73v6.5h1.41v0.68h-3.84V24.44z M415.76,17.87c0.3,0,0.59,0.04,0.85,0.13
	c0.26,0.09,0.49,0.22,0.68,0.39c0.19,0.17,0.34,0.38,0.45,0.63c0.11,0.25,0.17,0.53,0.17,0.84c0,0.27-0.04,0.51-0.12,0.74
	c-0.08,0.23-0.19,0.44-0.33,0.65c-0.14,0.21-0.29,0.41-0.47,0.6c-0.18,0.2-0.37,0.39-0.57,0.6l-1.88,1.93
	c0.13-0.04,0.27-0.07,0.41-0.09c0.14-0.02,0.27-0.03,0.39-0.03h2.4c0.1,0,0.17,0.03,0.23,0.09s0.08,0.13,0.08,0.22v0.54h-4.78v-0.31
	c0-0.06,0.01-0.13,0.04-0.19c0.02-0.07,0.07-0.13,0.12-0.19l2.29-2.3c0.19-0.19,0.36-0.38,0.52-0.56c0.16-0.18,0.29-0.36,0.4-0.54
	c0.11-0.18,0.2-0.36,0.26-0.55c0.06-0.18,0.09-0.38,0.09-0.59s-0.03-0.39-0.1-0.55c-0.07-0.16-0.16-0.29-0.27-0.39
	c-0.12-0.1-0.25-0.18-0.41-0.23s-0.33-0.08-0.5-0.08s-0.35,0.03-0.5,0.08c-0.15,0.05-0.29,0.13-0.41,0.22
	c-0.12,0.09-0.22,0.21-0.3,0.34c-0.08,0.13-0.14,0.27-0.17,0.43c-0.03,0.1-0.07,0.17-0.12,0.21c-0.05,0.04-0.12,0.07-0.21,0.07
	c-0.02,0-0.03,0-0.05,0s-0.04,0-0.06-0.01l-0.46-0.08c0.05-0.33,0.14-0.62,0.27-0.87c0.13-0.25,0.3-0.46,0.51-0.63
	s0.44-0.3,0.71-0.39C415.17,17.92,415.45,17.87,415.76,17.87z M421.65,17.87c0.3,0,0.58,0.04,0.84,0.13
	c0.26,0.09,0.48,0.21,0.66,0.37s0.33,0.35,0.43,0.58s0.16,0.48,0.16,0.75c0,0.23-0.03,0.43-0.09,0.61s-0.14,0.33-0.25,0.47
	c-0.11,0.14-0.24,0.25-0.39,0.34s-0.33,0.17-0.51,0.22c0.47,0.12,0.82,0.33,1.05,0.62c0.24,0.29,0.35,0.65,0.35,1.09
	c0,0.33-0.06,0.63-0.19,0.89c-0.12,0.26-0.3,0.49-0.51,0.67c-0.22,0.19-0.47,0.33-0.76,0.43c-0.29,0.1-0.6,0.15-0.93,0.15
	c-0.38,0-0.71-0.05-0.97-0.14c-0.27-0.1-0.5-0.23-0.69-0.39s-0.34-0.36-0.46-0.59s-0.22-0.48-0.3-0.74l0.38-0.16
	c0.07-0.03,0.14-0.04,0.21-0.04c0.07,0,0.13,0.01,0.18,0.04s0.09,0.07,0.12,0.13c0.01,0.01,0.01,0.03,0.02,0.04
	c0.01,0.01,0.01,0.03,0.02,0.05c0.05,0.1,0.1,0.21,0.17,0.33c0.07,0.12,0.16,0.24,0.27,0.34c0.11,0.11,0.25,0.2,0.42,0.27
	c0.17,0.07,0.38,0.11,0.63,0.11s0.47-0.04,0.66-0.12s0.34-0.19,0.47-0.32s0.22-0.28,0.28-0.44c0.06-0.16,0.09-0.32,0.09-0.47
	c0-0.19-0.03-0.37-0.08-0.53s-0.15-0.3-0.28-0.42c-0.13-0.12-0.32-0.21-0.56-0.27c-0.24-0.07-0.54-0.1-0.92-0.1v-0.65
	c0.3,0,0.56-0.03,0.78-0.1c0.21-0.06,0.39-0.15,0.53-0.26c0.14-0.11,0.24-0.24,0.3-0.39s0.09-0.32,0.09-0.51
	c0-0.21-0.03-0.39-0.1-0.54c-0.07-0.15-0.15-0.28-0.27-0.38c-0.11-0.1-0.25-0.17-0.4-0.22c-0.16-0.05-0.32-0.08-0.5-0.08
	c-0.18,0-0.35,0.03-0.5,0.08c-0.15,0.05-0.29,0.13-0.41,0.22s-0.22,0.21-0.3,0.34c-0.08,0.13-0.14,0.27-0.18,0.43
	c-0.03,0.1-0.07,0.17-0.12,0.21c-0.05,0.04-0.12,0.06-0.21,0.06c-0.02,0-0.03,0-0.05,0c-0.02,0-0.04,0-0.06-0.01l-0.46-0.08
	c0.05-0.33,0.14-0.62,0.27-0.87c0.13-0.25,0.3-0.46,0.51-0.63s0.44-0.3,0.71-0.39C421.06,17.92,421.35,17.87,421.65,17.87z
	 M428.87,22.53h1.08v0.51c0,0.05-0.02,0.1-0.05,0.13c-0.03,0.04-0.08,0.06-0.15,0.06h-0.89v1.88h-0.78v-1.88h-3.18
	c-0.07,0-0.12-0.02-0.17-0.06c-0.05-0.04-0.08-0.09-0.09-0.14l-0.09-0.46l3.48-4.62h0.83V22.53z M428.08,19.58
	c0-0.09,0-0.18,0.01-0.28s0.02-0.2,0.03-0.31l-2.6,3.54h2.57V19.58z M435.04,18.34c0,0.13-0.04,0.23-0.12,0.31
	c-0.08,0.08-0.21,0.12-0.4,0.12h-2.25l-0.33,1.88c0.37-0.08,0.72-0.12,1.04-0.12c0.37,0,0.7,0.05,0.99,0.17
	c0.29,0.11,0.52,0.26,0.72,0.46s0.34,0.42,0.44,0.68c0.1,0.26,0.15,0.55,0.15,0.86c0,0.38-0.07,0.72-0.2,1.03
	c-0.13,0.31-0.32,0.57-0.55,0.79s-0.5,0.39-0.82,0.5c-0.31,0.12-0.65,0.18-1.01,0.18c-0.21,0-0.41-0.02-0.61-0.06
	c-0.19-0.04-0.37-0.1-0.54-0.17c-0.17-0.07-0.32-0.15-0.46-0.24c-0.14-0.09-0.27-0.18-0.38-0.28l0.27-0.38
	c0.06-0.09,0.14-0.13,0.24-0.13c0.06,0,0.14,0.03,0.22,0.08s0.19,0.11,0.31,0.17c0.12,0.06,0.26,0.12,0.42,0.17
	c0.16,0.05,0.35,0.08,0.58,0.08c0.25,0,0.47-0.04,0.67-0.12c0.2-0.08,0.37-0.19,0.51-0.34s0.25-0.33,0.33-0.53
	c0.08-0.21,0.12-0.44,0.12-0.69c0-0.22-0.03-0.42-0.1-0.61c-0.06-0.18-0.16-0.33-0.29-0.46c-0.13-0.13-0.3-0.22-0.49-0.29
	c-0.2-0.07-0.43-0.1-0.69-0.1c-0.18,0-0.37,0.01-0.56,0.04c-0.19,0.03-0.39,0.08-0.6,0.14l-0.56-0.17l0.58-3.35h3.39V18.34z
	 M439.2,20.73c0.29,0,0.56,0.05,0.82,0.14c0.26,0.1,0.48,0.23,0.67,0.42s0.35,0.41,0.46,0.67c0.11,0.27,0.17,0.57,0.17,0.91
	c0,0.33-0.06,0.64-0.18,0.92c-0.12,0.28-0.29,0.53-0.5,0.74c-0.21,0.21-0.47,0.38-0.78,0.5c-0.3,0.12-0.64,0.18-1,0.18
	c-0.36,0-0.69-0.06-0.98-0.17s-0.54-0.28-0.75-0.49c-0.21-0.21-0.37-0.47-0.48-0.77c-0.11-0.3-0.17-0.64-0.17-1.01
	c0-0.31,0.07-0.65,0.21-1s0.36-0.73,0.67-1.14l1.82-2.45c0.05-0.06,0.11-0.11,0.19-0.15s0.18-0.06,0.29-0.06h0.79l-2.49,3.14
	c0.17-0.12,0.36-0.21,0.57-0.27C438.74,20.76,438.96,20.73,439.2,20.73z M437.35,22.91c0,0.23,0.03,0.44,0.1,0.63
	c0.07,0.19,0.16,0.35,0.29,0.49c0.13,0.14,0.28,0.24,0.47,0.32c0.18,0.08,0.4,0.11,0.63,0.11c0.24,0,0.46-0.04,0.65-0.12
	c0.19-0.08,0.36-0.18,0.5-0.32c0.14-0.14,0.24-0.3,0.32-0.48s0.11-0.39,0.11-0.61c0-0.23-0.04-0.44-0.11-0.63
	c-0.07-0.19-0.18-0.35-0.31-0.48c-0.13-0.13-0.29-0.23-0.48-0.3c-0.19-0.07-0.39-0.1-0.62-0.1c-0.24,0-0.46,0.04-0.65,0.12
	c-0.19,0.08-0.36,0.19-0.49,0.33s-0.24,0.3-0.31,0.48C437.39,22.52,437.35,22.71,437.35,22.91z M447.17,17.95v0.4
	c0,0.11-0.01,0.21-0.04,0.28c-0.03,0.07-0.05,0.13-0.08,0.19l-2.96,5.98c-0.04,0.09-0.1,0.16-0.18,0.22
	c-0.08,0.06-0.18,0.09-0.31,0.09h-0.63l3.01-5.91c0.04-0.08,0.09-0.16,0.13-0.23c0.04-0.07,0.1-0.14,0.15-0.2h-3.74
	c-0.06,0-0.11-0.02-0.15-0.07c-0.04-0.04-0.07-0.1-0.07-0.15v-0.6H447.17z M450.45,25.2c-0.36,0-0.68-0.05-0.98-0.14
	c-0.3-0.1-0.55-0.23-0.76-0.41c-0.21-0.18-0.38-0.39-0.5-0.64c-0.12-0.25-0.17-0.53-0.17-0.85c0-0.46,0.12-0.84,0.36-1.14
	c0.24-0.3,0.58-0.51,1.03-0.64c-0.38-0.14-0.66-0.35-0.85-0.63s-0.29-0.61-0.29-1c0-0.26,0.05-0.51,0.15-0.74
	c0.1-0.23,0.25-0.43,0.44-0.6c0.19-0.17,0.42-0.3,0.68-0.4c0.26-0.1,0.56-0.14,0.89-0.14c0.32,0,0.62,0.05,0.89,0.14
	s0.5,0.23,0.68,0.4c0.19,0.17,0.34,0.37,0.44,0.6c0.1,0.23,0.15,0.48,0.15,0.74c0,0.39-0.1,0.72-0.29,1s-0.48,0.49-0.85,0.63
	c0.45,0.13,0.79,0.34,1.03,0.64c0.24,0.3,0.36,0.68,0.36,1.14c0,0.31-0.06,0.6-0.18,0.85c-0.12,0.25-0.28,0.47-0.5,0.64
	c-0.21,0.18-0.47,0.31-0.76,0.41C451.13,25.15,450.81,25.2,450.45,25.2z M450.45,24.49c0.23,0,0.44-0.03,0.63-0.1
	c0.18-0.07,0.34-0.16,0.47-0.28c0.13-0.12,0.23-0.26,0.29-0.42s0.1-0.35,0.1-0.55c0-0.25-0.04-0.46-0.12-0.63
	c-0.08-0.18-0.19-0.32-0.33-0.43s-0.3-0.19-0.48-0.24s-0.37-0.08-0.57-0.08c-0.2,0-0.38,0.03-0.56,0.08s-0.34,0.13-0.48,0.24
	s-0.25,0.25-0.33,0.43c-0.08,0.17-0.12,0.39-0.12,0.63c0,0.2,0.03,0.38,0.1,0.55c0.07,0.17,0.17,0.31,0.29,0.42
	c0.13,0.12,0.28,0.21,0.47,0.28C450.01,24.45,450.22,24.49,450.45,24.49z M450.45,21.05c0.23,0,0.43-0.04,0.6-0.11
	s0.3-0.17,0.4-0.29c0.1-0.12,0.18-0.25,0.23-0.41s0.07-0.31,0.07-0.48c0-0.17-0.03-0.32-0.08-0.47s-0.14-0.27-0.25-0.38
	s-0.24-0.2-0.41-0.26c-0.16-0.06-0.35-0.1-0.56-0.1c-0.21,0-0.4,0.03-0.56,0.1c-0.16,0.06-0.3,0.15-0.4,0.26s-0.19,0.24-0.25,0.38
	s-0.08,0.3-0.08,0.47c0,0.16,0.02,0.32,0.07,0.48s0.12,0.29,0.22,0.41c0.1,0.12,0.24,0.21,0.4,0.29S450.22,21.05,450.45,21.05z
	 M456.1,22.18c-0.27,0-0.53-0.04-0.77-0.13c-0.24-0.09-0.45-0.22-0.64-0.4s-0.33-0.39-0.44-0.65c-0.11-0.25-0.16-0.55-0.16-0.88
	c0-0.31,0.06-0.61,0.17-0.88c0.12-0.27,0.28-0.51,0.49-0.71c0.21-0.2,0.46-0.36,0.75-0.48c0.29-0.12,0.61-0.17,0.96-0.17
	c0.34,0,0.65,0.06,0.93,0.17s0.52,0.27,0.72,0.47c0.2,0.2,0.35,0.45,0.46,0.73s0.16,0.6,0.16,0.94c0,0.21-0.02,0.4-0.06,0.59
	c-0.04,0.18-0.09,0.37-0.17,0.54s-0.16,0.35-0.26,0.53s-0.22,0.36-0.35,0.54l-1.75,2.52c-0.04,0.06-0.1,0.11-0.18,0.15
	s-0.17,0.06-0.28,0.06h-0.82l2.18-2.86c0.07-0.1,0.14-0.19,0.21-0.27c0.06-0.09,0.12-0.17,0.18-0.26c-0.18,0.15-0.39,0.26-0.62,0.33
	C456.6,22.14,456.36,22.18,456.1,22.18z M457.89,20.08c0-0.22-0.04-0.43-0.11-0.61c-0.07-0.18-0.17-0.34-0.3-0.46
	c-0.13-0.13-0.28-0.22-0.45-0.29s-0.37-0.1-0.58-0.1c-0.22,0-0.42,0.04-0.6,0.11c-0.18,0.07-0.34,0.17-0.46,0.3
	c-0.13,0.13-0.23,0.28-0.3,0.46c-0.07,0.18-0.11,0.37-0.11,0.58c0,0.23,0.03,0.43,0.1,0.61c0.07,0.18,0.16,0.33,0.28,0.45
	c0.12,0.12,0.27,0.22,0.44,0.28c0.18,0.06,0.37,0.1,0.59,0.1c0.24,0,0.45-0.04,0.64-0.12c0.18-0.08,0.34-0.18,0.47-0.31
	c0.13-0.13,0.22-0.28,0.29-0.45C457.86,20.44,457.89,20.27,457.89,20.08z M321.12,34.44v2.68h-0.96v-7.17h2.11
	c0.45,0,0.85,0.05,1.18,0.16c0.33,0.11,0.61,0.25,0.83,0.45c0.22,0.19,0.38,0.43,0.49,0.7c0.11,0.27,0.16,0.58,0.16,0.92
	c0,0.33-0.06,0.64-0.17,0.92c-0.12,0.28-0.29,0.52-0.51,0.71c-0.23,0.2-0.5,0.36-0.84,0.47c-0.33,0.11-0.71,0.17-1.15,0.17H321.12z
	 M321.12,33.67h1.15c0.28,0,0.52-0.04,0.73-0.11c0.21-0.07,0.39-0.18,0.53-0.31c0.14-0.13,0.25-0.29,0.32-0.47s0.11-0.38,0.11-0.61
	c0-0.46-0.14-0.81-0.42-1.07s-0.71-0.39-1.28-0.39h-1.15V33.67z M326.02,37.12v-5.07h0.51c0.1,0,0.16,0.02,0.2,0.06
	c0.04,0.04,0.06,0.1,0.08,0.19l0.06,0.79c0.17-0.35,0.39-0.63,0.64-0.83c0.26-0.2,0.55-0.3,0.9-0.3c0.14,0,0.27,0.02,0.38,0.05
	s0.22,0.08,0.31,0.13l-0.12,0.67c-0.02,0.08-0.07,0.12-0.15,0.12c-0.05,0-0.12-0.02-0.21-0.05s-0.23-0.05-0.41-0.05
	c-0.31,0-0.57,0.09-0.78,0.27c-0.21,0.18-0.38,0.44-0.52,0.79v3.22H326.02z M331.24,30.46c0,0.09-0.02,0.17-0.05,0.24
	c-0.04,0.07-0.08,0.14-0.14,0.2c-0.06,0.06-0.13,0.1-0.2,0.14s-0.16,0.05-0.25,0.05c-0.09,0-0.17-0.02-0.24-0.05
	c-0.08-0.03-0.14-0.08-0.2-0.14c-0.06-0.06-0.1-0.12-0.14-0.2c-0.03-0.08-0.05-0.16-0.05-0.24c0-0.09,0.02-0.17,0.05-0.25
	c0.03-0.08,0.08-0.15,0.14-0.21c0.06-0.06,0.12-0.1,0.2-0.14c0.07-0.03,0.16-0.05,0.24-0.05c0.09,0,0.17,0.02,0.25,0.05
	s0.14,0.08,0.2,0.14c0.06,0.06,0.1,0.13,0.14,0.21C331.22,30.29,331.24,30.38,331.24,30.46z M331.04,32.05v5.07h-0.89v-5.07H331.04z
	 M331.97,32.05h0.73c0.07,0,0.13,0.02,0.18,0.06c0.05,0.04,0.08,0.08,0.1,0.13l1.28,3.26c0.05,0.12,0.08,0.24,0.11,0.36
	c0.03,0.12,0.05,0.24,0.07,0.35c0.03-0.12,0.06-0.23,0.08-0.35c0.03-0.12,0.07-0.24,0.12-0.36l1.3-3.26c0.02-0.05,0.05-0.1,0.1-0.13
	s0.1-0.05,0.17-0.05h0.69l-2.06,5.07h-0.81L331.97,32.05z M341.45,37.12h-0.4c-0.09,0-0.16-0.01-0.21-0.04
	c-0.05-0.03-0.09-0.08-0.1-0.17l-0.1-0.47c-0.13,0.12-0.26,0.23-0.39,0.32c-0.13,0.09-0.26,0.17-0.4,0.24
	c-0.14,0.06-0.29,0.11-0.45,0.15s-0.33,0.05-0.53,0.05c-0.2,0-0.38-0.03-0.55-0.08c-0.17-0.05-0.32-0.14-0.45-0.25
	c-0.13-0.11-0.23-0.25-0.3-0.42c-0.07-0.17-0.11-0.37-0.11-0.6c0-0.2,0.06-0.39,0.17-0.58c0.11-0.19,0.29-0.35,0.53-0.5
	c0.24-0.14,0.57-0.26,0.96-0.35c0.4-0.09,0.88-0.14,1.46-0.14v-0.4c0-0.4-0.08-0.7-0.25-0.9c-0.17-0.2-0.42-0.3-0.75-0.3
	c-0.22,0-0.4,0.03-0.55,0.08s-0.28,0.12-0.38,0.18c-0.11,0.07-0.2,0.13-0.28,0.19c-0.08,0.05-0.16,0.08-0.23,0.08
	c-0.06,0-0.11-0.02-0.16-0.05c-0.04-0.03-0.08-0.07-0.11-0.12l-0.16-0.28c0.28-0.27,0.58-0.47,0.9-0.61c0.32-0.13,0.68-0.2,1.08-0.2
	c0.28,0,0.54,0.05,0.75,0.14c0.22,0.09,0.41,0.22,0.56,0.39s0.26,0.37,0.34,0.61c0.08,0.24,0.12,0.5,0.12,0.78V37.12z M339.14,36.57
	c0.16,0,0.3-0.02,0.43-0.05c0.13-0.03,0.25-0.08,0.37-0.13s0.23-0.13,0.33-0.21c0.1-0.08,0.21-0.18,0.31-0.28v-1.04
	c-0.41,0-0.76,0.03-1.05,0.08c-0.29,0.05-0.52,0.12-0.7,0.2c-0.18,0.08-0.31,0.18-0.39,0.3s-0.12,0.24-0.12,0.38
	c0,0.13,0.02,0.25,0.06,0.35c0.04,0.1,0.1,0.18,0.18,0.24c0.07,0.06,0.16,0.11,0.26,0.14S339.02,36.57,339.14,36.57z M346.26,32.95
	c-0.03,0.04-0.05,0.07-0.08,0.08c-0.03,0.02-0.06,0.03-0.11,0.03c-0.05,0-0.1-0.02-0.16-0.06c-0.06-0.04-0.13-0.09-0.22-0.14
	s-0.2-0.1-0.33-0.14c-0.13-0.04-0.29-0.06-0.47-0.06c-0.25,0-0.47,0.04-0.66,0.13c-0.19,0.09-0.35,0.22-0.48,0.38
	c-0.13,0.17-0.23,0.37-0.29,0.6s-0.1,0.5-0.1,0.79c0,0.31,0.03,0.58,0.1,0.82c0.07,0.24,0.17,0.44,0.29,0.6
	c0.13,0.16,0.28,0.29,0.46,0.37s0.39,0.13,0.61,0.13c0.22,0,0.4-0.03,0.54-0.08s0.26-0.11,0.35-0.17s0.17-0.12,0.23-0.17
	c0.06-0.05,0.12-0.08,0.18-0.08c0.08,0,0.13,0.03,0.17,0.08l0.25,0.33c-0.22,0.27-0.5,0.47-0.83,0.59s-0.68,0.19-1.04,0.19
	c-0.32,0-0.61-0.06-0.88-0.18c-0.27-0.12-0.51-0.29-0.71-0.51c-0.2-0.22-0.36-0.49-0.47-0.82c-0.11-0.32-0.17-0.69-0.17-1.11
	c0-0.38,0.05-0.72,0.16-1.04s0.26-0.6,0.46-0.83s0.45-0.41,0.75-0.54c0.3-0.13,0.64-0.19,1.02-0.19c0.35,0,0.67,0.06,0.94,0.17
	c0.27,0.12,0.52,0.28,0.73,0.49L346.26,32.95z M348.96,38.61c-0.03,0.07-0.07,0.12-0.11,0.16s-0.11,0.06-0.21,0.06h-0.66l0.93-2.01
	l-2.09-4.77h0.77c0.08,0,0.14,0.02,0.18,0.06c0.04,0.04,0.08,0.08,0.1,0.13l1.35,3.19c0.03,0.07,0.06,0.15,0.08,0.22
	c0.02,0.07,0.04,0.15,0.06,0.22c0.02-0.08,0.05-0.15,0.07-0.22c0.02-0.07,0.05-0.15,0.08-0.23l1.31-3.18
	c0.02-0.05,0.05-0.1,0.1-0.13s0.1-0.05,0.16-0.05h0.71L348.96,38.61z M356.53,31.97c0.3,0,0.58,0.05,0.84,0.15
	c0.26,0.1,0.48,0.25,0.67,0.44c0.19,0.19,0.33,0.43,0.44,0.71c0.1,0.28,0.16,0.6,0.16,0.96c0,0.14-0.02,0.23-0.04,0.28
	c-0.03,0.05-0.09,0.07-0.17,0.07h-3.37c0.01,0.32,0.05,0.6,0.13,0.83c0.08,0.24,0.19,0.43,0.33,0.59s0.31,0.28,0.5,0.36
	c0.19,0.08,0.41,0.12,0.65,0.12c0.22,0,0.42-0.03,0.58-0.08c0.16-0.05,0.3-0.11,0.42-0.17s0.21-0.12,0.29-0.17
	c0.08-0.05,0.15-0.08,0.2-0.08c0.07,0,0.13,0.03,0.17,0.08l0.25,0.33c-0.11,0.13-0.24,0.25-0.4,0.35s-0.32,0.18-0.49,0.24
	c-0.17,0.06-0.36,0.11-0.54,0.14c-0.19,0.03-0.37,0.05-0.55,0.05c-0.35,0-0.67-0.06-0.97-0.18s-0.55-0.29-0.76-0.52
	c-0.22-0.23-0.38-0.51-0.5-0.85c-0.12-0.34-0.18-0.72-0.18-1.16c0-0.35,0.05-0.68,0.16-0.99c0.11-0.31,0.26-0.57,0.47-0.8
	c0.2-0.22,0.45-0.4,0.75-0.53C355.83,32.04,356.16,31.97,356.53,31.97z M356.55,32.63c-0.43,0-0.77,0.12-1.01,0.37
	c-0.25,0.25-0.4,0.59-0.46,1.03h2.76c0-0.21-0.03-0.4-0.08-0.57c-0.06-0.17-0.14-0.32-0.25-0.45c-0.11-0.12-0.24-0.22-0.4-0.29
	S356.75,32.63,356.55,32.63z M366.88,35.64c0.05,0,0.1,0.02,0.15,0.07l0.38,0.42c-0.29,0.34-0.65,0.61-1.07,0.79
	c-0.42,0.19-0.92,0.29-1.51,0.29c-0.52,0-0.99-0.09-1.41-0.27c-0.42-0.18-0.78-0.43-1.07-0.75c-0.3-0.32-0.53-0.71-0.69-1.16
	c-0.16-0.45-0.24-0.95-0.24-1.49s0.09-1.04,0.26-1.49c0.18-0.45,0.42-0.84,0.74-1.16c0.32-0.32,0.7-0.57,1.14-0.75
	s0.93-0.27,1.46-0.27c0.53,0,0.98,0.08,1.36,0.25c0.38,0.16,0.72,0.38,1.02,0.67l-0.32,0.45c-0.02,0.03-0.05,0.06-0.08,0.08
	s-0.07,0.03-0.13,0.03c-0.04,0-0.09-0.02-0.14-0.05c-0.05-0.03-0.11-0.07-0.17-0.12c-0.07-0.05-0.15-0.1-0.24-0.15
	c-0.09-0.05-0.2-0.1-0.32-0.15s-0.27-0.09-0.43-0.12s-0.35-0.05-0.57-0.05c-0.38,0-0.73,0.07-1.05,0.2
	c-0.32,0.13-0.59,0.32-0.82,0.56c-0.23,0.24-0.41,0.54-0.54,0.89c-0.13,0.35-0.19,0.74-0.19,1.17c0,0.45,0.06,0.84,0.19,1.2
	c0.13,0.35,0.3,0.65,0.53,0.89c0.22,0.24,0.48,0.43,0.79,0.55c0.3,0.13,0.63,0.19,0.98,0.19c0.21,0,0.41-0.01,0.58-0.04
	c0.17-0.02,0.33-0.06,0.47-0.12c0.15-0.05,0.28-0.12,0.41-0.2c0.12-0.08,0.25-0.18,0.38-0.29
	C366.77,35.66,366.83,35.64,366.88,35.64z M370.59,31.97c0.37,0,0.7,0.06,1,0.18c0.3,0.12,0.55,0.3,0.76,0.53
	c0.21,0.23,0.37,0.5,0.48,0.82c0.11,0.32,0.17,0.68,0.17,1.08c0,0.4-0.06,0.76-0.17,1.08s-0.27,0.59-0.48,0.82
	c-0.21,0.23-0.46,0.4-0.76,0.52c-0.3,0.12-0.63,0.18-1,0.18s-0.7-0.06-1-0.18c-0.3-0.12-0.55-0.3-0.76-0.52s-0.37-0.5-0.49-0.82
	s-0.17-0.68-0.17-1.08c0-0.4,0.06-0.76,0.17-1.08c0.11-0.32,0.28-0.6,0.49-0.82c0.21-0.23,0.46-0.4,0.76-0.53
	S370.22,31.97,370.59,31.97z M370.59,36.49c0.5,0,0.87-0.17,1.12-0.5c0.25-0.33,0.37-0.8,0.37-1.4c0-0.6-0.12-1.07-0.37-1.41
	c-0.25-0.34-0.62-0.5-1.12-0.5c-0.25,0-0.47,0.04-0.66,0.13c-0.19,0.09-0.34,0.21-0.47,0.38c-0.12,0.16-0.22,0.36-0.28,0.6
	s-0.09,0.51-0.09,0.81s0.03,0.57,0.09,0.81c0.06,0.24,0.16,0.44,0.28,0.6c0.12,0.16,0.28,0.29,0.47,0.37
	C370.12,36.45,370.34,36.49,370.59,36.49z M376.15,31.97c0.37,0,0.7,0.06,1,0.18c0.3,0.12,0.55,0.3,0.76,0.53
	c0.21,0.23,0.37,0.5,0.48,0.82c0.11,0.32,0.17,0.68,0.17,1.08c0,0.4-0.06,0.76-0.17,1.08s-0.27,0.59-0.48,0.82
	c-0.21,0.23-0.46,0.4-0.76,0.52c-0.3,0.12-0.63,0.18-1,0.18s-0.7-0.06-1-0.18c-0.3-0.12-0.55-0.3-0.76-0.52s-0.37-0.5-0.48-0.82
	s-0.17-0.68-0.17-1.08c0-0.4,0.06-0.76,0.17-1.08c0.11-0.32,0.27-0.6,0.48-0.82c0.21-0.23,0.46-0.4,0.76-0.53
	C375.45,32.03,375.78,31.97,376.15,31.97z M376.15,36.49c0.5,0,0.87-0.17,1.12-0.5c0.25-0.33,0.37-0.8,0.37-1.4
	c0-0.6-0.12-1.07-0.37-1.41c-0.25-0.34-0.62-0.5-1.12-0.5c-0.25,0-0.47,0.04-0.66,0.13c-0.19,0.09-0.34,0.21-0.47,0.38
	c-0.12,0.16-0.22,0.36-0.28,0.6c-0.06,0.24-0.09,0.51-0.09,0.81s0.03,0.57,0.09,0.81c0.06,0.24,0.16,0.44,0.28,0.6
	c0.12,0.16,0.28,0.29,0.47,0.37S375.9,36.49,376.15,36.49z M380.59,29.75v4.33h0.23c0.07,0,0.12-0.01,0.17-0.03
	c0.04-0.02,0.09-0.06,0.15-0.11l1.6-1.71c0.05-0.05,0.1-0.1,0.15-0.13c0.05-0.03,0.12-0.05,0.2-0.05h0.81l-1.87,1.99
	c-0.05,0.06-0.09,0.11-0.14,0.15c-0.04,0.04-0.1,0.08-0.15,0.11c0.06,0.04,0.11,0.09,0.16,0.14c0.05,0.05,0.09,0.11,0.14,0.18
	l1.98,2.5h-0.8c-0.07,0-0.14-0.01-0.19-0.04c-0.05-0.03-0.1-0.07-0.15-0.13l-1.67-2.08c-0.05-0.07-0.1-0.12-0.15-0.14
	s-0.12-0.03-0.22-0.03h-0.25v2.42h-0.9v-7.37H380.59z M386.09,30.46c0,0.09-0.02,0.17-0.05,0.24c-0.04,0.07-0.08,0.14-0.14,0.2
	c-0.06,0.06-0.13,0.1-0.2,0.14c-0.08,0.03-0.16,0.05-0.25,0.05c-0.09,0-0.17-0.02-0.24-0.05c-0.07-0.03-0.14-0.08-0.2-0.14
	c-0.06-0.06-0.1-0.12-0.14-0.2c-0.03-0.08-0.05-0.16-0.05-0.24c0-0.09,0.02-0.17,0.05-0.25s0.08-0.15,0.14-0.21
	c0.06-0.06,0.12-0.1,0.2-0.14c0.08-0.03,0.16-0.05,0.24-0.05c0.09,0,0.17,0.02,0.25,0.05c0.08,0.03,0.14,0.08,0.2,0.14
	s0.1,0.13,0.14,0.21S386.09,30.38,386.09,30.46z M385.89,32.05v5.07H385v-5.07H385.89z M389.47,31.97c0.3,0,0.58,0.05,0.84,0.15
	s0.48,0.25,0.67,0.44c0.19,0.19,0.33,0.43,0.44,0.71c0.1,0.28,0.16,0.6,0.16,0.96c0,0.14-0.01,0.23-0.04,0.28
	c-0.03,0.05-0.09,0.07-0.17,0.07h-3.37c0.01,0.32,0.05,0.6,0.13,0.83c0.08,0.24,0.19,0.43,0.33,0.59s0.31,0.28,0.5,0.36
	c0.19,0.08,0.41,0.12,0.65,0.12c0.22,0,0.42-0.03,0.58-0.08c0.16-0.05,0.3-0.11,0.42-0.17c0.12-0.06,0.21-0.12,0.29-0.17
	c0.08-0.05,0.15-0.08,0.2-0.08c0.07,0,0.13,0.03,0.17,0.08l0.25,0.33c-0.11,0.13-0.24,0.25-0.39,0.35s-0.32,0.18-0.49,0.24
	c-0.18,0.06-0.36,0.11-0.54,0.14s-0.37,0.05-0.55,0.05c-0.35,0-0.67-0.06-0.97-0.18s-0.55-0.29-0.76-0.52
	c-0.21-0.23-0.38-0.51-0.5-0.85c-0.12-0.34-0.18-0.72-0.18-1.16c0-0.35,0.05-0.68,0.16-0.99s0.26-0.57,0.47-0.8
	c0.2-0.22,0.45-0.4,0.75-0.53C388.77,32.04,389.1,31.97,389.47,31.97z M389.49,32.63c-0.43,0-0.77,0.12-1.01,0.37
	c-0.25,0.25-0.4,0.59-0.46,1.03h2.75c0-0.21-0.03-0.4-0.08-0.57s-0.14-0.32-0.25-0.45c-0.11-0.12-0.24-0.22-0.4-0.29
	C389.87,32.66,389.69,32.63,389.49,32.63z M395.83,34.44v2.68h-0.96v-7.17h2.12c0.45,0,0.85,0.05,1.18,0.16
	c0.33,0.11,0.61,0.25,0.83,0.45c0.22,0.19,0.38,0.43,0.49,0.7c0.11,0.27,0.16,0.58,0.16,0.92c0,0.33-0.06,0.64-0.17,0.92
	c-0.12,0.28-0.29,0.52-0.51,0.71c-0.22,0.2-0.5,0.36-0.84,0.47c-0.33,0.11-0.72,0.17-1.15,0.17H395.83z M395.83,33.67h1.15
	c0.28,0,0.52-0.04,0.73-0.11s0.39-0.18,0.53-0.31c0.14-0.13,0.25-0.29,0.33-0.47s0.11-0.38,0.11-0.61c0-0.46-0.14-0.81-0.42-1.07
	c-0.28-0.26-0.71-0.39-1.28-0.39h-1.15V33.67z M402.64,31.97c0.37,0,0.7,0.06,1,0.18c0.3,0.12,0.55,0.3,0.76,0.53
	c0.21,0.23,0.37,0.5,0.48,0.82c0.11,0.32,0.17,0.68,0.17,1.08c0,0.4-0.06,0.76-0.17,1.08s-0.27,0.59-0.48,0.82
	c-0.21,0.23-0.46,0.4-0.76,0.52c-0.3,0.12-0.63,0.18-1,0.18s-0.7-0.06-1-0.18c-0.3-0.12-0.55-0.3-0.76-0.52s-0.37-0.5-0.48-0.82
	s-0.17-0.68-0.17-1.08c0-0.4,0.06-0.76,0.17-1.08c0.11-0.32,0.27-0.6,0.48-0.82c0.21-0.23,0.46-0.4,0.76-0.53
	C401.94,32.03,402.27,31.97,402.64,31.97z M402.64,36.49c0.5,0,0.87-0.17,1.12-0.5c0.25-0.33,0.37-0.8,0.37-1.4
	c0-0.6-0.12-1.07-0.37-1.41c-0.25-0.34-0.62-0.5-1.12-0.5c-0.25,0-0.47,0.04-0.66,0.13c-0.19,0.09-0.34,0.21-0.47,0.38
	c-0.12,0.16-0.22,0.36-0.28,0.6c-0.06,0.24-0.09,0.51-0.09,0.81s0.03,0.57,0.09,0.81c0.06,0.24,0.16,0.44,0.28,0.6
	c0.12,0.16,0.28,0.29,0.47,0.37S402.39,36.49,402.64,36.49z M407.14,29.75v7.37h-0.89v-7.37H407.14z M409.9,30.46
	c0,0.09-0.02,0.17-0.05,0.24c-0.04,0.07-0.08,0.14-0.14,0.2c-0.06,0.06-0.13,0.1-0.2,0.14c-0.08,0.03-0.16,0.05-0.25,0.05
	c-0.09,0-0.17-0.02-0.24-0.05c-0.07-0.03-0.14-0.08-0.2-0.14c-0.06-0.06-0.1-0.12-0.14-0.2c-0.03-0.08-0.05-0.16-0.05-0.24
	c0-0.09,0.02-0.17,0.05-0.25s0.08-0.15,0.14-0.21c0.06-0.06,0.12-0.1,0.2-0.14c0.08-0.03,0.16-0.05,0.24-0.05
	c0.09,0,0.17,0.02,0.25,0.05c0.08,0.03,0.14,0.08,0.2,0.14s0.1,0.13,0.14,0.21S409.9,30.38,409.9,30.46z M409.7,32.05v5.07h-0.89
	v-5.07H409.7z M414.72,32.95c-0.03,0.04-0.05,0.07-0.08,0.08c-0.03,0.02-0.07,0.03-0.12,0.03s-0.1-0.02-0.16-0.06
	c-0.06-0.04-0.13-0.09-0.22-0.14c-0.09-0.05-0.2-0.1-0.33-0.14c-0.13-0.04-0.29-0.06-0.47-0.06c-0.25,0-0.46,0.04-0.65,0.13
	c-0.19,0.09-0.35,0.22-0.48,0.38c-0.13,0.17-0.23,0.37-0.29,0.6c-0.07,0.24-0.1,0.5-0.1,0.79c0,0.31,0.04,0.58,0.1,0.82
	c0.07,0.24,0.17,0.44,0.29,0.6c0.13,0.16,0.28,0.29,0.46,0.37s0.39,0.13,0.61,0.13c0.22,0,0.4-0.03,0.54-0.08s0.26-0.11,0.35-0.17
	c0.09-0.06,0.17-0.12,0.23-0.17c0.06-0.05,0.12-0.08,0.18-0.08c0.08,0,0.13,0.03,0.17,0.08l0.25,0.33
	c-0.22,0.27-0.49,0.47-0.82,0.59s-0.68,0.19-1.04,0.19c-0.32,0-0.61-0.06-0.88-0.18c-0.27-0.12-0.51-0.29-0.71-0.51
	c-0.2-0.22-0.36-0.49-0.47-0.82c-0.12-0.32-0.17-0.69-0.17-1.11c0-0.38,0.05-0.72,0.16-1.04c0.11-0.32,0.26-0.6,0.46-0.83
	c0.2-0.23,0.45-0.41,0.75-0.54c0.3-0.13,0.64-0.19,1.02-0.19c0.35,0,0.67,0.06,0.94,0.17s0.51,0.28,0.72,0.49L414.72,32.95z
	 M417.42,38.61c-0.03,0.07-0.07,0.12-0.11,0.16s-0.11,0.06-0.21,0.06h-0.66l0.92-2.01l-2.09-4.77h0.77c0.08,0,0.14,0.02,0.18,0.06
	c0.04,0.04,0.08,0.08,0.1,0.13l1.35,3.19c0.03,0.07,0.06,0.15,0.08,0.22c0.02,0.07,0.04,0.15,0.06,0.22
	c0.02-0.08,0.05-0.15,0.07-0.22s0.05-0.15,0.08-0.23l1.32-3.18c0.02-0.05,0.05-0.1,0.1-0.13c0.05-0.04,0.1-0.05,0.16-0.05h0.71
	L417.42,38.61z"/>
</svg>
