<?xml version="1.0" encoding="utf-8"?>
<!-- Generator: Adobe Illustrator 25.0.0, SVG Export Plug-In . SVG Version: 6.00 Build 0)  -->
<svg version="1.1" id="Livello_1" xmlns="http://www.w3.org/2000/svg" xmlns:xlink="http://www.w3.org/1999/xlink" x="0px" y="0px"
	 viewBox="0 0 569.3 55" style="enable-background:new 0 0 569.3 55;" xml:space="preserve">
<polygon id="top-right-minor-bg" style="opacity:0.5;fill:#F5A214;" points="569.3,0 547.81,0 513.5,45.46 534.99,45.46 "/>
<polygon id="top-left-minor-bg" style="opacity:0.5;fill:#F5A214;" points="0,0 21.49,0 55.8,45.46 34.31,45.46 "/>
<g id="logo-top-main">
	<polygon id="top-main-bg" style="fill:#F5A214;" points="290.4,0 284.9,0 27.9,0 70.37,55 284.9,55 290.4,55 499.9,55 541.4,0 	"/>
	<path id="logo-space-joey" style="fill:#241E17;" d="M226.71,15.24c0,1.33-1.08,2.42-2.41,2.42s-2.41-1.08-2.41-2.42
		c0-1.33,1.08-2.42,2.41-2.42S226.71,13.91,226.71,15.24z M226.55,8.95c-0.81,0-1.47,0.66-1.47,1.48c0,0.81,0.66,1.48,1.47,1.48
		c0.81,0,1.47-0.66,1.47-1.48C228.02,9.61,227.37,8.95,226.55,8.95z M239.75,26.84h-2.55c-0.47,0-0.85,0.46-0.85,0.93
		c0,0.47,0.38,0.93,0.85,0.93h2.55c0.47,0,0.85-0.46,0.85-0.93C240.6,27.3,240.22,26.84,239.75,26.84z M253.38,39.17
		c0,0-0.23,0.03-0.63,0.07c-0.1,0.01-0.21,0.03-0.33,0.04c-0.12,0.02-0.25,0.04-0.39,0.07c-0.27,0.05-0.59,0.1-0.92,0.18
		c-0.17,0.04-0.34,0.07-0.52,0.12c-0.18,0.05-0.36,0.1-0.55,0.16c-0.38,0.1-0.77,0.25-1.17,0.39c-0.2,0.08-0.4,0.16-0.6,0.25
		c-0.1,0.04-0.2,0.09-0.31,0.13c-0.1,0.05-0.2,0.1-0.3,0.15c-0.2,0.1-0.41,0.19-0.61,0.3c-0.2,0.11-0.4,0.22-0.6,0.33
		c-0.2,0.11-0.39,0.23-0.59,0.35l-0.29,0.18l-0.28,0.19c-0.18,0.13-0.37,0.25-0.54,0.39c-0.17,0.14-0.34,0.27-0.52,0.4
		c-0.17,0.13-0.32,0.28-0.48,0.41c-0.16,0.14-0.31,0.26-0.45,0.41c-0.28,0.28-0.55,0.53-0.77,0.79c-0.11,0.13-0.23,0.25-0.33,0.36
		c-0.1,0.12-0.2,0.23-0.29,0.34c-0.18,0.21-0.34,0.4-0.46,0.57c-0.24,0.32-0.38,0.51-0.38,0.51l-0.14-0.1c0,0,0.01-0.07,0.03-0.18
		c0.03-0.12,0.05-0.29,0.11-0.5c0.03-0.1,0.05-0.22,0.09-0.35c0.04-0.13,0.09-0.26,0.15-0.41c0.06-0.15,0.12-0.3,0.19-0.46
		c0.07-0.16,0.16-0.31,0.24-0.48c0.09-0.16,0.18-0.34,0.29-0.51c0.11-0.17,0.23-0.34,0.35-0.52c0.12-0.18,0.27-0.35,0.41-0.52
		c0.08-0.1,0.16-0.19,0.24-0.29c-0.25-0.06-0.5-0.15-0.74-0.25c-1.89-0.75-3.79-2.39-4.69-4.66c-0.76,0.42-1.77,1.1-2.59,1.8
		l0.02,0.03l-0.65,0.55c-0.69,0.58-1.53,0.88-2.39,0.88c-0.49,0-0.99-0.1-1.46-0.3c-0.91-0.39-1.62-1.11-1.99-2.03
		c-0.37-0.92-0.36-1.94,0.02-2.85c0.47-1.18,1.51-1.97,2.51-2.74c0.44-0.34,0.88-0.67,1.28-1.04c-0.72,0.13-1.49,0.23-2.33,0.3
		c-0.09,0.01-0.18,0.01-0.27,0.01c-0.74,0-1.45-0.26-2.02-0.74c-0.64-0.54-1.04-1.31-1.11-2.15c-0.07-0.84,0.19-1.66,0.73-2.31
		c0.54-0.65,1.3-1.04,2.14-1.11c1.27-0.12,2.49-0.77,3.84-2.08c-2.05-1.45-3.4-3.84-3.4-6.55c0-4.42,3.57-8,7.97-8
		c4.4,0,7.97,3.58,7.97,8c0,1.46-0.4,2.84-1.08,4.02c2.89,0.43,5.4,1.9,7.45,4.38l0.06,0.08c0.46,0.71,0.61,1.55,0.43,2.38
		c-0.18,0.83-0.66,1.53-1.37,1.99c-0.53,0.34-1.12,0.51-1.72,0.51c-0.72,0-1.44-0.25-2.03-0.75l-0.04-0.03
		c-0.47-0.39-1.02-0.67-1.67-0.87c-0.06,1.5-0.26,2.87-0.56,4.03c0,0.03,0.01,0.05,0.01,0.08c0,1.14,0.24,3.31,1.14,4.24l0.01,0.01
		c0.67,0.64,0.99,1.44,0.93,2.3c0.06-0.02,0.12-0.04,0.18-0.06c0.23-0.07,0.46-0.15,0.69-0.2c0.46-0.1,0.91-0.2,1.34-0.23
		c0.21-0.01,0.42-0.04,0.63-0.05c0.2,0,0.4,0,0.59,0.01c0.19,0.01,0.37,0.01,0.54,0.03c0.17,0.02,0.33,0.04,0.49,0.07
		c0.15,0.03,0.29,0.04,0.42,0.08c0.13,0.04,0.25,0.07,0.36,0.1c0.21,0.05,0.38,0.12,0.49,0.16c0.11,0.04,0.17,0.07,0.17,0.07
		L253.38,39.17z M237.15,10.87c0,0.44,0.36,0.8,0.8,0.8s0.8-0.36,0.8-0.8c0-0.44-0.36-0.8-0.8-0.8S237.15,10.43,237.15,10.87z
		 M233.42,18.88c-0.34-0.7-0.51-1.44-0.51-2.22c0-1.98,1.16-3.78,2.96-4.6c0.37-0.17,0.54-0.61,0.37-0.99
		c-0.17-0.38-0.61-0.54-0.99-0.37c-2.33,1.06-3.83,3.4-3.83,5.96c0,1.01,0.22,1.98,0.66,2.88c0.13,0.26,0.39,0.42,0.67,0.42
		c0.11,0,0.22-0.03,0.33-0.08C233.45,19.7,233.6,19.25,233.42,18.88z M242.97,40.1c0.6,0.25,1.2,0.33,1.69,0.22
		c0.47-0.11,0.79-0.37,0.97-0.8c0.26-0.61,0.21-1.05-0.16-1.45l-0.11-0.11c-0.69-0.69-1.09-1.68-1.33-2.64
		c-0.15,0.12-0.34,0.19-0.53,0.19c-0.18,0-0.36-0.06-0.52-0.18c-0.37-0.29-0.44-0.82-0.15-1.2c0.62-0.81,1.34-2.86,1.44-6.06
		c-0.14-0.01-0.29-0.02-0.44-0.03c-0.47-0.02-0.83-0.42-0.81-0.89c0.02-0.47,0.42-0.84,0.89-0.81c0.48,0.02,0.93,0.07,1.36,0.14
		c0.02,0,0.04,0,0.05,0.01c1.39,0.23,2.53,0.73,3.45,1.49l0.05,0.04c0.49,0.38,1.16,0.41,1.68,0.07c0.33-0.21,0.55-0.54,0.63-0.92
		c0.08-0.36,0.01-0.74-0.17-1.06c-1.96-2.33-4.26-3.58-7.04-3.82c-0.09-0.01-0.16-0.03-0.24-0.06c-1.45,1.5-3.48,2.43-5.72,2.43
		c-1.07,0-2.09-0.21-3.02-0.59c-1.78,1.83-3.46,2.77-5.24,2.93c-0.39,0.03-0.74,0.22-0.99,0.51c-0.25,0.3-0.37,0.67-0.34,1.06
		s0.21,0.74,0.51,0.99c0.3,0.25,0.67,0.37,1.06,0.34c1.54-0.12,2.79-0.35,3.92-0.7c0.16-0.47,0.26-1,0.27-1.62
		c0.01-0.47,0.39-0.86,0.86-0.84c0.47,0.01,0.84,0.39,0.84,0.87c-0.06,3.33-2.06,4.86-3.67,6.09c-0.9,0.68-1.67,1.28-1.97,2.03
		c-0.22,0.52-0.22,1.06-0.02,1.57s0.59,0.89,1.08,1.1c0.69,0.29,1.47,0.18,2.06-0.29c1.07-1.06,2.74-2.2,3.89-2.78
		c-0.05-0.36-0.09-0.74-0.09-1.13c0-0.47,0.38-0.85,0.85-0.85c0.47,0,0.85,0.38,0.85,0.85c0,0.47,0.06,0.93,0.16,1.36
		c0,0.01,0,0.01,0,0.02C239.48,37.79,241.23,39.4,242.97,40.1z M261.63,30.81c-0.74-0.83-1.1-2.15-1.1-3.99v-1.79h3.59v2.28
		c0,0.91,0.29,1.36,0.87,1.36c0.33,0,0.55-0.1,0.68-0.29c0.13-0.19,0.19-0.52,0.19-0.97c0-0.6-0.07-1.09-0.21-1.48
		c-0.14-0.39-0.32-0.72-0.54-0.98c-0.22-0.26-0.61-0.67-1.18-1.23l-1.57-1.58c-1.22-1.19-1.83-2.52-1.83-3.97
		c0-1.56,0.36-2.75,1.07-3.57c0.72-0.82,1.76-1.23,3.14-1.23c1.64,0,2.83,0.44,3.55,1.31c0.72,0.87,1.09,2.24,1.09,4.1h-3.72
		l-0.03-1.26c0-0.24-0.07-0.43-0.2-0.58c-0.13-0.14-0.32-0.21-0.56-0.21c-0.29,0-0.5,0.08-0.64,0.23c-0.14,0.16-0.21,0.37-0.21,0.64
		c0,0.6,0.34,1.22,1.02,1.86l2.12,2.05c0.5,0.48,0.91,0.94,1.23,1.38c0.33,0.43,0.59,0.94,0.79,1.54c0.2,0.59,0.3,1.29,0.3,2.1
		c0,1.81-0.33,3.18-0.99,4.1c-0.66,0.93-1.75,1.4-3.26,1.4C263.56,32.05,262.37,31.64,261.63,30.81z M270.68,13.56h4.82
		c1.46,0,2.5,0.47,3.12,1.42s0.93,2.33,0.93,4.15c0,1.82-0.28,3.19-0.83,4.12c-0.55,0.93-1.55,1.39-2.98,1.39h-1.49v7.25h-3.59
		V13.56z M274.49,21.32c0.44,0,0.76-0.08,0.97-0.25c0.2-0.16,0.34-0.4,0.4-0.7c0.06-0.3,0.1-0.74,0.1-1.31
		c0-0.77-0.09-1.32-0.26-1.66c-0.17-0.34-0.51-0.51-1.02-0.51h-0.4v4.44H274.49z M280.23,31.88l1.76-18.31h6.19l1.74,18.31h-3.47
		l-0.26-2.96h-2.21l-0.21,2.96H280.23z M284.26,25.99h1.66l-0.81-9.32h-0.17L284.26,25.99z M292.07,30.79
		c-0.8-0.84-1.2-1.99-1.2-3.45v-8.44c0-1.82,0.36-3.19,1.09-4.12c0.72-0.92,1.86-1.39,3.4-1.39c1.35,0,2.43,0.37,3.25,1.11
		c0.82,0.74,1.23,1.81,1.23,3.2v3.16h-3.64v-2.71c0-0.52-0.06-0.89-0.19-1.09c-0.13-0.2-0.35-0.3-0.66-0.3
		c-0.33,0-0.55,0.12-0.67,0.34c-0.12,0.23-0.18,0.56-0.18,1v9.19c0,0.48,0.07,0.84,0.21,1.06c0.14,0.22,0.35,0.33,0.64,0.33
		c0.57,0,0.85-0.46,0.85-1.39v-3.31h3.68v3.45c0,3.07-1.54,4.61-4.61,4.61C293.94,32.05,292.87,31.63,292.07,30.79z M301.1,31.88
		V13.56h7.31v3.54h-3.59v3.56h3.44v3.45h-3.44v4.2h3.82v3.56H301.1z M311.64,31.56c-0.68-0.33-1.22-0.81-1.6-1.44
		c-0.39-0.63-0.59-1.4-0.59-2.29v-4.58h3.59v4.37c0,0.33,0.07,0.59,0.2,0.78c0.13,0.19,0.34,0.29,0.63,0.29
		c0.27,0,0.47-0.09,0.6-0.27c0.13-0.18,0.2-0.43,0.2-0.76V13.56h3.68v13.73c0,0.95-0.19,1.79-0.56,2.51s-0.9,1.27-1.57,1.66
		c-0.67,0.39-1.44,0.59-2.3,0.59C313.07,32.05,312.32,31.88,311.64,31.56z M320.75,30.69c-0.76-0.9-1.15-2.17-1.15-3.81v-8.72
		c0-1.58,0.38-2.77,1.15-3.57c0.76-0.8,1.88-1.2,3.36-1.2c1.48,0,2.59,0.4,3.36,1.2c0.76,0.8,1.15,1.99,1.15,3.57v8.72
		c0,1.65-0.38,2.92-1.15,3.81c-0.77,0.9-1.89,1.34-3.36,1.34C322.64,32.05,321.52,31.6,320.75,30.69z M324.77,28.25
		c0.11-0.28,0.17-0.68,0.17-1.19V18.1c0-0.4-0.05-0.72-0.16-0.97c-0.11-0.25-0.32-0.37-0.65-0.37c-0.61,0-0.92,0.46-0.92,1.39v8.93
		c0,0.53,0.06,0.93,0.19,1.19c0.13,0.27,0.36,0.41,0.7,0.41C324.44,28.68,324.66,28.54,324.77,28.25z M330.08,31.88V13.56h7.31v3.54
		h-3.59v3.56h3.44v3.45h-3.44v4.2h3.83v3.56H330.08z M341.05,31.88v-6.03l-2.91-12.28h3.61l1.02,6.21l1.02-6.21h3.61l-2.91,12.28
		v6.03H341.05z M276.17,38.94l0.08,0.56l0.12-0.51l0.84-2.96h0.47l0.82,2.96l0.11,0.51l0.09-0.57l0.66-2.9h0.56l-1.03,4.25h-0.51
		l-0.87-3.09l-0.07-0.32l-0.07,0.32l-0.9,3.09h-0.51l-1.02-4.25h0.56L276.17,38.94z M281.67,40.34c-0.43,0-0.77-0.14-1.04-0.42
		c-0.27-0.28-0.4-0.65-0.4-1.13v-0.1c0-0.31,0.06-0.59,0.18-0.84c0.12-0.25,0.29-0.44,0.5-0.58c0.21-0.14,0.44-0.21,0.7-0.21
		c0.41,0,0.73,0.13,0.95,0.41c0.23,0.27,0.34,0.66,0.34,1.16v0.22h-2.13c0.01,0.31,0.1,0.56,0.27,0.75
		c0.17,0.19,0.39,0.29,0.66,0.29c0.19,0,0.35-0.04,0.48-0.12c0.13-0.08,0.25-0.18,0.34-0.31l0.33,0.26
		C282.59,40.14,282.19,40.34,281.67,40.34z M281.6,37.51c-0.22,0-0.4,0.08-0.54,0.24c-0.15,0.16-0.24,0.38-0.27,0.67h1.57v-0.04
		c-0.01-0.28-0.09-0.49-0.22-0.64C282,37.59,281.83,37.51,281.6,37.51z M286.18,38.74c0,0.48-0.11,0.87-0.33,1.16
		c-0.22,0.29-0.52,0.44-0.89,0.44c-0.4,0-0.7-0.14-0.92-0.42l-0.03,0.36h-0.49V35.8h0.54v1.67c0.22-0.27,0.52-0.41,0.9-0.41
		c0.38,0,0.68,0.15,0.9,0.44c0.22,0.29,0.33,0.69,0.33,1.19V38.74z M285.64,38.68c0-0.37-0.07-0.65-0.21-0.85
		c-0.14-0.2-0.34-0.3-0.61-0.3c-0.36,0-0.61,0.16-0.76,0.49v1.36c0.16,0.33,0.42,0.49,0.77,0.49c0.26,0,0.46-0.1,0.6-0.3
		C285.57,39.38,285.64,39.08,285.64,38.68z M291.54,39.72c-0.14,0.2-0.34,0.36-0.6,0.46s-0.56,0.15-0.9,0.15
		c-0.34,0-0.65-0.08-0.92-0.24c-0.27-0.16-0.47-0.39-0.62-0.69c-0.14-0.3-0.22-0.65-0.23-1.04v-0.37c0-0.64,0.15-1.13,0.44-1.49
		c0.3-0.35,0.72-0.53,1.25-0.53c0.44,0,0.8,0.11,1.07,0.34c0.27,0.23,0.43,0.55,0.49,0.96h-0.56c-0.1-0.57-0.44-0.84-1-0.84
		c-0.37,0-0.66,0.13-0.85,0.39c-0.19,0.26-0.29,0.65-0.29,1.15v0.35c0,0.48,0.11,0.86,0.33,1.14c0.22,0.28,0.51,0.42,0.88,0.42
		c0.21,0,0.39-0.02,0.55-0.07c0.16-0.05,0.29-0.13,0.39-0.23v-0.95H290v-0.46h1.53V39.72z M293.9,37.61
		c-0.08-0.01-0.17-0.02-0.26-0.02c-0.35,0-0.59,0.15-0.72,0.45v2.24h-0.54v-3.15h0.52l0.01,0.36c0.18-0.28,0.43-0.42,0.75-0.42
		c0.1,0,0.19,0.01,0.24,0.04L293.9,37.61L293.9,37.61z M296.22,40.28c-0.03-0.06-0.06-0.17-0.07-0.33
		c-0.25,0.26-0.55,0.39-0.89,0.39c-0.31,0-0.56-0.09-0.76-0.26c-0.2-0.17-0.3-0.4-0.3-0.67c0-0.33,0.13-0.58,0.37-0.77
		c0.25-0.18,0.6-0.27,1.05-0.27h0.52v-0.25c0-0.19-0.06-0.34-0.17-0.45c-0.11-0.11-0.28-0.17-0.5-0.17c-0.19,0-0.35,0.05-0.48,0.15
		c-0.13,0.1-0.2,0.22-0.2,0.35h-0.54c0-0.16,0.06-0.31,0.17-0.46s0.26-0.26,0.45-0.35s0.4-0.13,0.63-0.13
		c0.36,0,0.64,0.09,0.85,0.27c0.2,0.18,0.31,0.43,0.32,0.75v1.45c0,0.29,0.04,0.52,0.11,0.69v0.05H296.22z M295.33,39.87
		c0.17,0,0.33-0.04,0.48-0.13c0.15-0.09,0.26-0.2,0.33-0.34v-0.65h-0.42c-0.66,0-0.99,0.19-0.99,0.58c0,0.17,0.06,0.3,0.17,0.4
		C295.01,39.82,295.15,39.87,295.33,39.87z M300.17,38.74c0,0.48-0.11,0.87-0.33,1.16c-0.22,0.29-0.52,0.44-0.89,0.44
		c-0.38,0-0.68-0.12-0.9-0.36v1.52h-0.54v-4.37h0.49l0.03,0.35c0.22-0.27,0.52-0.41,0.91-0.41c0.38,0,0.68,0.14,0.9,0.43
		c0.22,0.29,0.33,0.68,0.33,1.19V38.74z M299.63,38.68c0-0.36-0.07-0.64-0.23-0.84c-0.15-0.2-0.36-0.31-0.62-0.31
		c-0.33,0-0.57,0.15-0.73,0.44v1.51c0.16,0.29,0.41,0.43,0.74,0.43c0.26,0,0.46-0.1,0.62-0.31
		C299.56,39.39,299.63,39.08,299.63,38.68z M301.39,37.51c0.24-0.29,0.55-0.44,0.93-0.44c0.66,0,1,0.38,1,1.13v2.09h-0.54V38.2
		c0-0.23-0.05-0.39-0.16-0.51c-0.1-0.11-0.26-0.16-0.47-0.16c-0.17,0-0.33,0.05-0.46,0.14s-0.23,0.22-0.31,0.37v2.25h-0.54V35.8
		h0.54V37.51z M304.14,36.29c0-0.09,0.03-0.16,0.08-0.22c0.05-0.06,0.13-0.09,0.24-0.09c0.1,0,0.19,0.03,0.24,0.09
		c0.06,0.06,0.08,0.13,0.08,0.22c0,0.09-0.03,0.16-0.08,0.22c-0.06,0.06-0.13,0.09-0.24,0.09c-0.1,0-0.19-0.03-0.24-0.09
		C304.16,36.45,304.14,36.38,304.14,36.29z M304.72,40.28h-0.54v-3.15h0.54V40.28z M306.84,39.9c0.19,0,0.36-0.06,0.5-0.17
		c0.14-0.12,0.22-0.26,0.24-0.44h0.51c-0.01,0.18-0.07,0.35-0.19,0.52c-0.11,0.16-0.27,0.29-0.46,0.39c-0.19,0.1-0.39,0.14-0.6,0.14
		c-0.43,0-0.77-0.14-1.02-0.43c-0.25-0.29-0.38-0.68-0.38-1.17v-0.09c0-0.31,0.06-0.58,0.17-0.82c0.11-0.24,0.27-0.42,0.49-0.56
		c0.21-0.13,0.46-0.2,0.74-0.2c0.35,0,0.64,0.11,0.88,0.32c0.23,0.21,0.36,0.49,0.37,0.83h-0.51c-0.01-0.2-0.09-0.37-0.23-0.5
		c-0.14-0.13-0.31-0.2-0.51-0.2c-0.27,0-0.49,0.1-0.63,0.29c-0.15,0.2-0.23,0.48-0.23,0.86v0.1c0,0.36,0.07,0.64,0.22,0.84
		C306.35,39.8,306.56,39.9,306.84,39.9z M310.25,40.28v-4.25h1.19c0.37,0,0.69,0.08,0.97,0.25c0.28,0.16,0.5,0.39,0.66,0.7
		c0.15,0.3,0.23,0.65,0.23,1.04v0.27c0,0.4-0.08,0.75-0.23,1.05c-0.16,0.3-0.37,0.53-0.66,0.7c-0.29,0.16-0.62,0.25-1,0.25
		L310.25,40.28L310.25,40.28z M310.81,36.49v3.33h0.59c0.43,0,0.76-0.13,1-0.4s0.36-0.65,0.36-1.15v-0.25
		c0-0.48-0.11-0.86-0.34-1.13c-0.23-0.27-0.54-0.4-0.96-0.41H310.81z M315.37,40.34c-0.43,0-0.77-0.14-1.04-0.42
		c-0.27-0.28-0.4-0.65-0.4-1.13v-0.1c0-0.31,0.06-0.59,0.18-0.84c0.12-0.25,0.29-0.44,0.5-0.58c0.21-0.14,0.44-0.21,0.7-0.21
		c0.41,0,0.73,0.13,0.95,0.41c0.23,0.27,0.34,0.66,0.34,1.16v0.22h-2.13c0.01,0.31,0.1,0.56,0.27,0.75
		c0.17,0.19,0.39,0.29,0.66,0.29c0.19,0,0.35-0.04,0.48-0.12c0.13-0.08,0.25-0.18,0.34-0.31l0.33,0.26
		C316.29,40.14,315.9,40.34,315.37,40.34z M315.31,37.51c-0.21,0-0.4,0.08-0.54,0.24c-0.15,0.16-0.24,0.38-0.27,0.67h1.58v-0.04
		c-0.01-0.28-0.09-0.49-0.22-0.64C315.71,37.59,315.53,37.51,315.31,37.51z M319.05,39.44c0-0.15-0.06-0.26-0.16-0.34
		c-0.11-0.08-0.3-0.15-0.57-0.21c-0.27-0.06-0.49-0.13-0.65-0.21c-0.16-0.08-0.28-0.18-0.36-0.29c-0.08-0.11-0.11-0.25-0.11-0.4
		c0-0.26,0.11-0.48,0.33-0.65c0.22-0.18,0.5-0.27,0.83-0.27c0.36,0,0.64,0.09,0.87,0.28c0.22,0.19,0.33,0.42,0.33,0.71h-0.54
		c0-0.15-0.06-0.28-0.19-0.38c-0.13-0.11-0.28-0.16-0.47-0.16c-0.2,0-0.35,0.04-0.46,0.13c-0.11,0.09-0.17,0.2-0.17,0.33
		c0,0.13,0.05,0.23,0.16,0.29c0.1,0.07,0.29,0.13,0.56,0.19c0.27,0.06,0.49,0.13,0.65,0.22c0.17,0.08,0.29,0.19,0.37,0.3
		c0.08,0.12,0.12,0.26,0.12,0.43c0,0.28-0.11,0.51-0.34,0.68c-0.23,0.17-0.52,0.26-0.87,0.26c-0.25,0-0.47-0.04-0.67-0.13
		c-0.19-0.09-0.34-0.22-0.46-0.38c-0.11-0.16-0.16-0.33-0.16-0.52h0.54c0.01,0.18,0.08,0.32,0.21,0.43
		c0.13,0.11,0.31,0.16,0.53,0.16c0.2,0,0.37-0.04,0.49-0.12C318.99,39.69,319.05,39.58,319.05,39.44z M320.29,36.29
		c0-0.09,0.03-0.16,0.08-0.22c0.05-0.06,0.13-0.09,0.24-0.09c0.1,0,0.19,0.03,0.24,0.09c0.06,0.06,0.08,0.13,0.08,0.22
		c0,0.09-0.03,0.16-0.08,0.22c-0.06,0.06-0.13,0.09-0.24,0.09c-0.1,0-0.19-0.03-0.24-0.09C320.32,36.45,320.29,36.38,320.29,36.29z
		 M320.87,40.28h-0.54v-3.15h0.54V40.28z M321.61,38.68c0-0.49,0.11-0.88,0.34-1.17c0.23-0.29,0.53-0.43,0.9-0.43
		c0.39,0,0.68,0.14,0.9,0.41l0.03-0.35h0.49v3.08c0,0.41-0.12,0.73-0.36,0.96c-0.24,0.23-0.57,0.35-0.97,0.35
		c-0.23,0-0.45-0.05-0.67-0.15c-0.21-0.1-0.38-0.23-0.5-0.4l0.28-0.32c0.23,0.29,0.51,0.43,0.85,0.43c0.26,0,0.46-0.07,0.61-0.22
		c0.15-0.15,0.22-0.36,0.22-0.62v-0.27c-0.21,0.25-0.51,0.37-0.88,0.37c-0.37,0-0.67-0.15-0.89-0.45
		C321.72,39.6,321.61,39.19,321.61,38.68z M322.14,38.74c0,0.36,0.07,0.64,0.22,0.84c0.14,0.2,0.35,0.3,0.61,0.3
		c0.34,0,0.59-0.16,0.74-0.46v-1.44c-0.16-0.3-0.41-0.45-0.74-0.45c-0.26,0-0.47,0.1-0.61,0.3
		C322.22,38.04,322.14,38.34,322.14,38.74z M325.58,37.13l0.02,0.4c0.24-0.3,0.55-0.45,0.94-0.45c0.66,0,1,0.38,1.01,1.13v2.09
		h-0.54V38.2c0-0.23-0.05-0.39-0.15-0.51c-0.1-0.11-0.26-0.16-0.48-0.16c-0.17,0-0.33,0.05-0.46,0.14
		c-0.13,0.09-0.23,0.22-0.31,0.37v2.25h-0.54v-3.15L325.58,37.13L325.58,37.13z M329.66,40.34c-0.43,0-0.77-0.14-1.04-0.42
		c-0.27-0.28-0.4-0.65-0.4-1.13v-0.1c0-0.31,0.06-0.59,0.18-0.84c0.12-0.25,0.29-0.44,0.5-0.58c0.21-0.14,0.44-0.21,0.7-0.21
		c0.41,0,0.73,0.13,0.95,0.41c0.23,0.27,0.34,0.66,0.34,1.16v0.22h-2.13c0.01,0.31,0.1,0.56,0.27,0.75
		c0.17,0.19,0.39,0.29,0.66,0.29c0.19,0,0.35-0.04,0.48-0.12c0.13-0.08,0.25-0.18,0.34-0.31l0.33,0.26
		C330.58,40.14,330.18,40.34,329.66,40.34z M329.59,37.51c-0.22,0-0.4,0.08-0.55,0.24c-0.15,0.16-0.24,0.38-0.27,0.67h1.58v-0.04
		c-0.02-0.28-0.09-0.49-0.22-0.64C330,37.59,329.82,37.51,329.59,37.51z M333.03,37.61c-0.08-0.01-0.17-0.02-0.26-0.02
		c-0.35,0-0.59,0.15-0.72,0.45v2.24h-0.54v-3.15h0.52l0.01,0.36c0.17-0.28,0.43-0.42,0.75-0.42c0.1,0,0.18,0.01,0.24,0.04
		L333.03,37.61L333.03,37.61z"/>
</g>
</svg>
