<?xml version="1.0" encoding="utf-8"?>
<!-- Generator: Adobe Illustrator 25.0.0, SVG Export Plug-In . SVG Version: 6.00 Build 0)  -->
<svg version="1.1" id="Livello_1" xmlns="http://www.w3.org/2000/svg" xmlns:xlink="http://www.w3.org/1999/xlink" x="0px" y="0px"
	 viewBox="0 0 300 300" style="enable-background:new 0 0 300 300;" xml:space="preserve">
<circle id="standard-mode-bg" style="opacity:0.4;fill:#F5A214;enable-background:new    ;" cx="150.2" cy="150.4" r="55.1"/>
<path id="standard-mode-title_1_" style="fill:#FFFFFF;" d="M120.1,144.1h5.6c0.5,0,0.9,0,1.2,0.1c0.3,0,0.6,0.1,0.8,0.2
	s0.4,0.2,0.5,0.3c0.1,0.1,0.2,0.3,0.2,0.4s0.1,0.3,0.1,0.5c0,0.2,0,0.4,0,0.7c0,0.3,0,0.5,0,0.7c0,0.2,0,0.4-0.1,0.6
	c-0.1,0.2-0.2,0.3-0.3,0.5c-0.1,0.1-0.3,0.2-0.6,0.3c-0.3,0.1-0.6,0.2-1,0.2c-0.4,0-0.9,0.1-1.4,0.1H121v3h-0.9V144.1z M121,147.9
	h4.1c0.4,0,0.8,0,1.1,0c0.3,0,0.5,0,0.7-0.1s0.3-0.1,0.4-0.2s0.2-0.2,0.2-0.3c0-0.1,0.1-0.3,0.1-0.4c0-0.2,0-0.4,0-0.6
	c0-0.2,0-0.4,0-0.5c0-0.2,0-0.3-0.1-0.4c0-0.1-0.1-0.2-0.2-0.2s-0.2-0.1-0.4-0.1c-0.2,0-0.4-0.1-0.7-0.1c-0.3,0-0.6,0-1.1,0H121
	V147.9z M138.3,151.6h-0.9v-1.4c0-0.2,0-0.4,0-0.6c0-0.2,0-0.3-0.1-0.4c0-0.1-0.1-0.2-0.2-0.3s-0.2-0.1-0.4-0.2s-0.4-0.1-0.7-0.1
	c-0.3,0-0.6,0-1.1,0h-4.2v3h-0.9v-7.5h5.3c0.6,0,1.1,0,1.4,0.1c0.4,0,0.7,0.1,1,0.2c0.3,0.1,0.5,0.2,0.6,0.3
	c0.1,0.1,0.2,0.3,0.3,0.4c0.1,0.2,0.1,0.3,0.1,0.5c0,0.2,0,0.4,0,0.7c0,0.3,0,0.6-0.1,0.8c0,0.2-0.1,0.4-0.2,0.6s-0.2,0.3-0.4,0.4
	c-0.2,0.1-0.4,0.2-0.6,0.2c0.3,0,0.5,0.1,0.6,0.2s0.3,0.2,0.4,0.4s0.1,0.3,0.2,0.6c0,0.2,0,0.5,0,0.7V151.6z M130.7,147.9h4.4
	c0.4,0,0.8,0,1.1,0c0.3,0,0.5,0,0.7-0.1s0.3-0.1,0.4-0.2s0.2-0.2,0.2-0.3c0-0.1,0.1-0.3,0.1-0.4c0-0.2,0-0.4,0-0.6
	c0-0.2,0-0.4,0-0.5c0-0.2,0-0.3-0.1-0.4c0-0.1-0.1-0.2-0.2-0.2s-0.2-0.1-0.4-0.1c-0.2,0-0.4-0.1-0.7-0.1c-0.3,0-0.6,0-1.1,0h-4.4
	V147.9z M140.1,151.6v-7.5h7.5v0.8H141v2.5h6.2v0.8H141v2.7h6.6v0.8H140.1z M153.5,147.4c0.5,0,1,0,1.3,0.1c0.4,0,0.7,0.1,0.9,0.2
	c0.3,0.1,0.5,0.2,0.6,0.3c0.1,0.1,0.3,0.3,0.3,0.4s0.1,0.3,0.2,0.5c0,0.2,0,0.4,0,0.6c0,0.2,0,0.4-0.1,0.6c0,0.2-0.1,0.4-0.2,0.5
	c-0.1,0.2-0.2,0.3-0.4,0.4c-0.2,0.1-0.4,0.2-0.7,0.3s-0.6,0.2-1,0.2c-0.4,0-0.8,0.1-1.4,0.1h-1.2c-0.5,0-0.9,0-1.2-0.1
	c-0.4,0-0.7-0.1-0.9-0.2c-0.3-0.1-0.5-0.2-0.6-0.3c-0.2-0.1-0.3-0.2-0.4-0.4c-0.1-0.2-0.2-0.3-0.2-0.5c0-0.2-0.1-0.4-0.1-0.6h0.9
	c0,0.3,0,0.5,0.1,0.7s0.2,0.3,0.4,0.4c0.2,0.1,0.5,0.1,0.8,0.2c0.3,0,0.7,0,1.2,0h1.2c0.5,0,1,0,1.4-0.1c0.4-0.1,0.6-0.1,0.9-0.2
	c0.2-0.1,0.4-0.3,0.5-0.5s0.1-0.4,0.1-0.7s0-0.5-0.1-0.7c-0.1-0.2-0.2-0.3-0.4-0.4c-0.2-0.1-0.4-0.2-0.7-0.2s-0.7-0.1-1.3-0.1h-1.3
	c-0.6,0-1.1,0-1.5-0.1c-0.4,0-0.8-0.1-1-0.2c-0.3-0.1-0.5-0.2-0.7-0.3c-0.2-0.1-0.3-0.3-0.4-0.4c-0.1-0.2-0.1-0.3-0.2-0.5
	c0-0.2,0-0.4,0-0.6c0-0.2,0-0.4,0.1-0.6c0-0.2,0.1-0.4,0.2-0.5c0.1-0.2,0.3-0.3,0.5-0.4s0.4-0.2,0.7-0.3c0.3-0.1,0.7-0.1,1.1-0.2
	s0.9-0.1,1.5-0.1h0.9c0.5,0,0.9,0,1.2,0.1c0.4,0,0.7,0.1,0.9,0.2c0.3,0.1,0.5,0.2,0.6,0.3c0.2,0.1,0.3,0.2,0.4,0.4
	c0.1,0.2,0.2,0.3,0.2,0.5s0.1,0.4,0.1,0.6H156c0-0.3,0-0.5-0.1-0.7s-0.2-0.3-0.4-0.4c-0.2-0.1-0.5-0.1-0.8-0.2c-0.3,0-0.7,0-1.2,0
	h-0.9c-0.6,0-1.1,0-1.5,0.1c-0.4,0-0.7,0.1-1,0.2s-0.4,0.2-0.5,0.4s-0.1,0.4-0.1,0.7c0,0.2,0,0.3,0,0.4s0.1,0.2,0.1,0.3
	c0.1,0.1,0.2,0.2,0.3,0.2s0.3,0.1,0.5,0.2c0.2,0,0.5,0.1,0.8,0.1c0.3,0,0.7,0,1.1,0H153.5z M163.2,147.4c0.5,0,1,0,1.3,0.1
	c0.4,0,0.7,0.1,0.9,0.2c0.3,0.1,0.5,0.2,0.6,0.3c0.1,0.1,0.3,0.3,0.3,0.4s0.1,0.3,0.2,0.5c0,0.2,0,0.4,0,0.6c0,0.2,0,0.4-0.1,0.6
	c0,0.2-0.1,0.4-0.2,0.5c-0.1,0.2-0.2,0.3-0.4,0.4c-0.2,0.1-0.4,0.2-0.7,0.3s-0.6,0.2-1,0.2c-0.4,0-0.8,0.1-1.4,0.1h-1.2
	c-0.5,0-0.9,0-1.2-0.1s-0.7-0.1-0.9-0.2c-0.3-0.1-0.5-0.2-0.6-0.3c-0.2-0.1-0.3-0.2-0.4-0.4c-0.1-0.2-0.2-0.3-0.2-0.5
	c0-0.2-0.1-0.4-0.1-0.6h0.9c0,0.3,0,0.5,0.1,0.7s0.2,0.3,0.4,0.4c0.2,0.1,0.5,0.1,0.8,0.2c0.3,0,0.7,0,1.2,0h1.2c0.5,0,1,0,1.4-0.1
	c0.4-0.1,0.6-0.1,0.9-0.2c0.2-0.1,0.4-0.3,0.5-0.5s0.1-0.4,0.1-0.7s0-0.5-0.1-0.7c-0.1-0.2-0.2-0.3-0.4-0.4
	c-0.2-0.1-0.4-0.2-0.7-0.2s-0.7-0.1-1.3-0.1h-1.3c-0.6,0-1.1,0-1.5-0.1c-0.4,0-0.8-0.1-1-0.2c-0.3-0.1-0.5-0.2-0.7-0.3
	c-0.2-0.1-0.3-0.3-0.4-0.4c-0.1-0.2-0.1-0.3-0.2-0.5c0-0.2,0-0.4,0-0.6c0-0.2,0-0.4,0.1-0.6c0-0.2,0.1-0.4,0.2-0.5
	c0.1-0.2,0.3-0.3,0.5-0.4s0.4-0.2,0.7-0.3c0.3-0.1,0.7-0.1,1.1-0.2s0.9-0.1,1.5-0.1h0.9c0.5,0,0.9,0,1.2,0.1c0.4,0,0.7,0.1,0.9,0.2
	c0.3,0.1,0.5,0.2,0.6,0.3c0.2,0.1,0.3,0.2,0.4,0.4c0.1,0.2,0.2,0.3,0.2,0.5s0.1,0.4,0.1,0.6h-0.9c0-0.3,0-0.5-0.1-0.7
	s-0.2-0.3-0.4-0.4c-0.2-0.1-0.5-0.1-0.8-0.2c-0.3,0-0.7,0-1.2,0h-0.9c-0.6,0-1.1,0-1.5,0.1c-0.4,0-0.7,0.1-1,0.2s-0.4,0.2-0.5,0.4
	s-0.1,0.4-0.1,0.7c0,0.2,0,0.3,0,0.4s0.1,0.2,0.1,0.3c0.1,0.1,0.2,0.2,0.3,0.2s0.3,0.1,0.5,0.2s0.5,0.1,0.8,0.1c0.3,0,0.7,0,1.1,0
	H163.2z M176.3,144c0.6,0,1.1,0,1.4,0.1c0.4,0.1,0.7,0.2,1,0.3c0.3,0.1,0.4,0.3,0.6,0.5s0.2,0.5,0.3,0.8c0.1,0.3,0.1,0.6,0.1,1
	c0,0.4,0,0.8,0,1.2s0,0.8,0,1.2c0,0.4,0,0.7-0.1,1c0,0,0,0,0,0l0.7,0.4l-0.4,0.6l-0.6-0.4c0,0,0,0,0,0c-0.1,0.2-0.3,0.4-0.6,0.5
	c-0.3,0.1-0.6,0.2-1,0.3s-0.9,0.1-1.4,0.1h-2.8c-0.6,0-1.1,0-1.4-0.1c-0.4-0.1-0.7-0.2-1-0.3c-0.3-0.1-0.5-0.3-0.6-0.5
	c-0.1-0.2-0.2-0.5-0.3-0.8c-0.1-0.3-0.1-0.6-0.1-1s0-0.8,0-1.2s0-0.8,0-1.2s0-0.7,0.1-1c0.1-0.3,0.2-0.5,0.3-0.8
	c0.1-0.2,0.3-0.4,0.6-0.5c0.3-0.1,0.6-0.2,1-0.3c0.4-0.1,0.9-0.1,1.4-0.1H176.3z M176.3,151c0.4,0,0.8,0,1,0c0.3,0,0.5-0.1,0.7-0.1
	s0.3-0.2,0.4-0.3c0,0,0.1-0.1,0.1-0.2l-3.1-2l0.4-0.6l2.9,1.8c0-0.1,0-0.3,0-0.5c0-0.3,0-0.7,0-1.2s0-0.9,0-1.2c0-0.3,0-0.6-0.1-0.9
	s-0.1-0.4-0.2-0.6s-0.2-0.2-0.4-0.3c-0.2-0.1-0.4-0.1-0.7-0.1c-0.3,0-0.6,0-1.1,0h-2.8c-0.4,0-0.8,0-1.1,0c-0.3,0-0.5,0.1-0.7,0.1
	s-0.3,0.2-0.4,0.3s-0.2,0.3-0.2,0.6s-0.1,0.5-0.1,0.9c0,0.3,0,0.7,0,1.2s0,0.9,0,1.2c0,0.3,0,0.6,0.1,0.9s0.1,0.4,0.2,0.6
	c0.1,0.1,0.2,0.2,0.4,0.3s0.4,0.1,0.7,0.1c0.3,0,0.6,0,1.1,0H176.3z M101.5,160.4h3.8v6.7h1.4v-6.7h3.8v-1.3h-8.9V160.4z
	 M119.4,163.2c0,0.5,0,0.9,0,1.2c0,0.3,0,0.6-0.1,0.8c0,0.2-0.1,0.3-0.2,0.5c-0.1,0.1-0.2,0.2-0.3,0.2c-0.2,0.1-0.4,0.1-0.6,0.1
	c-0.3,0-0.6,0-1,0h-2.2c-0.4,0-0.8,0-1,0c-0.3,0-0.5-0.1-0.6-0.1c-0.1-0.1-0.2-0.1-0.3-0.2c-0.1-0.1-0.1-0.3-0.2-0.5
	c0-0.2-0.1-0.5-0.1-0.8c0-0.3,0-0.7,0-1.2v-4h-1.4v4c0,0.4,0,0.9,0,1.2c0,0.4,0,0.7,0.1,1c0.1,0.3,0.2,0.6,0.3,0.8
	c0.2,0.2,0.4,0.5,0.7,0.6c0.3,0.2,0.6,0.3,1,0.3c0.4,0.1,0.9,0.1,1.5,0.1h2.2c0.6,0,1.1,0,1.5-0.1c0.4-0.1,0.8-0.2,1-0.3
	c0.3-0.2,0.5-0.4,0.7-0.6c0.2-0.2,0.3-0.5,0.3-0.8c0.1-0.3,0.1-0.6,0.1-1c0-0.4,0-0.8,0-1.2v-4h-1.4L119.4,163.2z M131,160.3
	c-0.1-0.2-0.2-0.4-0.4-0.5c-0.2-0.1-0.4-0.3-0.7-0.4c-0.3-0.1-0.6-0.2-1-0.2c-0.4,0-0.9-0.1-1.5-0.1h-5.6v8h1.4v-3h4
	c0.4,0,0.8,0,1,0c0.3,0,0.5,0,0.7,0.1c0.2,0,0.3,0.1,0.3,0.1c0.1,0,0.1,0.1,0.1,0.2c0,0.1,0.1,0.2,0.1,0.3c0,0.2,0,0.4,0,0.6v1.7
	h1.4v-1.7c0-0.3,0-0.5,0-0.8c0-0.2-0.1-0.5-0.2-0.6c-0.1-0.2-0.2-0.3-0.4-0.5c0.2-0.1,0.4-0.3,0.5-0.5c0.1-0.2,0.2-0.4,0.3-0.7
	c0-0.2,0.1-0.5,0.1-0.9c0-0.2,0-0.5,0-0.7C131.1,160.7,131,160.5,131,160.3z M123.3,160.4h4.1c0.4,0,0.8,0,1,0c0.3,0,0.5,0,0.7,0.1
	c0.2,0,0.3,0.1,0.3,0.1c0.1,0,0.1,0.1,0.1,0.1c0,0.1,0.1,0.2,0.1,0.3c0,0.1,0,0.3,0,0.5c0,0.2,0,0.4,0,0.6c0,0.1,0,0.3-0.1,0.3
	c0,0.1-0.1,0.1-0.1,0.2c0,0-0.1,0.1-0.3,0.1c-0.2,0-0.4,0.1-0.7,0.1c-0.3,0-0.6,0-1,0h-4.1V160.4z M141.1,163.5
	c-0.1-0.1-0.2-0.3-0.3-0.4c-0.1-0.1-0.2-0.2-0.3-0.2c0,0-0.1,0-0.1,0c0.1-0.1,0.1-0.1,0.2-0.2c0.1-0.1,0.2-0.2,0.2-0.4
	c0.1-0.1,0.1-0.3,0.2-0.5c0-0.2,0.1-0.4,0.1-0.6c0-0.3,0-0.6-0.1-0.8c-0.1-0.3-0.2-0.5-0.4-0.7c-0.2-0.2-0.4-0.3-0.8-0.4
	c-0.3-0.1-0.7-0.1-1.2-0.1h-6.5v8h5.9c0.5,0,0.9,0,1.2-0.1c0.4,0,0.7-0.1,0.9-0.2c0.3-0.1,0.5-0.2,0.6-0.4c0.2-0.2,0.3-0.3,0.4-0.5
	c0.1-0.2,0.1-0.4,0.2-0.7c0-0.2,0-0.5,0-0.7c0-0.2,0-0.5-0.1-0.6C141.3,163.8,141.2,163.6,141.1,163.5z M139.6,161.7
	c0,0.1,0,0.2-0.1,0.3c0,0.1-0.1,0.1-0.2,0.2c-0.1,0-0.2,0.1-0.3,0.1c-0.1,0-0.3,0.1-0.6,0.1c-0.2,0-0.5,0-0.8,0h-4.1v-1.8h4.8
	c0.3,0,0.6,0,0.7,0c0.2,0,0.3,0.1,0.4,0.1c0.1,0,0.1,0.1,0.1,0.2c0,0.1,0.1,0.2,0.1,0.4C139.7,161.4,139.7,161.5,139.6,161.7z
	 M133.6,163.6h4.1c0.4,0,0.7,0,0.9,0c0.2,0,0.5,0,0.6,0.1c0.2,0,0.3,0.1,0.4,0.1c0.1,0,0.1,0.1,0.2,0.1c0,0.1,0.1,0.1,0.1,0.2
	c0,0.1,0,0.3,0,0.4c0,0.2,0,0.4,0,0.6c0,0.1-0.1,0.2-0.1,0.3c0,0.1-0.1,0.1-0.2,0.2c-0.1,0.1-0.2,0.1-0.4,0.1
	c-0.2,0-0.4,0.1-0.6,0.1c-0.3,0-0.6,0-0.9,0h-4.1V163.6z M152.2,160.9c-0.1-0.3-0.2-0.6-0.3-0.8c-0.2-0.2-0.4-0.5-0.7-0.6
	c-0.3-0.2-0.6-0.3-1-0.3c-0.4-0.1-0.9-0.1-1.5-0.1h-2.8c-0.6,0-1.1,0-1.5,0.1c-0.4,0.1-0.8,0.2-1,0.3c-0.3,0.2-0.5,0.4-0.7,0.6
	c-0.2,0.2-0.3,0.5-0.3,0.8c-0.1,0.3-0.1,0.6-0.1,1c0,0.4,0,0.8,0,1.2s0,0.9,0,1.2c0,0.4,0,0.7,0.1,1c0.1,0.3,0.2,0.6,0.3,0.8
	c0.2,0.2,0.4,0.5,0.7,0.6c0.3,0.2,0.6,0.3,1,0.3c0.4,0.1,0.9,0.1,1.5,0.1h2.8c0.6,0,1.1,0,1.5-0.1c0.4-0.1,0.8-0.2,1-0.3
	c0.3-0.2,0.5-0.4,0.7-0.6c0.2-0.2,0.3-0.5,0.3-0.8c0.1-0.3,0.1-0.7,0.1-1c0-0.4,0-0.8,0-1.2s0-0.9,0-1.2
	C152.3,161.6,152.3,161.2,152.2,160.9z M148.7,166h-2.8c-0.4,0-0.8,0-1,0c-0.3,0-0.5-0.1-0.6-0.1c-0.1-0.1-0.2-0.1-0.3-0.2
	c-0.1-0.1-0.1-0.3-0.2-0.5c0-0.2-0.1-0.5-0.1-0.8c0-0.3,0-0.7,0-1.2s0-0.9,0-1.2c0-0.3,0-0.6,0.1-0.8c0-0.2,0.1-0.3,0.2-0.5
	c0.1-0.1,0.2-0.2,0.3-0.2c0.2-0.1,0.4-0.1,0.6-0.1c0.3,0,0.6,0,1,0h2.8c0.4,0,0.8,0,1,0c0.3,0,0.5,0.1,0.6,0.1
	c0.1,0.1,0.2,0.1,0.3,0.2c0.1,0.1,0.1,0.3,0.2,0.5c0,0.2,0.1,0.5,0.1,0.8c0,0.3,0,0.7,0,1.2s0,0.9,0,1.2c0,0.3,0,0.6-0.1,0.8
	c0,0.2-0.1,0.3-0.2,0.5c-0.1,0.1-0.2,0.2-0.3,0.2c-0.2,0.1-0.4,0.1-0.6,0.1C149.4,166,149.1,166,148.7,166z M161.7,165.5l-4.2-6.4
	h-1.9v8h1.4v-6.3l4.1,6.3h1.2l4.1-6.2v6.2h1.4v-8H166L161.7,165.5z M179,160.9c-0.1-0.3-0.2-0.6-0.3-0.8c-0.2-0.2-0.4-0.5-0.7-0.6
	c-0.3-0.2-0.6-0.3-1-0.3c-0.4-0.1-0.9-0.1-1.5-0.1h-2.8c-0.6,0-1.1,0-1.5,0.1c-0.4,0.1-0.8,0.2-1,0.3c-0.3,0.2-0.5,0.4-0.7,0.6
	c-0.2,0.2-0.3,0.5-0.3,0.8c-0.1,0.3-0.1,0.6-0.1,1c0,0.4,0,0.8,0,1.2s0,0.9,0,1.2c0,0.4,0,0.7,0.1,1c0.1,0.3,0.2,0.6,0.3,0.8
	c0.2,0.2,0.4,0.5,0.7,0.6c0.3,0.2,0.6,0.3,1,0.3c0.4,0.1,0.9,0.1,1.5,0.1h2.8c0.6,0,1.1,0,1.5-0.1c0.4-0.1,0.8-0.2,1-0.3
	c0.3-0.2,0.5-0.4,0.7-0.6c0.2-0.2,0.3-0.5,0.3-0.8c0.1-0.3,0.1-0.7,0.1-1c0-0.4,0-0.8,0-1.2s0-0.9,0-1.2
	C179.1,161.6,179.1,161.2,179,160.9z M175.5,166h-2.8c-0.4,0-0.8,0-1,0c-0.3,0-0.5-0.1-0.6-0.1c-0.1-0.1-0.2-0.1-0.3-0.2
	c-0.1-0.1-0.1-0.3-0.2-0.5c0-0.2-0.1-0.5-0.1-0.8c0-0.3,0-0.7,0-1.2s0-0.9,0-1.2c0-0.3,0-0.6,0.1-0.8c0-0.2,0.1-0.3,0.2-0.5
	c0.1-0.1,0.2-0.2,0.3-0.2c0.2-0.1,0.4-0.1,0.6-0.1c0.3,0,0.6,0,1,0h2.8c0.4,0,0.8,0,1,0c0.3,0,0.5,0.1,0.6,0.1
	c0.1,0.1,0.2,0.1,0.3,0.2c0.1,0.1,0.1,0.3,0.2,0.5c0,0.2,0.1,0.5,0.1,0.8c0,0.3,0,0.7,0,1.2s0,0.9,0,1.2c0,0.3,0,0.6-0.1,0.8
	c0,0.2-0.1,0.3-0.2,0.5c-0.1,0.1-0.2,0.2-0.3,0.2c-0.2,0.1-0.4,0.1-0.6,0.1C176.2,166,175.9,166,175.5,166z M189.6,161
	c-0.1-0.3-0.2-0.6-0.3-0.8c-0.2-0.2-0.4-0.4-0.7-0.6c-0.3-0.1-0.6-0.3-1-0.3c-0.4-0.1-0.9-0.1-1.5-0.1h-5.9v8h5.9
	c0.6,0,1.1,0,1.5-0.1c0.4-0.1,0.8-0.2,1-0.3c0.3-0.2,0.5-0.4,0.7-0.6c0.2-0.2,0.3-0.5,0.3-0.8c0.1-0.3,0.1-0.6,0.1-1
	c0-0.4,0-0.7,0-1.2s0-0.8,0-1.2C189.7,161.6,189.7,161.3,189.6,161z M186.1,165.9h-4.4v-5.4h4.4c0.4,0,0.8,0,1,0
	c0.3,0,0.5,0.1,0.6,0.1c0.1,0.1,0.2,0.1,0.3,0.2c0.1,0.1,0.1,0.2,0.2,0.4c0,0.2,0.1,0.5,0.1,0.8c0,0.3,0,0.7,0,1.1s0,0.8,0,1.1
	c0,0.3,0,0.6-0.1,0.8c0,0.2-0.1,0.3-0.2,0.4c-0.1,0.1-0.2,0.2-0.3,0.2c-0.2,0.1-0.4,0.1-0.6,0.1
	C186.8,165.9,186.5,165.9,186.1,165.9z M198.8,160.4v-1.3h-8v8h8v-1.3h-6.6v-2.2h6.2v-1.3h-6.2v-2H198.8z"/>
<path id="standard-bolt" style="fill:#FFFFFF;" d="M139.7,119.8l1.5-12.2c0.1-0.9,0.8-1.5,1.7-1.5h9.1c0.8,0,1.5,0.7,1.5,1.5
	c0,0.2,0,0.3-0.1,0.5l-2.5,6.6h7.5c1.1,0,2,0.9,2,2c0,0.4-0.1,0.8-0.3,1.1l-10.3,15.1c-0.3,0.5-0.8,0.7-1.4,0.7h-0.2
	c-0.8,0-1.5-0.7-1.5-1.5c0-0.1,0-0.2,0-0.4l2.5-10.1h-7.7C140.5,121.5,139.7,120.7,139.7,119.8z"/>
<g id="top-button">
	<path id="top-bg" style="opacity:0.2;fill:#F5A214;enable-background:new    ;" d="M150.2,95.3c15.2,0,28.9,6.1,38.9,16.1l67-67.2
		c-27.1-27-64.5-43.7-105.9-43.7C108.9,0.4,71.6,17.1,44.4,44l67,67.2C121.4,101.4,135.1,95.3,150.2,95.3z"/>
	<path id="top-letter" style="fill:#F5A214;" d="M135.9,48.6h2.2c0.2,0,0.4,0.1,0.6,0.2s0.3,0.3,0.3,0.5l4.1,13.9
		c0.1,0.2,0.1,0.5,0.2,0.8s0.1,0.6,0.2,0.9c0.1-0.3,0.1-0.6,0.2-0.9c0.1-0.3,0.1-0.6,0.2-0.8l4.7-13.9c0.1-0.2,0.2-0.3,0.3-0.4
		c0.2-0.1,0.4-0.2,0.6-0.2h0.8c0.2,0,0.4,0.1,0.6,0.2s0.3,0.3,0.3,0.5l4.7,13.9c0.2,0.5,0.3,1,0.4,1.7c0.1-0.3,0.1-0.6,0.1-0.9
		c0.1-0.3,0.1-0.5,0.2-0.8l4.1-13.9c0.1-0.2,0.1-0.3,0.3-0.4c0.2-0.1,0.4-0.2,0.6-0.2h2.1l-6.2,19.9h-2.4l-5.1-15.2
		c-0.1-0.3-0.2-0.6-0.3-1c-0.1,0.2-0.1,0.4-0.1,0.5c0,0.2-0.1,0.3-0.1,0.5l-5.1,15.2h-2.4L135.9,48.6z"/>
	<path id="top-arrow" style="fill:#FFFFFF;" d="M135.6,37.5v-2.8l13.9-11.1v2.8L135.6,37.5z M165.1,37.5v-2.8l-13.9-11.1v2.8
		L165.1,37.5z"/>
</g>
<g id="bottom-button">
	<path id="bottom-bg" style="opacity:0.2;fill:#F5A214;enable-background:new    ;" d="M189.2,189.3c-10,10-23.8,16.2-39.1,16.2
		c-15.2,0-28.9-6.1-38.9-16.1l-67,67.2c27.1,27,64.6,43.8,105.9,43.8c41.4,0,78.9-16.8,106-43.9L189.2,189.3z"/>
	<path id="bottom-arrow" style="fill:#FFFFFF;" d="M165.1,263.6v2.8l-13.9,11.1v-2.8L165.1,263.6z M135.6,263.6v2.8l13.9,11.1v-2.8
		L135.6,263.6z"/>
	<path id="bottom-letter" style="fill:#F5A214;" d="M155.2,235.4c-0.1,0.1-0.2,0.2-0.3,0.3s-0.2,0.1-0.4,0.1c-0.2,0-0.3-0.1-0.6-0.2
		s-0.5-0.3-0.8-0.5c-0.3-0.2-0.7-0.4-1.2-0.5c-0.4-0.2-1-0.2-1.6-0.2c-0.6,0-1.1,0.1-1.6,0.2s-0.9,0.4-1.2,0.7s-0.5,0.6-0.7,1
		c-0.2,0.4-0.2,0.8-0.2,1.2c0,0.6,0.1,1,0.4,1.4s0.6,0.7,1.1,0.9c0.4,0.3,1,0.5,1.5,0.7c0.6,0.2,1.2,0.4,1.8,0.6
		c0.6,0.2,1.2,0.4,1.8,0.7c0.6,0.3,1.1,0.6,1.5,1s0.8,0.9,1.1,1.4c0.3,0.6,0.4,1.3,0.4,2.1c0,0.9-0.1,1.7-0.4,2.5s-0.7,1.4-1.3,2
		s-1.3,1-2.1,1.3c-0.8,0.3-1.8,0.5-2.8,0.5c-1.3,0-2.5-0.2-3.5-0.7s-2-1.1-2.7-1.9l0.8-1.3c0.1-0.1,0.2-0.2,0.3-0.3s0.2-0.1,0.4-0.1
		c0.2,0,0.4,0.1,0.7,0.3c0.2,0.2,0.6,0.4,0.9,0.7s0.8,0.5,1.4,0.7s1.2,0.3,2,0.3c0.6,0,1.2-0.1,1.7-0.3c0.5-0.2,0.9-0.4,1.3-0.8
		c0.4-0.3,0.6-0.7,0.8-1.1s0.3-0.9,0.3-1.5c0-0.6-0.1-1.1-0.4-1.5c-0.3-0.4-0.6-0.7-1.1-1c-0.4-0.3-0.9-0.5-1.5-0.7
		c-0.6-0.2-1.2-0.4-1.8-0.6s-1.2-0.4-1.8-0.7s-1.1-0.6-1.5-1c-0.4-0.4-0.8-0.9-1.1-1.5s-0.4-1.3-0.4-2.2c0-0.7,0.1-1.4,0.4-2.1
		s0.7-1.2,1.2-1.8s1.2-0.9,1.9-1.2c0.8-0.3,1.6-0.5,2.6-0.5c1.1,0,2.1,0.2,3.1,0.5s1.7,0.9,2.4,1.5L155.2,235.4z"/>
</g>
<g id="right-button">
	<path id="right-bg" style="opacity:0.2;fill:#F5A214;enable-background:new    ;" d="M256.4,44.6l-67.2,67
		c9.9,10,16.1,23.7,16.1,38.9c0,15.1-6.1,28.8-15.9,38.7l67.2,67c26.9-27.1,43.6-64.5,43.6-105.7C300.2,109.1,283.5,71.7,256.4,44.6
		z"/>
	<path id="right-letter" style="fill:#F5A214;" d="M249.3,146.8c0,1.5-0.2,2.9-0.7,4.1c-0.5,1.2-1.1,2.3-2,3.1
		c-0.9,0.9-1.9,1.6-3.1,2s-2.5,0.7-4,0.7H232v-19.9h7.5c1.5,0,2.8,0.2,4,0.7c1.2,0.5,2.2,1.2,3.1,2c0.9,0.9,1.5,1.9,2,3.1
		C249.1,144,249.3,145.3,249.3,146.8z M246.6,146.8c0-1.2-0.2-2.3-0.5-3.3c-0.3-1-0.8-1.8-1.4-2.4s-1.4-1.2-2.2-1.5
		s-1.8-0.5-2.9-0.5h-4.8v15.6h4.8c1.1,0,2-0.2,2.9-0.5c0.9-0.4,1.6-0.9,2.2-1.5s1.1-1.5,1.4-2.4C246.4,149.1,246.6,148,246.6,146.8z
		"/>
	<path id="right-arrow" style="fill:#FFFFFF;" d="M260.7,132.1h2.8l11.1,13.9h-2.8L260.7,132.1z M260.7,161.6h2.8l11.1-13.9h-2.8
		L260.7,161.6z"/>
</g>
<g id="left-button">
	<path id="left-bg" style="opacity:0.2;fill:#F5A214;enable-background:new    ;" d="M95.1,150.4c0-15.3,6.2-29.1,16.2-39.1
		l-67.2-67c-27.1,27.2-43.9,64.6-43.9,106c0,41.3,16.7,78.7,43.7,105.8l67.2-67C101.2,179.4,95.1,165.6,95.1,150.4z"/>
	<path id="left-letter" style="fill:#F5A214;" d="M71.3,156.8h-2.1c-0.2,0-0.4-0.1-0.6-0.2c-0.2-0.1-0.3-0.3-0.3-0.5l-1.9-4.8h-9
		l-1.9,4.8c-0.1,0.2-0.2,0.3-0.3,0.4c-0.2,0.1-0.3,0.2-0.6,0.2h-2.1l8-19.9h2.7L71.3,156.8z M58.2,149.4h7.5l-3.1-8.1
		c-0.2-0.5-0.4-1.1-0.6-1.9c-0.1,0.4-0.2,0.7-0.3,1.1s-0.2,0.6-0.3,0.8L58.2,149.4z"/>
	<path id="left-arrow" style="fill:#FFFFFF;" d="M41.4,161.6h-2.8l-11.1-13.9h2.8L41.4,161.6z M41.4,132.1h-2.8L27.5,146h2.8
		L41.4,132.1z"/>
</g>
<path id="controls-lines" style="fill:#ECECEC;" d="M238.8,237.7l-48.7-48.5c9.7-10,15.7-23.7,15.7-38.7c0-15.1-6.1-28.8-15.9-38.9
	L238.7,63c0.2-0.2,0.2-0.6,0-0.8s-0.6-0.2-0.8,0l-48.7,48.5c-10.1-9.9-23.8-16-39-16c-15.1,0-28.8,6.1-38.9,15.9l-49-48.8
	c-0.2-0.2-0.6-0.2-0.8,0s-0.2,0.6,0,0.8l49,48.8c-9.9,10.1-16,23.8-16,39c0,15.1,6.1,28.8,15.8,38.8l-49,48.8
	c-0.2,0.2-0.2,0.6,0,0.8c0.1,0.1,0.2,0.2,0.4,0.2s0.3-0.1,0.4-0.2l49-48.8c10.1,9.9,23.8,16,39,16c15.3,0,29.1-6.2,39.2-16.2
	l48.7,48.5c0.1,0.1,0.2,0.2,0.4,0.2s0.3-0.1,0.4-0.2C239.1,238.3,239.1,237.9,238.8,237.7z M150.2,205c-30.1,0-54.6-24.5-54.6-54.6
	s24.5-54.6,54.6-54.6s54.6,24.5,54.6,54.6S180.2,205,150.2,205z"/>
</svg>
