<?xml version="1.0" encoding="utf-8"?>
<!-- Generator: Adobe Illustrator 25.0.0, SVG Export Plug-In . SVG Version: 6.00 Build 0)  -->
<svg version="1.1" id="Livello_1" xmlns="http://www.w3.org/2000/svg" xmlns:xlink="http://www.w3.org/1999/xlink" x="0px" y="0px"
	 viewBox="0 0 300 300" style="enable-background:new 0 0 300 300;" xml:space="preserve">
<circle id="standard-mode-bg" style="opacity:0.4;fill:#F5A214;enable-background:new    ;" cx="150.2" cy="150.4" r="55.1"/>
<g id="top-button">
	<path id="top-bg" style="opacity:0.2;fill:#F5A214;enable-background:new    ;" d="M150.2,95.3c15.2,0,28.9,6.1,38.9,16.1l67-67.2
		C229,17.2,191.6,0.5,150.2,0.5C108.9,0.4,71.6,17.1,44.4,44l67,67.2C121.4,101.4,135.1,95.3,150.2,95.3z"/>
	<path id="top-letter" style="fill:#F5A214;" d="M135.9,48.6h2.2c0.2,0,0.4,0.1,0.6,0.2s0.3,0.3,0.3,0.5l4.1,13.9
		c0.1,0.2,0.1,0.5,0.2,0.8s0.1,0.6,0.2,0.9c0.1-0.3,0.1-0.6,0.2-0.9c0.1-0.3,0.1-0.6,0.2-0.8l4.7-13.9c0.1-0.2,0.2-0.3,0.3-0.4
		c0.2-0.1,0.4-0.2,0.6-0.2h0.8c0.2,0,0.4,0.1,0.6,0.2s0.3,0.3,0.3,0.5l4.7,13.9c0.2,0.5,0.3,1,0.4,1.7c0.1-0.3,0.1-0.6,0.1-0.9
		c0.1-0.3,0.1-0.5,0.2-0.8l4.1-13.9c0.1-0.2,0.1-0.3,0.3-0.4c0.2-0.1,0.4-0.2,0.6-0.2h2.1l-6.2,19.9h-2.4L150,53.5
		c-0.1-0.3-0.2-0.6-0.3-1c-0.1,0.2-0.1,0.4-0.1,0.5c0,0.2-0.1,0.3-0.1,0.5l-5.1,15.2H142L135.9,48.6z"/>
	<path id="top-arrow" style="fill:#FFFFFF;" d="M135.6,37.5v-2.8l13.9-11.1v2.8L135.6,37.5z M165.1,37.5v-2.8l-13.9-11.1v2.8
		L165.1,37.5z"/>
</g>
<g id="bottom-button">
	<path id="bottom-bg" style="opacity:0.2;fill:#F5A214;enable-background:new    ;" d="M189.2,189.3c-10,10-23.8,16.2-39.1,16.2
		c-15.2,0-28.9-6.1-38.9-16.1l-67,67.2c27.1,27,64.6,43.8,105.9,43.8c41.4,0,78.9-16.8,106-43.9L189.2,189.3z"/>
	<path id="bottom-arrow" style="fill:#FFFFFF;" d="M165.1,263.6v2.8l-13.9,11.1v-2.8L165.1,263.6z M135.6,263.6v2.8l13.9,11.1v-2.8
		L135.6,263.6z"/>
	<path id="bottom-letter" style="fill:#F5A214;" d="M155.2,235.4c-0.1,0.1-0.2,0.2-0.3,0.3s-0.2,0.1-0.4,0.1s-0.3-0.1-0.6-0.2
		s-0.5-0.3-0.8-0.5s-0.7-0.4-1.2-0.5c-0.4-0.2-1-0.2-1.6-0.2s-1.1,0.1-1.6,0.2s-0.9,0.4-1.2,0.7s-0.5,0.6-0.7,1s-0.2,0.8-0.2,1.2
		c0,0.6,0.1,1,0.4,1.4s0.6,0.7,1.1,0.9c0.4,0.3,1,0.5,1.5,0.7c0.6,0.2,1.2,0.4,1.8,0.6c0.6,0.2,1.2,0.4,1.8,0.7s1.1,0.6,1.5,1
		s0.8,0.9,1.1,1.4c0.3,0.6,0.4,1.3,0.4,2.1c0,0.9-0.1,1.7-0.4,2.5s-0.7,1.4-1.3,2s-1.3,1-2.1,1.3s-1.8,0.5-2.8,0.5
		c-1.3,0-2.5-0.2-3.5-0.7s-2-1.1-2.7-1.9l0.8-1.3c0.1-0.1,0.2-0.2,0.3-0.3s0.2-0.1,0.4-0.1s0.4,0.1,0.7,0.3c0.2,0.2,0.6,0.4,0.9,0.7
		s0.8,0.5,1.4,0.7s1.2,0.3,2,0.3c0.6,0,1.2-0.1,1.7-0.3s0.9-0.4,1.3-0.8c0.4-0.3,0.6-0.7,0.8-1.1s0.3-0.9,0.3-1.5s-0.1-1.1-0.4-1.5
		c-0.3-0.4-0.6-0.7-1.1-1c-0.4-0.3-0.9-0.5-1.5-0.7s-1.2-0.4-1.8-0.6s-1.2-0.4-1.8-0.7s-1.1-0.6-1.5-1s-0.8-0.9-1.1-1.5
		s-0.4-1.3-0.4-2.2c0-0.7,0.1-1.4,0.4-2.1s0.7-1.2,1.2-1.8s1.2-0.9,1.9-1.2c0.8-0.3,1.6-0.5,2.6-0.5c1.1,0,2.1,0.2,3.1,0.5
		s1.7,0.9,2.4,1.5L155.2,235.4z"/>
</g>
<g id="right-button">
	<path id="right-bg" style="opacity:0.2;fill:#F5A214;enable-background:new    ;" d="M256.4,44.6l-67.2,67
		c9.9,10,16.1,23.7,16.1,38.9c0,15.1-6.1,28.8-15.9,38.7l67.2,67c26.9-27.1,43.6-64.5,43.6-105.7C300.2,109.1,283.5,71.7,256.4,44.6
		z"/>
	<path id="right-letter" style="fill:#F5A214;" d="M249.3,146.8c0,1.5-0.2,2.9-0.7,4.1c-0.5,1.2-1.1,2.3-2,3.1
		c-0.9,0.9-1.9,1.6-3.1,2s-2.5,0.7-4,0.7H232v-19.9h7.5c1.5,0,2.8,0.2,4,0.7s2.2,1.2,3.1,2c0.9,0.9,1.5,1.9,2,3.1
		C249.1,144,249.3,145.3,249.3,146.8z M246.6,146.8c0-1.2-0.2-2.3-0.5-3.3s-0.8-1.8-1.4-2.4s-1.4-1.2-2.2-1.5s-1.8-0.5-2.9-0.5h-4.8
		v15.6h4.8c1.1,0,2-0.2,2.9-0.5c0.9-0.4,1.6-0.9,2.2-1.5s1.1-1.5,1.4-2.4C246.4,149.1,246.6,148,246.6,146.8z"/>
	<path id="right-arrow" style="fill:#FFFFFF;" d="M260.7,132.1h2.8l11.1,13.9h-2.8L260.7,132.1z M260.7,161.6h2.8l11.1-13.9h-2.8
		L260.7,161.6z"/>
</g>
<g id="left-button">
	<path id="left-bg" style="opacity:0.2;fill:#F5A214;enable-background:new    ;" d="M95.1,150.4c0-15.3,6.2-29.1,16.2-39.1
		l-67.2-67C17,71.5,0.2,108.9,0.2,150.3c0,41.3,16.7,78.7,43.7,105.8l67.2-67C101.2,179.4,95.1,165.6,95.1,150.4z"/>
	<path id="left-letter" style="fill:#F5A214;" d="M71.3,156.8h-2.1c-0.2,0-0.4-0.1-0.6-0.2c-0.2-0.1-0.3-0.3-0.3-0.5l-1.9-4.8h-9
		l-1.9,4.8c-0.1,0.2-0.2,0.3-0.3,0.4c-0.2,0.1-0.3,0.2-0.6,0.2h-2.1l8-19.9h2.7L71.3,156.8z M58.2,149.4h7.5l-3.1-8.1
		c-0.2-0.5-0.4-1.1-0.6-1.9c-0.1,0.4-0.2,0.7-0.3,1.1s-0.2,0.6-0.3,0.8L58.2,149.4z"/>
	<path id="left-arrow" style="fill:#FFFFFF;" d="M41.4,161.6h-2.8l-11.1-13.9h2.8L41.4,161.6z M41.4,132.1h-2.8L27.5,146h2.8
		L41.4,132.1z"/>
</g>
<path id="controls-lines" style="fill:#ECECEC;" d="M238.8,237.7l-48.7-48.5c9.7-10,15.7-23.7,15.7-38.7c0-15.1-6.1-28.8-15.9-38.9
	L238.7,63c0.2-0.2,0.2-0.6,0-0.8s-0.6-0.2-0.8,0l-48.7,48.5c-10.1-9.9-23.8-16-39-16c-15.1,0-28.8,6.1-38.9,15.9l-49-48.8
	c-0.2-0.2-0.6-0.2-0.8,0s-0.2,0.6,0,0.8l49,48.8c-9.9,10.1-16,23.8-16,39c0,15.1,6.1,28.8,15.8,38.8l-49,48.8
	c-0.2,0.2-0.2,0.6,0,0.8c0.1,0.1,0.2,0.2,0.4,0.2s0.3-0.1,0.4-0.2l49-48.8c10.1,9.9,23.8,16,39,16c15.3,0,29.1-6.2,39.2-16.2
	l48.7,48.5c0.1,0.1,0.2,0.2,0.4,0.2s0.3-0.1,0.4-0.2C239.1,238.3,239.1,237.9,238.8,237.7z M150.2,205c-30.1,0-54.6-24.5-54.6-54.6
	s24.5-54.6,54.6-54.6s54.6,24.5,54.6,54.6S180.2,205,150.2,205z"/>
<path id="standard-mode-title_1_" style="fill:#FFFFFF;" d="M157,141.7c1.7-1.1,3.1-2.5,4.1-4.3s1.5-3.9,1.5-6.2
	c0-2.4-0.5-4.5-1.6-6.3c-1.1-1.9-2.5-3.3-4.3-4.4c-1.8-1-3.9-1.6-6.1-1.6c-2.2,0-4.3,0.5-6.1,1.6c-1.8,1-3.3,2.5-4.4,4.4
	c-1.1,1.9-1.6,4-1.6,6.3c0,2.3,0.5,4.4,1.6,6.3c1.1,1.9,2.5,3.3,4.4,4.4c1.8,1,3.9,1.6,6.1,1.6c1.2,0,2.4-0.2,3.6-0.5l4.8,4.8h4.1
	L157,141.7z M155,139.5L155,139.5l-5.6-5.6h-4.1l6.5,6.6c-0.4,0.2-0.8,0.2-1.3,0.2c-1.7,0-3.2-0.4-4.5-1.2c-1.3-0.8-2.4-1.9-3.2-3.3
	c-0.8-1.4-1.2-3.1-1.2-5c0-1.9,0.4-3.6,1.2-5c0.8-1.4,1.8-2.5,3.2-3.3c1.4-0.8,2.8-1.2,4.5-1.2s3.2,0.4,4.5,1.2s2.4,1.9,3.2,3.3
	c0.8,1.4,1.2,3.1,1.2,5c0,1.9-0.4,3.6-1.2,5C157.4,137.6,156.4,138.8,155,139.5z M130.4,158.5v0.9h-4.5v8.1h-1.1v-8.1h-4.5v-0.9
	H130.4z M142.8,158.5v4.5c0,0.5,0,1,0,1.5s-0.1,0.8-0.1,1.2s-0.2,0.7-0.4,0.9s-0.4,0.5-0.7,0.6s-0.7,0.3-1.2,0.4s-1,0.1-1.7,0.1
	h-2.6c-0.7,0-1.3,0-1.7-0.1s-0.9-0.2-1.2-0.4s-0.5-0.4-0.7-0.6s-0.3-0.6-0.4-0.9s-0.1-0.7-0.1-1.2s0-0.9,0-1.5v-4.5h1.1v4.5
	c0,0.6,0,1,0,1.5s0,0.7,0.1,1s0.1,0.5,0.3,0.7s0.3,0.3,0.5,0.4s0.5,0.1,0.8,0.2s0.8,0,1.3,0h2.6c0.5,0,0.9,0,1.3,0s0.6-0.1,0.8-0.2
	s0.4-0.2,0.5-0.4s0.2-0.4,0.3-0.7s0.1-0.6,0.1-1s0-0.9,0-1.5l0-4.5H142.8z M155,167.5h-1.1v-1.7c0-0.3,0-0.5,0-0.7s0-0.4-0.1-0.5
	s-0.1-0.3-0.3-0.3s-0.3-0.2-0.5-0.2s-0.5-0.1-0.8-0.1s-0.8,0-1.3,0h-5.1v3.6h-1.1v-9h6.4c0.7,0,1.3,0,1.7,0.1s0.9,0.1,1.2,0.2
	s0.5,0.2,0.7,0.4s0.3,0.3,0.4,0.5s0.1,0.4,0.1,0.7s0,0.5,0,0.8c0,0.4,0,0.7-0.1,1s-0.1,0.5-0.3,0.7s-0.3,0.4-0.5,0.5
	s-0.5,0.2-0.8,0.2c0.3,0,0.6,0.1,0.8,0.2s0.3,0.3,0.4,0.5s0.2,0.4,0.2,0.7s0,0.6,0,0.9V167.5z M145.8,163h5.2c0.5,0,0.9,0,1.3,0
	s0.6,0,0.8-0.1s0.4-0.1,0.5-0.2s0.2-0.2,0.3-0.3s0.1-0.3,0.1-0.5s0-0.4,0-0.7c0-0.3,0-0.5,0-0.7s0-0.3-0.1-0.5s-0.1-0.2-0.3-0.3
	s-0.3-0.1-0.5-0.2s-0.5-0.1-0.8-0.1s-0.8,0-1.3,0h-5.2V163z M157.1,167.5v-9h7.5c0.6,0,1,0,1.4,0.1s0.6,0.2,0.8,0.4s0.3,0.4,0.4,0.7
	s0.1,0.6,0.1,0.9c0,0.2,0,0.5-0.1,0.7s-0.1,0.4-0.2,0.5s-0.2,0.3-0.2,0.4s-0.2,0.2-0.3,0.2c-0.2,0.1-0.5,0.2-0.8,0.3
	c0.4,0,0.7,0.1,0.9,0.3c0.1,0.1,0.2,0.1,0.3,0.2s0.2,0.2,0.3,0.4s0.2,0.3,0.2,0.5s0.1,0.4,0.1,0.7c0,0.3,0,0.6,0,0.9
	s-0.1,0.5-0.2,0.7s-0.2,0.4-0.4,0.5s-0.4,0.3-0.7,0.4s-0.6,0.2-1,0.2s-0.9,0.1-1.5,0.1H157.1z M163.4,162.3c0.4,0,0.7,0,1,0
	s0.5,0,0.7-0.1s0.4-0.1,0.5-0.2s0.2-0.2,0.3-0.3s0.1-0.3,0.1-0.4s0-0.4,0-0.6c0-0.2,0-0.5-0.1-0.6s-0.2-0.3-0.3-0.4
	s-0.3-0.1-0.6-0.2s-0.5,0-0.9,0h-6v2.8H163.4z M163.4,166.6c0.4,0,0.8,0,1.1,0s0.6,0,0.8-0.1s0.4-0.1,0.5-0.2s0.2-0.2,0.3-0.3
	s0.1-0.3,0.2-0.5s0-0.4,0-0.7c0-0.2,0-0.4,0-0.6s-0.1-0.3-0.2-0.4s-0.2-0.2-0.3-0.3s-0.3-0.1-0.5-0.2s-0.5-0.1-0.8-0.1s-0.7,0-1.1,0
	h-5.2v3.4H163.4z M176.6,158.4c0.7,0,1.3,0,1.7,0.1s0.9,0.2,1.2,0.4s0.5,0.4,0.7,0.6s0.3,0.6,0.4,0.9s0.1,0.7,0.1,1.2s0,0.9,0,1.5
	s0,1,0,1.5s-0.1,0.8-0.1,1.2s-0.2,0.7-0.4,0.9s-0.4,0.5-0.7,0.6s-0.7,0.3-1.2,0.4s-1,0.1-1.7,0.1h-3.4c-0.7,0-1.3,0-1.7-0.1
	s-0.9-0.2-1.2-0.4s-0.5-0.4-0.7-0.6s-0.3-0.6-0.4-0.9s-0.1-0.7-0.1-1.2s0-0.9,0-1.5s0-1,0-1.5s0.1-0.8,0.1-1.2s0.2-0.7,0.4-0.9
	s0.4-0.5,0.7-0.6s0.7-0.3,1.2-0.4s1-0.1,1.7-0.1H176.6z M176.6,166.8c0.5,0,0.9,0,1.3,0s0.6-0.1,0.8-0.2s0.4-0.2,0.5-0.4
	s0.2-0.4,0.3-0.7s0.1-0.6,0.1-1s0-0.9,0-1.5s0-1,0-1.5s0-0.7-0.1-1s-0.1-0.5-0.3-0.7s-0.3-0.3-0.5-0.4s-0.5-0.1-0.8-0.2
	s-0.8,0-1.3,0h-3.4c-0.5,0-0.9,0-1.3,0s-0.6,0.1-0.8,0.2s-0.4,0.2-0.5,0.4s-0.2,0.4-0.3,0.7s-0.1,0.6-0.1,1s0,0.9,0,1.5s0,1,0,1.5
	s0,0.7,0.1,1s0.1,0.5,0.3,0.7s0.3,0.3,0.5,0.4s0.5,0.1,0.8,0.2s0.8,0,1.3,0H176.6z M126.4,173.7v8.2h-1.1v-9h1.8l5.2,7.9l5.2-7.9
	h1.9v9h-1.1v-8.1l-5.3,8.1h-1.1L126.4,173.7z M148.8,172.8c0.7,0,1.3,0,1.7,0.1s0.9,0.2,1.2,0.4s0.5,0.4,0.7,0.6s0.3,0.6,0.4,0.9
	s0.1,0.7,0.1,1.2s0,0.9,0,1.5s0,1,0,1.5s-0.1,0.8-0.1,1.2s-0.2,0.7-0.4,0.9s-0.4,0.5-0.7,0.6s-0.7,0.3-1.2,0.4s-1,0.1-1.7,0.1h-3.4
	c-0.7,0-1.3,0-1.7-0.1s-0.9-0.2-1.2-0.4s-0.5-0.4-0.7-0.6s-0.3-0.6-0.4-0.9s-0.1-0.7-0.1-1.2s0-0.9,0-1.5s0-1,0-1.5s0.1-0.8,0.1-1.2
	s0.2-0.7,0.4-0.9s0.4-0.5,0.7-0.6s0.7-0.3,1.2-0.4s1-0.1,1.7-0.1H148.8z M148.8,181.2c0.5,0,0.9,0,1.3,0s0.6-0.1,0.8-0.2
	s0.4-0.2,0.5-0.4s0.2-0.4,0.3-0.7s0.1-0.6,0.1-1s0-0.9,0-1.5s0-1,0-1.5s0-0.7-0.1-1s-0.1-0.5-0.3-0.7s-0.3-0.3-0.5-0.4
	s-0.5-0.1-0.8-0.2s-0.8,0-1.3,0h-3.4c-0.5,0-0.9,0-1.3,0s-0.6,0.1-0.8,0.2s-0.4,0.2-0.5,0.4s-0.2,0.4-0.3,0.7s-0.1,0.6-0.1,1
	s0,0.9,0,1.5s0,1,0,1.5s0,0.7,0.1,1s0.1,0.5,0.3,0.7s0.3,0.3,0.5,0.4s0.5,0.1,0.8,0.2s0.8,0,1.3,0H148.8z M154.8,181.9v-9h6.7
	c0.7,0,1.3,0,1.7,0.1s0.9,0.2,1.2,0.4s0.5,0.4,0.7,0.6s0.3,0.5,0.4,0.9s0.1,0.7,0.1,1.1s0,0.9,0,1.4s0,1,0,1.4s-0.1,0.8-0.1,1.1
	s-0.2,0.6-0.4,0.9s-0.4,0.5-0.7,0.6s-0.7,0.3-1.2,0.4s-1,0.1-1.7,0.1H154.8z M161.5,181c0.5,0,0.9,0,1.3,0s0.6-0.1,0.8-0.2
	s0.4-0.2,0.5-0.4s0.2-0.4,0.3-0.6s0.1-0.6,0.1-1s0-0.8,0-1.4s0-1,0-1.4s0-0.7-0.1-1s-0.1-0.5-0.3-0.6s-0.3-0.3-0.5-0.4
	s-0.5-0.1-0.8-0.2s-0.8,0-1.3,0h-5.6v7.1H161.5z M167.5,181.9v-9h9v0.9h-7.9v3h7.5v0.9h-7.5v3.2h7.9v0.9H167.5z"/>
<path id="turbo-locker-bottom" style="fill:#ECECEC;" d="M150.1,205.5c10.1,0,19.5-2.7,27.6-7.4l-2.3-3.9
	c-7.5,4.3-16.1,6.8-25.4,6.8s-17.9-2.5-25.4-6.8l-2.3,3.9C130.6,202.8,140,205.5,150.1,205.5z"/>
<path id="turbo-locker-top" style="fill:#ECECEC;" d="M150.1,95.3c-10.1,0-19.5,2.7-27.6,7.4l2.3,3.9c7.5-4.3,16.1-6.8,25.4-6.8
	s17.9,2.5,25.4,6.8l2.3-3.9C169.6,98,160.1,95.3,150.1,95.3z"/>
</svg>
