<?xml version="1.0" encoding="utf-8"?>
<!-- Generator: Adobe Illustrator 25.0.0, SVG Export Plug-In . SVG Version: 6.00 Build 0)  -->
<svg version="1.1" id="Livello_1" xmlns="http://www.w3.org/2000/svg" xmlns:xlink="http://www.w3.org/1999/xlink" x="0px" y="0px"
	 viewBox="0 0 1920 1080" style="enable-background:new 0 0 1920 1080;" xml:space="preserve">
<polygon id="top-right-minor-bg" style="opacity:0.5;fill:#F5A214;enable-background:new    ;" points="1920,447.3 1847.5,447.3 
	1766.5,552.8 1814.5,552.8 "/>
<polygon id="top-left-minor-bg" style="opacity:0.5;fill:#F5A214;enable-background:new    ;" points="0,447.3 72.5,447.3 
	130.3,540.9 76.4,522.3 "/>
<g id="logo-top-main">
	<polygon id="top-main-bg" style="fill:#F5A214;" points="979.4,447.3 960.8,447.3 94.1,447.3 237.3,632.7 950.1,643.5 968.7,643.5 
		1675.2,643.5 1825.9,447.3 	"/>
	<path id="logo-space-joey" style="fill:#241E17;" d="M769,496.8c-0.4,4.5-4.4,7.8-8.8,7.4c-4.5-0.4-7.8-4.3-7.4-8.8
		c0.4-4.5,4.4-7.8,8.8-7.4C766.1,488.4,769.4,492.4,769,496.8z M770.4,475.6c-2.7-0.2-5.1,1.8-5.4,4.5c-0.2,2.7,1.8,5.2,4.5,5.4
		c2.7,0.2,5.1-1.8,5.4-4.5S773.1,475.9,770.4,475.6z M809.4,539.7l-8.6-0.8c-1.6-0.1-3,1.3-3.1,2.9c-0.1,1.6,1,3.2,2.6,3.4l8.6,0.8
		c1.6,0.1,3-1.3,3.1-2.9C812.1,541.5,810.9,539.8,809.4,539.7z M851.5,585.2c0,0-0.8,0-2.1,0c-0.3,0-0.7,0-1.1,0
		c-0.4,0-0.9,0.1-1.3,0.1c-0.9,0.1-2,0.2-3.1,0.3c-0.6,0.1-1.2,0.1-1.8,0.2c-0.6,0.1-1.2,0.2-1.9,0.4c-1.3,0.2-2.7,0.6-4,1
		c-0.7,0.2-1.4,0.4-2.1,0.7c-0.3,0.1-0.7,0.2-1.1,0.3c-0.4,0.1-0.7,0.3-1.1,0.4c-0.7,0.3-1.4,0.5-2.1,0.8c-0.7,0.3-1.4,0.6-2.1,0.9
		s-1.4,0.7-2.1,1l-1,0.5l-1,0.6c-0.6,0.4-1.3,0.7-1.9,1.1s-1.2,0.8-1.9,1.2c-0.6,0.4-1.2,0.8-1.7,1.2c-0.6,0.4-1.1,0.8-1.6,1.2
		c-1,0.9-2,1.6-2.8,2.4c-0.4,0.4-0.8,0.8-1.2,1.1c-0.4,0.4-0.7,0.7-1.1,1.1c-0.7,0.7-1.3,1.2-1.7,1.8c-0.9,1-1.4,1.6-1.4,1.6
		l-0.4-0.4c0,0,0.1-0.2,0.2-0.6c0.1-0.4,0.3-1,0.5-1.6c0.1-0.3,0.2-0.7,0.4-1.1c0.2-0.4,0.4-0.8,0.6-1.3c0.2-0.5,0.5-1,0.8-1.5
		c0.3-0.5,0.6-1,0.9-1.5c0.4-0.5,0.7-1.1,1.1-1.6s0.9-1.1,1.3-1.6c0.5-0.6,1-1.1,1.5-1.6c0.3-0.3,0.6-0.6,0.9-0.9
		c-0.8-0.3-1.6-0.7-2.4-1.1c-6.1-3.1-12-9.2-14.4-17.1c-2.7,1.2-6.3,3.2-9.2,5.3l0.1,0.1l-2.3,1.7c-2.5,1.7-5.4,2.5-8.3,2.2
		c-1.6-0.1-3.3-0.6-4.8-1.4c-2.9-1.6-5.1-4.2-6.1-7.4c-1-3.2-0.6-6.6,0.9-9.6c1.9-3.8,5.7-6.2,9.2-8.5c1.6-1,3.2-2,4.6-3.1
		c-2.5,0.2-5.1,0.3-7.9,0.3c-0.3,0-0.6,0-0.9,0c-2.5-0.2-4.8-1.3-6.6-3.1c-2-2-3.1-4.7-3.1-7.6c0-2.8,1.1-5.5,3.1-7.5
		c2-2,4.7-3.1,7.5-3.1c4.3,0,8.6-1.8,13.5-5.8c-6.5-5.5-10.3-13.9-9.5-23c1.3-14.8,14.4-25.8,29.2-24.5
		c14.8,1.3,25.7,14.4,24.4,29.3c-0.4,4.9-2.2,9.4-4.8,13.2c9.6,2.3,17.6,8,23.7,16.9l0.2,0.3c1.3,2.5,1.6,5.4,0.7,8.1
		c-0.9,2.7-2.7,4.9-5.2,6.3c-1.9,1-3.9,1.4-5.9,1.2c-2.4-0.2-4.8-1.3-6.6-3.1l-0.1-0.1c-1.5-1.5-3.2-2.6-5.4-3.4
		c-0.6,5-1.7,9.6-3.1,13.4c0,0.1,0,0.2,0,0.3c-0.3,3.8-0.2,11.2,2.6,14.6l0,0c2.1,2.3,2.9,5.1,2.4,8c0.2,0,0.4-0.1,0.6-0.1
		c0.8-0.2,1.6-0.4,2.4-0.5c1.6-0.2,3.1-0.4,4.6-0.4c0.7,0,1.4,0,2.1,0c0.7,0.1,1.3,0.1,2,0.2c0.6,0.1,1.2,0.1,1.8,0.3
		s1.1,0.2,1.6,0.4c0.5,0.1,1,0.2,1.4,0.4c0.4,0.2,0.8,0.3,1.2,0.4c0.7,0.2,1.2,0.5,1.6,0.7c0.4,0.2,0.6,0.3,0.6,0.3L851.5,585.2z
		 M805.4,485.3c-0.1,1.5,1,2.8,2.4,2.9c1.5,0.1,2.8-1,2.9-2.4c0.1-1.5-1-2.8-2.4-2.9C806.8,482.7,805.5,483.8,805.4,485.3z
		 M790.5,511.1c-0.9-2.5-1.3-5-1.1-7.6c0.6-6.7,5-12.4,11.3-14.6c1.3-0.5,2-1.9,1.5-3.2c-0.5-1.3-1.9-2-3.2-1.5
		c-8.1,2.9-13.9,10.3-14.6,18.9c-0.3,3.4,0.1,6.7,1.4,9.9c0.4,0.9,1.2,1.5,2.1,1.6c0.4,0,0.7,0,1.1-0.2
		C790.3,513.8,791,512.4,790.5,511.1z M816.2,585.2c1.9,1,3.9,1.5,5.6,1.2c1.6-0.2,2.8-1,3.5-2.4c1.1-2,1-3.5-0.1-4.9l-0.3-0.4
		c-2.1-2.5-3.2-6-3.7-9.3c-0.5,0.4-1.2,0.5-1.8,0.5c-0.6-0.1-1.2-0.3-1.7-0.8c-1.2-1.1-1.2-2.9-0.1-4.1c2.3-2.5,5.4-9.2,6.6-19.9
		c-0.5-0.1-1-0.2-1.5-0.2c-1.6-0.2-2.7-1.7-2.5-3.2c0.2-1.6,1.7-2.7,3.2-2.5c1.6,0.2,3.1,0.5,4.5,0.9c0.1,0,0.1,0,0.2,0
		c4.6,1.2,8.3,3.2,11.1,6l0.2,0.1c1.5,1.4,3.8,1.7,5.6,0.7c1.2-0.6,2-1.6,2.4-2.9c0.4-1.2,0.3-2.5-0.3-3.6
		c-5.9-8.4-13.2-13.3-22.5-14.9c-0.3-0.1-0.5-0.1-0.8-0.3c-5.3,4.6-12.4,7.1-19.9,6.5c-3.6-0.3-7-1.3-10-2.9
		c-6.5,5.6-12.5,8.3-18.5,8.3c-1.3,0-2.6,0.5-3.5,1.4c-0.9,0.9-1.4,2.1-1.5,3.5s0.5,2.5,1.4,3.5c0.9,0.9,2.1,1.4,3.5,1.5
		c5.2,0.1,9.5-0.3,13.4-1.2c0.7-1.5,1.2-3.3,1.4-5.4c0.2-1.6,1.6-2.8,3.1-2.6c1.6,0.2,2.7,1.6,2.6,3.2c-1.2,11.2-8.4,15.7-14.1,19.4
		c-3.2,2-6,3.8-7.2,6.2c-0.9,1.7-1.1,3.5-0.5,5.3c0.5,1.8,1.7,3.2,3.3,4c2.2,1.2,4.9,1,7-0.4c3.9-3.2,9.9-6.6,13.9-8.2
		c-0.1-1.2-0.1-2.5,0-3.8c0.1-1.6,1.5-2.7,3.1-2.6c1.6,0.1,2.7,1.5,2.6,3.1c-0.1,1.6-0.1,3.1,0.1,4.6c0,0,0,0,0,0.1
		C805.2,576.4,810.6,582.3,816.2,585.2z M881.7,559.6c-2.2-3-3.1-7.6-2.5-13.7l0.5-6l12.1,1.1l-0.7,7.7c-0.3,3.1,0.6,4.7,2.5,4.8
		c1.1,0.1,1.9-0.2,2.4-0.8c0.5-0.6,0.8-1.7,0.9-3.2c0.2-2,0.1-3.7-0.3-5c-0.4-1.4-0.9-2.5-1.5-3.5s-1.8-2.4-3.6-4.5l-4.8-5.8
		c-3.7-4.4-5.4-9-5-13.9c0.5-5.2,2-9.1,4.7-11.7c2.7-2.5,6.3-3.6,10.9-3.2c5.5,0.5,9.4,2.3,11.5,5.5c2.2,3.1,3,7.9,2.4,14.1
		l-12.5-1.1l0.3-4.2c0.1-0.8-0.1-1.5-0.5-2c-0.4-0.5-1-0.8-1.8-0.9c-1-0.1-1.7,0.1-2.2,0.6c-0.5,0.5-0.8,1.2-0.9,2.1
		c-0.2,2,0.8,4.2,2.9,6.6l6.5,7.5c1.5,1.8,2.8,3.4,3.7,5c1,1.5,1.7,3.3,2.2,5.4c0.5,2,0.6,4.4,0.4,7.1c-0.5,6.1-2.1,10.6-4.5,13.5
		c-2.5,2.9-6.3,4.2-11.4,3.7C887.8,564.3,883.9,562.6,881.7,559.6z M917.2,504.3l16.2,1.4c4.9,0.4,8.3,2.3,10.1,5.7
		c1.8,3.4,2.4,8.1,1.9,14.2c-0.5,6.1-1.9,10.6-4,13.6c-2.1,3-5.6,4.2-10.4,3.8l-5-0.4l-2.2,24.4l-12.1-1.1L917.2,504.3L917.2,504.3z
		 M927.7,531.5c1.5,0.1,2.6,0,3.3-0.6c0.7-0.5,1.3-1.2,1.6-2.2c0.3-1,0.6-2.5,0.7-4.4c0.2-2.6,0.1-4.5-0.4-5.7
		c-0.5-1.2-1.6-1.9-3.3-2l-1.3-0.1l-1.3,14.9L927.7,531.5L927.7,531.5z M943.8,568.7l11.4-61l20.8,1.8l0.4,62l-11.7-1l0-10l-7.4-0.7
		l-1.6,9.9C955.7,569.8,943.8,568.7,943.8,568.7z M959.1,550.1l5.6,0.5l0.1-31.6l-0.6-0.1L959.1,550.1z M983.9,568.6
		c-2.4-3.1-3.4-7-3-11.9l2.5-28.4c0.5-6.1,2.2-10.6,4.9-13.5c2.7-2.9,6.7-4.1,11.8-3.7c4.5,0.4,8.1,2,10.6,4.7
		c2.5,2.7,3.6,6.4,3.2,11.1l-0.9,10.6l-12.2-1.1l0.8-9.1c0.2-1.7,0.1-3-0.3-3.7s-1.1-1.1-2.1-1.2c-1.1-0.1-1.9,0.2-2.4,0.9
		c-0.5,0.7-0.8,1.8-0.9,3.3l-2.7,30.9c-0.1,1.6,0,2.8,0.4,3.6c0.4,0.8,1.1,1.2,2.1,1.3c1.9,0.2,3-1.3,3.3-4.4l1-11.1l12.4,1.1
		l-1,11.6c-0.9,10.3-6.5,15-16.9,14.1C989.8,573.4,986.4,571.6,983.9,568.6z M1013.9,574.9l5.5-61.5l24.6,2.2l-1.1,11.9l-12.1-1.1
		l-1.1,12l11.6,1l-1,11.6l-11.6-1l-1.3,14.1l12.8,1.1l-1.1,12L1013.9,574.9L1013.9,574.9z M1049.5,577c-2.2-1.3-3.9-3.1-4.9-5.3
		c-1.1-2.2-1.6-4.9-1.3-7.9l1.4-15.4l12.1,1.1l-1.3,14.7c-0.1,1.1,0.1,2,0.4,2.7s1.1,1.1,2,1.2c0.9,0.1,1.6-0.2,2.1-0.7
		s0.8-1.4,0.9-2.5l4.2-47.4l12.4,1.1l-4.1,46.1c-0.3,3.2-1.2,6-2.6,8.3c-1.5,2.3-3.4,4-5.8,5.1c-2.4,1.1-5,1.6-7.9,1.3
		C1054.1,579.1,1051.6,578.3,1049.5,577z M1080.3,576.8c-2.3-3.3-3.2-7.6-2.7-13.1l2.6-29.3c0.5-5.3,2.1-9.2,4.9-11.6
		c2.8-2.5,6.7-3.5,11.6-3c5,0.4,8.6,2.1,10.9,5c2.3,2.9,3.3,7,2.8,12.3l-2.6,29.3c-0.5,5.5-2.1,9.7-5,12.5
		c-2.9,2.8-6.7,3.9-11.7,3.5C1086.3,581.9,1082.6,580.1,1080.3,576.8z M1094.5,569.8c0.5-0.9,0.8-2.2,0.9-3.9l2.7-30.1
		c0.1-1.3,0-2.4-0.2-3.3c-0.3-0.9-1-1.3-2.1-1.4c-2-0.2-3.2,1.3-3.5,4.4l-2.7,30c-0.2,1.8-0.1,3.1,0.3,4.1c0.4,0.9,1.1,1.5,2.2,1.6
		C1093.3,571.1,1094.1,570.7,1094.5,569.8z M1111.3,583.6l5.5-61.5l24.6,2.2l-1.1,11.9l-12.1-1.1l-1.1,12l11.6,1l-1,11.6l-11.6-1
		l-1.3,14.1l12.9,1.1l-1.1,12L1111.3,583.6L1111.3,583.6z M1148.2,586.9l1.8-20.3l-6.1-42.1l12.1,1.1l1.6,21.2l5.3-20.6l12.1,1.1
		l-13.4,40.4l-1.8,20.3L1148.2,586.9z M928.1,591.2l0.1,1.9l0.6-1.7l3.7-9.7l1.6,0.1l1.9,10.2l0.2,1.7l0.5-1.9l3.1-9.5l1.9,0.2
		l-4.7,14l-1.7-0.2l-2-10.6l-0.1-1.1l-0.3,1.1l-3.9,10.1l-1.7-0.2l-2.2-14.6l1.9,0.2L928.1,591.2z M946.2,597.5
		c-1.4-0.1-2.5-0.7-3.4-1.7c-0.8-1-1.1-2.3-1-3.9l0-0.3c0.1-1,0.4-2,0.9-2.8s1.1-1.4,1.9-1.8c0.7-0.4,1.5-0.6,2.4-0.5
		c1.4,0.1,2.4,0.7,3.1,1.7c0.7,1,0.9,2.3,0.8,4l-0.1,0.7l-7.2-0.6c-0.1,1,0.2,1.9,0.7,2.6c0.5,0.7,1.2,1.1,2.1,1.2
		c0.6,0.1,1.2,0,1.6-0.3c0.5-0.2,0.9-0.5,1.2-0.9l1,1C949.3,597.1,947.9,597.7,946.2,597.5z M946.8,588c-0.7-0.1-1.4,0.1-1.9,0.6
		c-0.6,0.5-0.9,1.2-1.1,2.2l5.3,0.5l0-0.1c0-0.9-0.2-1.7-0.5-2.2C948.1,588.4,947.5,588.1,946.8,588z M961.8,593.5
		c-0.1,1.6-0.6,2.9-1.5,3.8c-0.8,0.9-1.9,1.3-3.1,1.2c-1.3-0.1-2.3-0.7-3-1.7L954,598l-1.6-0.1l1.3-15l1.8,0.2l-0.5,5.6
		c0.8-0.8,1.9-1.2,3.1-1.1c1.3,0.1,2.2,0.7,2.9,1.7c0.7,1,0.9,2.4,0.8,4.1L961.8,593.5L961.8,593.5z M960,593.2
		c0.1-1.2,0-2.2-0.5-2.9c-0.4-0.7-1.1-1.1-2-1.2c-1.2-0.1-2.1,0.4-2.7,1.4l-0.4,4.6c0.4,1.2,1.3,1.8,2.4,1.9
		c0.9,0.1,1.6-0.2,2.1-0.8C959.5,595.5,959.9,594.5,960,593.2z M979.5,598.4c-0.5,0.6-1.2,1.1-2.2,1.4c-0.9,0.3-1.9,0.3-3.1,0.2
		s-2.2-0.5-3-1.1c-0.9-0.6-1.5-1.5-1.9-2.5c-0.4-1-0.5-2.2-0.5-3.6l0.1-1.2c0.2-2.1,0.8-3.8,1.9-4.9c1.1-1.1,2.6-1.6,4.4-1.4
		c1.5,0.1,2.7,0.6,3.5,1.5c0.8,0.9,1.3,2,1.4,3.4l-1.9-0.2c-0.2-1.9-1.2-3-3.1-3.1c-1.2-0.1-2.3,0.2-3,1.1s-1.2,2.1-1.3,3.8
		l-0.1,1.2c-0.1,1.6,0.1,2.9,0.8,3.9s1.6,1.6,2.8,1.7c0.7,0.1,1.3,0,1.9-0.1c0.6-0.1,1-0.4,1.4-0.7l0.3-3.2l-3.3-0.3l0.1-1.5
		l5.1,0.5L979.5,598.4L979.5,598.4z M988.1,592c-0.3-0.1-0.6-0.1-0.9-0.1c-1.2-0.1-2,0.3-2.6,1.3l-0.7,7.5l-1.8-0.2l0.9-10.6
		l1.7,0.2l-0.1,1.2c0.7-0.9,1.6-1.3,2.6-1.2c0.3,0,0.6,0.1,0.8,0.2L988.1,592L988.1,592z M995,601.7c-0.1-0.2-0.2-0.6-0.1-1.1
		c-0.9,0.8-2,1.1-3.1,1c-1-0.1-1.9-0.5-2.5-1.1c-0.6-0.6-0.9-1.4-0.8-2.3c0.1-1.1,0.6-1.9,1.5-2.5c0.9-0.5,2.1-0.7,3.6-0.6l1.7,0.2
		l0.1-0.8c0.1-0.6-0.1-1.2-0.4-1.6c-0.3-0.4-0.9-0.7-1.6-0.7c-0.6-0.1-1.2,0.1-1.7,0.4c-0.5,0.3-0.7,0.7-0.8,1.1l-1.8-0.2
		c0-0.5,0.3-1,0.7-1.5c0.4-0.5,1-0.8,1.6-1c0.7-0.2,1.4-0.3,2.2-0.2c1.2,0.1,2.1,0.5,2.8,1.2c0.6,0.7,0.9,1.5,0.9,2.6l-0.4,4.9
		c-0.1,1,0,1.8,0.2,2.4l0,0.2L995,601.7L995,601.7z M992.2,600c0.6,0.1,1.1,0,1.7-0.3c0.5-0.3,0.9-0.6,1.2-1l0.2-2.2l-1.4-0.1
		c-2.2-0.2-3.4,0.3-3.5,1.7c-0.1,0.6,0.1,1,0.5,1.4C991.1,599.8,991.6,600,992.2,600z M1008.8,597.7c-0.1,1.6-0.6,2.9-1.5,3.8
		c-0.8,0.9-1.9,1.3-3.1,1.2c-1.3-0.1-2.2-0.6-2.9-1.5l-0.5,5.1l-1.8-0.2l1.3-14.7l1.6,0.1l0,1.2c0.8-0.8,1.9-1.2,3.2-1.1
		c1.3,0.1,2.2,0.7,2.9,1.7c0.7,1,0.9,2.4,0.8,4.1L1008.8,597.7L1008.8,597.7z M1007,597.3c0.1-1.2,0-2.2-0.5-2.9
		c-0.4-0.7-1.1-1.1-2-1.2c-1.1-0.1-2,0.3-2.6,1.3l-0.5,5.1c0.5,1,1.2,1.6,2.4,1.7c0.9,0.1,1.6-0.2,2.2-0.9
		C1006.5,599.7,1006.9,598.7,1007,597.3z M1013.2,593.9c0.9-0.9,2-1.3,3.3-1.2c2.2,0.2,3.2,1.6,3,4.1l-0.6,7l-1.8-0.2l0.6-7
		c0.1-0.8-0.1-1.3-0.4-1.8c-0.3-0.4-0.8-0.6-1.5-0.7c-0.6-0.1-1.1,0.1-1.6,0.3c-0.5,0.3-0.8,0.7-1.2,1.2l-0.7,7.6l-1.8-0.2l1.3-15.1
		l1.8,0.2L1013.2,593.9L1013.2,593.9z M1022.8,590.6c0-0.3,0.1-0.5,0.3-0.7c0.2-0.2,0.5-0.3,0.8-0.2c0.3,0,0.6,0.2,0.8,0.4
		c0.2,0.2,0.2,0.5,0.2,0.8c0,0.3-0.1,0.5-0.3,0.7c-0.2,0.2-0.5,0.3-0.8,0.2c-0.3,0-0.6-0.2-0.8-0.4
		C1022.9,591.2,1022.8,591,1022.8,590.6z M1023.6,604.2l-1.8-0.2l0.9-10.6l1.8,0.2L1023.6,604.2z M1030.8,603.6
		c0.6,0.1,1.2-0.1,1.7-0.4c0.5-0.4,0.8-0.8,0.9-1.4l1.7,0.2c-0.1,0.6-0.3,1.2-0.8,1.7c-0.4,0.5-1,0.9-1.7,1.2
		c-0.7,0.3-1.4,0.4-2.1,0.3c-1.4-0.1-2.5-0.7-3.3-1.7s-1.1-2.4-0.9-4l0-0.3c0.1-1,0.4-1.9,0.8-2.7c0.4-0.8,1-1.3,1.8-1.7
		c0.7-0.4,1.6-0.5,2.5-0.5c1.2,0.1,2.1,0.6,2.9,1.3c0.7,0.8,1.1,1.8,1,2.9l-1.7-0.2c0-0.7-0.2-1.3-0.6-1.7s-1-0.8-1.7-0.8
		c-0.9-0.1-1.7,0.2-2.2,0.8c-0.6,0.6-0.9,1.5-1,2.8l0,0.3c-0.1,1.2,0,2.2,0.5,2.9C1029.2,603.1,1029.9,603.5,1030.8,603.6z
		 M1042.2,605.9l1.3-14.3l4,0.4c1.2,0.1,2.3,0.5,3.2,1.1c0.9,0.6,1.6,1.5,2,2.5c0.4,1.1,0.6,2.3,0.5,3.6l-0.1,0.9
		c-0.1,1.3-0.5,2.5-1.1,3.5c-0.6,1-1.4,1.7-2.4,2.2c-1,0.5-2.2,0.7-3.4,0.5L1042.2,605.9L1042.2,605.9z M1045.2,593.3l-1,11.2l2,0.2
		c1.4,0.1,2.6-0.2,3.5-1s1.4-2.1,1.6-3.8l0.1-0.8c0.1-1.6-0.1-2.9-0.8-3.9c-0.7-1-1.7-1.5-3.1-1.7L1045.2,593.3L1045.2,593.3z
		 M1059.4,607.6c-1.4-0.1-2.5-0.7-3.4-1.7c-0.8-1-1.1-2.3-1-3.9l0-0.3c0.1-1,0.4-2,0.9-2.8c0.5-0.8,1.1-1.4,1.9-1.8
		c0.7-0.4,1.5-0.6,2.4-0.5c1.4,0.1,2.4,0.7,3.1,1.7c0.7,1,0.9,2.3,0.8,4l-0.1,0.7l-7.2-0.6c-0.1,1,0.2,1.9,0.7,2.6s1.2,1.1,2.1,1.2
		c0.6,0.1,1.2,0,1.6-0.3c0.5-0.2,0.9-0.5,1.2-0.9l1,1C1062.5,607.2,1061.1,607.8,1059.4,607.6z M1060,598.1
		c-0.7-0.1-1.4,0.1-1.9,0.6c-0.6,0.5-0.9,1.2-1.1,2.2l5.3,0.5l0-0.1c0-0.9-0.2-1.7-0.5-2.2C1061.3,598.5,1060.7,598.1,1060,598.1z
		 M1072,605.7c0-0.5-0.1-0.9-0.4-1.2c-0.3-0.3-1-0.6-1.9-0.9c-0.9-0.3-1.6-0.6-2.1-0.9c-0.5-0.3-0.9-0.7-1.1-1.1
		c-0.2-0.4-0.3-0.9-0.3-1.4c0.1-0.9,0.5-1.6,1.3-2.1c0.8-0.5,1.8-0.8,2.9-0.7c1.2,0.1,2.1,0.5,2.8,1.2c0.7,0.7,1,1.5,0.9,2.5
		l-1.8-0.2c0-0.5-0.1-1-0.5-1.3c-0.4-0.4-0.9-0.6-1.5-0.7c-0.7-0.1-1.2,0-1.6,0.3s-0.6,0.6-0.7,1.1s0.1,0.8,0.5,1
		c0.3,0.3,0.9,0.5,1.8,0.8c0.9,0.3,1.6,0.6,2.1,0.9c0.5,0.3,0.9,0.7,1.2,1.1c0.2,0.4,0.3,0.9,0.3,1.5c-0.1,0.9-0.5,1.7-1.3,2.2
		c-0.8,0.5-1.8,0.7-3,0.6c-0.8-0.1-1.6-0.3-2.2-0.6c-0.6-0.4-1.1-0.8-1.4-1.4c-0.3-0.6-0.4-1.2-0.4-1.8l1.8,0.2
		c0,0.6,0.2,1.1,0.6,1.5s1,0.6,1.7,0.7c0.7,0.1,1.3,0,1.7-0.3C1071.7,606.5,1071.9,606.2,1072,605.7z M1077.1,595.5
		c0-0.3,0.1-0.5,0.3-0.7c0.2-0.2,0.5-0.3,0.8-0.2c0.3,0,0.6,0.2,0.8,0.4c0.2,0.2,0.2,0.5,0.2,0.8c0,0.3-0.1,0.5-0.3,0.7
		c-0.2,0.2-0.5,0.3-0.8,0.2c-0.3,0-0.6-0.2-0.8-0.4S1077.1,595.8,1077.1,595.5z M1077.9,609l-1.8-0.2l0.9-10.6l1.8,0.2L1077.9,609z
		 M1080.8,603.9c0.1-1.6,0.6-2.9,1.5-3.8c0.9-0.9,1.9-1.3,3.2-1.2c1.3,0.1,2.2,0.7,2.9,1.6l0.2-1.2l1.6,0.1l-0.9,10.3
		c-0.1,1.4-0.6,2.4-1.5,3.1c-0.9,0.7-2,1-3.4,0.9c-0.8-0.1-1.5-0.3-2.2-0.7c-0.7-0.4-1.2-0.9-1.6-1.5l1-1c0.7,1,1.6,1.6,2.7,1.7
		c0.9,0.1,1.6-0.1,2.1-0.6c0.5-0.5,0.8-1.1,0.9-2l0.1-0.9c-0.8,0.8-1.8,1.1-3.1,1c-1.2-0.1-2.2-0.7-2.9-1.8
		C1080.9,607,1080.7,605.6,1080.8,603.9z M1082.6,604.3c-0.1,1.2,0,2.2,0.5,2.9c0.4,0.7,1.1,1.1,2,1.2c1.1,0.1,2-0.4,2.6-1.3
		l0.4-4.8c-0.4-1.1-1.2-1.6-2.4-1.7c-0.9-0.1-1.6,0.2-2.1,0.8C1083.1,601.9,1082.7,602.9,1082.6,604.3z M1094.6,599.9l-0.1,1.3
		c0.9-0.9,2-1.3,3.3-1.2c2.2,0.2,3.2,1.6,3.1,4.1l-0.6,7l-1.8-0.2l0.6-7.1c0.1-0.8-0.1-1.3-0.4-1.8c-0.3-0.4-0.8-0.6-1.6-0.7
		c-0.6-0.1-1.1,0.1-1.6,0.3c-0.5,0.3-0.8,0.7-1.2,1.2l-0.7,7.6l-1.8-0.2l0.9-10.6L1094.6,599.9L1094.6,599.9z M1107.4,611.9
		c-1.4-0.1-2.5-0.7-3.4-1.7s-1.1-2.3-1-3.9l0-0.3c0.1-1,0.4-2,0.9-2.8c0.5-0.8,1.1-1.4,1.9-1.8c0.7-0.4,1.5-0.6,2.4-0.5
		c1.4,0.1,2.4,0.7,3.1,1.7c0.7,1,0.9,2.3,0.8,4l-0.1,0.7l-7.2-0.6c-0.1,1,0.2,1.9,0.7,2.6c0.5,0.7,1.2,1.1,2.1,1.2
		c0.6,0.1,1.2,0,1.6-0.3c0.5-0.2,0.9-0.5,1.2-0.9l1,1C1110.5,611.5,1109.1,612,1107.4,611.9z M1108,602.3c-0.7-0.1-1.4,0.1-1.9,0.6
		c-0.6,0.5-0.9,1.2-1.1,2.2l5.3,0.5l0-0.1c0-0.9-0.2-1.7-0.5-2.2C1109.3,602.7,1108.7,602.4,1108,602.3z M1119.5,603.7
		c-0.3-0.1-0.6-0.1-0.9-0.1c-1.2-0.1-2,0.3-2.6,1.3l-0.7,7.5l-1.8-0.2l0.9-10.6l1.7,0.2l-0.1,1.2c0.7-0.9,1.6-1.3,2.6-1.2
		c0.3,0,0.6,0.1,0.8,0.2L1119.5,603.7L1119.5,603.7z"/>
</g>
</svg>
