<?xml version="1.0" encoding="utf-8"?>
<!-- Generator: Adobe Illustrator 25.0.0, SVG Export Plug-In . SVG Version: 6.00 Build 0)  -->
<svg version="1.1" id="Livello_1" xmlns="http://www.w3.org/2000/svg" xmlns:xlink="http://www.w3.org/1999/xlink" x="0px" y="0px"
	 viewBox="0 0 1920 196.2" style="enable-background:new 0 0 1920 196.2;" xml:space="preserve">
<polygon id="top-right-minor-bg" style="opacity:0.5;fill:#F5A214;enable-background:new    ;" points="1920,0 1847.5,0 
	1766.5,105.6 1814.5,105.6 "/>
<polygon id="top-left-minor-bg" style="opacity:0.5;fill:#F5A214;enable-background:new    ;" points="0,0 72.5,0 130.3,93.7 
	76.4,75.1 "/>
<g id="logo-top-main">
	<polygon id="top-main-bg" style="fill:#F5A214;" points="979.4,0 960.8,0 94.1,0 224.2,173.4 937,184.2 955.6,184.2 1675.2,196.2 
		1825.9,0 	"/>
	<path id="logo-space-joey" style="fill:#241E17;" d="M761.7,69.7c0.4,4.5-2.9,8.5-7.4,8.9c-4.5,0.4-8.4-2.9-8.8-7.4
		c-0.4-4.5,2.9-8.5,7.4-8.9C757.3,61.9,761.3,65.3,761.7,69.7z M759.3,48.6c-2.7,0.2-4.7,2.7-4.5,5.4c0.2,2.7,2.7,4.8,5.4,4.5
		c2.7-0.2,4.7-2.7,4.5-5.4C764.4,50.4,762,48.4,759.3,48.6z M809,104.8l-8.6,0.8c-1.6,0.1-2.7,1.8-2.6,3.4c0.1,1.6,1.6,3,3.1,2.9
		l8.6-0.8c1.6-0.1,2.7-1.8,2.6-3.4C812,106.1,810.6,104.6,809,104.8z M858.5,142.1c0,0-0.8,0.2-2.1,0.4c-0.3,0.1-0.7,0.2-1.1,0.2
		c-0.4,0.1-0.8,0.2-1.3,0.4c-0.9,0.2-2,0.5-3,0.9c-0.6,0.2-1.1,0.3-1.7,0.6c-0.6,0.2-1.2,0.4-1.8,0.7c-1.2,0.5-2.5,1.1-3.8,1.7
		c-0.6,0.3-1.3,0.7-1.9,1c-0.3,0.2-0.6,0.4-1,0.5c-0.3,0.2-0.6,0.4-1,0.6c-0.6,0.4-1.3,0.8-2,1.2c-0.6,0.4-1.3,0.9-1.9,1.3
		c-0.6,0.4-1.2,0.9-1.9,1.4l-0.9,0.7l-0.9,0.7c-0.6,0.5-1.2,1-1.7,1.5c-0.5,0.5-1.1,1-1.6,1.5c-0.5,0.5-1,1-1.5,1.5
		c-0.5,0.5-1,1-1.4,1.5c-0.9,1-1.7,1.9-2.3,2.9c-0.3,0.5-0.7,0.9-1,1.3c-0.3,0.4-0.6,0.8-0.9,1.2c-0.5,0.8-1,1.4-1.4,2.1
		c-0.7,1.1-1.1,1.8-1.1,1.8l-0.5-0.3c0,0,0-0.2,0-0.6c0.1-0.4,0.1-1,0.2-1.7c0.1-0.3,0.1-0.8,0.2-1.2c0.1-0.4,0.2-0.9,0.4-1.4
		c0.2-0.5,0.3-1,0.5-1.6c0.2-0.6,0.4-1.1,0.7-1.7c0.3-0.6,0.5-1.2,0.8-1.8c0.3-0.6,0.7-1.2,1-1.9c0.3-0.6,0.8-1.3,1.2-1.9
		c0.2-0.4,0.5-0.7,0.7-1c-0.9-0.1-1.7-0.4-2.6-0.6c-6.6-2-13.4-6.9-17.2-14.2c-2.4,1.6-5.6,4.2-8.2,6.8l0.1,0.1l-2,2
		c-2.1,2.2-4.9,3.4-7.8,3.7c-1.6,0.1-3.4,0-5-0.6c-3.2-1-5.8-3.2-7.3-6.2s-1.8-6.4-0.8-9.6c1.2-4.1,4.5-7.1,7.6-10
		c1.4-1.3,2.8-2.5,4-3.9c-2.4,0.7-4.9,1.2-7.7,1.7c-0.3,0.1-0.6,0.1-0.9,0.1c-2.5,0.2-4.9-0.4-7-1.9c-2.3-1.6-3.9-4.1-4.4-6.9
		c-0.5-2.8,0.1-5.6,1.8-8s4.1-3.9,6.9-4.4c4.2-0.8,8.1-3.3,12.3-8.1c-7.3-4.3-12.6-11.9-13.4-21c-1.3-14.8,9.6-27.9,24.4-29.3
		s27.8,9.6,29.2,24.5c0.4,4.9-0.5,9.7-2.4,13.8c9.8,0.6,18.7,4.8,26.3,12.5l0.2,0.3c1.8,2.2,2.5,5,2.2,7.9c-0.4,2.8-1.8,5.3-4,7.1
		c-1.7,1.3-3.6,2-5.6,2.2c-2.4,0.2-4.9-0.4-7-1.9l-0.1-0.1c-1.7-1.2-3.6-1.9-5.9-2.4c0.2,5.1,0,9.7-0.7,13.7c0,0.1,0,0.2,0.1,0.3
		c0.3,3.8,1.8,11,5.1,13.9l0,0c2.4,1.9,3.8,4.5,3.8,7.4c0.2-0.1,0.4-0.2,0.6-0.3c0.8-0.3,1.5-0.6,2.3-0.9c1.5-0.5,3-0.9,4.4-1.2
		c0.7-0.1,1.4-0.3,2.1-0.4c0.7-0.1,1.3-0.1,2-0.1c0.6,0,1.2-0.1,1.8-0.1c0.6,0,1.1,0,1.7,0.1c0.5,0.1,1,0,1.4,0.1
		c0.4,0.1,0.9,0.2,1.2,0.2c0.7,0.1,1.3,0.3,1.7,0.4s0.6,0.2,0.6,0.2L858.5,142.1z M795.5,51.9c0.1,1.5,1.4,2.6,2.9,2.4
		c1.5-0.1,2.6-1.4,2.4-2.9c-0.1-1.5-1.4-2.6-2.9-2.4C796.4,49.1,795.3,50.4,795.5,51.9z M785.3,79.9c-1.4-2.2-2.1-4.7-2.4-7.3
		c-0.6-6.7,2.8-13,8.6-16.3c1.2-0.7,1.6-2.2,0.9-3.4c-0.7-1.2-2.2-1.6-3.4-0.9c-7.5,4.3-11.8,12.6-11.1,21.2
		c0.3,3.4,1.3,6.6,3.1,9.5c0.5,0.8,1.4,1.3,2.4,1.2c0.4,0,0.7-0.2,1.1-0.4C785.7,82.7,786,81.1,785.3,79.9z M823.8,148.3
		c2.1,0.7,4.1,0.7,5.7,0.2c1.5-0.5,2.5-1.5,3-3c0.7-2.1,0.4-3.6-1-4.8l-0.4-0.3c-2.5-2.1-4.2-5.3-5.3-8.5c-0.5,0.4-1.1,0.7-1.7,0.8
		c-0.6,0.1-1.2-0.1-1.8-0.4c-1.3-0.9-1.7-2.6-0.9-4c1.8-2.9,3.6-10,3-20.8c-0.5,0-1,0-1.5,0c-1.6,0.1-2.9-1.2-3-2.7
		c-0.1-1.6,1.2-2.9,2.7-3c1.6-0.1,3.1,0,4.6,0.1c0.1,0,0.1,0,0.2,0c4.7,0.4,8.7,1.7,12,4l0.2,0.1c1.8,1.1,4,1,5.7-0.3
		c1-0.8,1.7-2,1.8-3.3c0.2-1.2-0.2-2.5-0.9-3.5c-7.3-7.2-15.4-10.7-24.8-10.7c-0.3,0-0.5-0.1-0.8-0.1c-4.4,5.5-11,9.2-18.5,9.9
		c-3.6,0.3-7.1-0.1-10.3-1.1c-5.4,6.7-10.8,10.3-16.7,11.4c-1.3,0.2-2.4,1-3.2,2c-0.7,1.1-1,2.4-0.8,3.7c0.2,1.3,0.9,2.4,2,3.2
		s2.4,1,3.7,0.8c5.1-0.9,9.3-2,13-3.5c0.4-1.6,0.6-3.4,0.4-5.5c-0.1-1.6,1.1-3,2.6-3.1c1.6-0.1,2.9,1.1,3.1,2.7
		c0.8,11.2-5.5,16.9-10.5,21.6c-2.8,2.6-5.2,4.8-6,7.4c-0.6,1.8-0.4,3.6,0.4,5.3c0.8,1.7,2.2,2.8,4,3.4c2.4,0.8,5,0.2,6.8-1.6
		c3.3-3.9,8.5-8.2,12.2-10.5c-0.3-1.2-0.5-2.5-0.6-3.8c-0.1-1.6,1-3,2.6-3.1s3,1,3.1,2.6c0.1,1.6,0.5,3.1,0.9,4.5c0,0,0,0,0,0.1
		C811.4,141.6,817.7,146.5,823.8,148.3z M883.7,111.5c-2.7-2.6-4.3-6.9-4.9-13.1l-0.5-6l12.1-1.1L891,99c0.3,3.1,1.4,4.5,3.3,4.3
		c1.1-0.1,1.8-0.5,2.2-1.2s0.5-1.8,0.3-3.3c-0.2-2-0.6-3.6-1.2-4.9c-0.6-1.3-1.3-2.3-2.1-3.1s-2.3-2.1-4.3-3.8l-5.7-4.8
		c-4.5-3.6-6.9-7.9-7.3-12.8c-0.5-5.2,0.4-9.3,2.5-12.3c2.2-3,5.5-4.7,10.2-5.1c5.5-0.5,9.6,0.6,12.3,3.3c2.7,2.7,4.3,7.2,4.9,13.4
		l-12.5,1.1l-0.5-4.2c-0.1-0.8-0.4-1.4-0.8-1.9c-0.5-0.4-1.1-0.6-1.9-0.5c-1,0.1-1.7,0.4-2.1,1c-0.4,0.6-0.6,1.3-0.5,2.2
		c0.2,2,1.5,4,4,5.9l7.7,6.2c1.8,1.5,3.3,2.9,4.5,4.3c1.2,1.3,2.3,3,3.1,4.9c0.8,1.9,1.4,4.2,1.6,7c0.5,6.1-0.2,10.8-2.1,14.1
		c-1.9,3.3-5.5,5.2-10.5,5.7C890.5,115.1,886.4,114.1,883.7,111.5z M908.9,50.9l16.2-1.4c4.9-0.4,8.5,0.8,10.9,3.8
		c2.4,3,3.8,7.5,4.4,13.7s0,10.8-1.6,14.1c-1.6,3.3-4.8,5.1-9.6,5.6l-5,0.4l2.2,24.4l-12.1,1.1L908.9,50.9L908.9,50.9z M924,75.8
		c1.5-0.1,2.5-0.5,3.2-1.1c0.6-0.6,1-1.4,1.1-2.5c0.1-1,0.1-2.5-0.1-4.4c-0.2-2.6-0.7-4.4-1.4-5.5s-1.9-1.6-3.6-1.4L922,61l1.3,14.9
		L924,75.8L924,75.8z M946.5,109.5l0.4-62l20.8-1.9l11.3,61l-11.7,1l-1.8-9.9l-7.4,0.7l0.2,10C958.4,108.5,946.5,109.5,946.5,109.5z
		 M958.2,88.5l5.6-0.5L958.3,57l-0.6,0.1L958.2,88.5z M985.9,102.3c-2.9-2.6-4.6-6.3-5.1-11.2l-2.5-28.4c-0.5-6.1,0.3-10.8,2.4-14.2
		c2.1-3.3,5.8-5.2,11-5.7c4.5-0.4,8.3,0.5,11.3,2.8c3,2.2,4.7,5.7,5.1,10.4l0.9,10.6l-12.2,1.1l-0.8-9.1c-0.2-1.7-0.5-3-1-3.6
		s-1.3-0.9-2.3-0.8c-1.1,0.1-1.8,0.6-2.1,1.3c-0.3,0.8-0.4,1.9-0.3,3.4l2.8,30.9c0.1,1.6,0.5,2.8,1,3.5c0.5,0.7,1.3,1,2.2,0.9
		c1.9-0.2,2.7-1.8,2.4-4.9l-1-11.1l12.4-1.1l1,11.6c0.9,10.3-3.8,15.9-14.1,16.9C992.6,106,988.9,104.9,985.9,102.3z M1016.6,103.3
		l-5.5-61.5l24.6-2.2l1.1,11.9l-12.1,1.1l1.1,12l11.6-1l1,11.6l-11.6,1l1.3,14.1l12.8-1.1l1.1,12L1016.6,103.3L1016.6,103.3z
		 M1051.9,99c-2.4-0.9-4.3-2.4-5.8-4.4c-1.5-2-2.4-4.5-2.7-7.5l-1.4-15.4l12.1-1.1l1.3,14.7c0.1,1.1,0.4,2,0.9,2.6s1.2,0.9,2.2,0.8
		c0.9-0.1,1.6-0.4,1.9-1.1c0.4-0.6,0.5-1.5,0.4-2.6l-4.2-47.4l12.4-1.1l4.1,46.1c0.3,3.2-0.1,6.1-1.1,8.6c-1,2.5-2.6,4.5-4.8,6
		s-4.7,2.4-7.5,2.7C1056.8,100.2,1054.3,99.9,1051.9,99z M1082.2,93.4c-2.8-2.8-4.5-6.9-5-12.5l-2.6-29.3c-0.5-5.3,0.4-9.4,2.8-12.3
		c2.3-2.9,6-4.6,10.9-5c5-0.4,8.8,0.6,11.6,3c2.8,2.5,4.5,6.3,4.9,11.6l2.6,29.3c0.5,5.5-0.4,9.9-2.7,13.1
		c-2.3,3.3-5.9,5.1-10.9,5.5C1089,97.4,1085.1,96.2,1082.2,93.4z M1095,84c0.3-1,0.4-2.3,0.2-4l-2.7-30.1c-0.1-1.3-0.4-2.4-0.8-3.2
		c-0.4-0.8-1.2-1.1-2.3-1c-2,0.2-3,1.8-2.7,4.9l2.7,30c0.2,1.8,0.5,3.1,1,3.9c0.5,0.9,1.3,1.3,2.5,1.2C1094,85.5,1094.7,85,1095,84z
		 M1113.9,94.6l-5.5-61.5l24.6-2.2l1.1,11.9l-12.1,1.1l1.1,12l11.6-1l1,11.6l-11.6,1l1.3,14.1l12.9-1.2l1.1,12L1113.9,94.6
		L1113.9,94.6z M1150.8,91.3L1149,71l-13.5-40.4l12.1-1.1l5.3,20.6l1.6-21.2l12.1-1.1l-6.1,42.1l1.8,20.3L1150.8,91.3z M935,134.5
		l0.4,1.9l0.2-1.7l1.9-10.2l1.6-0.1l3.6,9.7l0.5,1.7l0.1-1.9l1.3-9.9l1.9-0.2l-2.2,14.6l-1.7,0.2l-3.9-10.1l-0.3-1.1l-0.1,1.1
		l-2.1,10.7l-1.7,0.2l-4.7-14l1.9-0.2L935,134.5z M953.9,137.5c-1.4,0.1-2.6-0.2-3.6-1.1c-1-0.9-1.5-2.1-1.7-3.7l0-0.3
		c-0.1-1,0-2,0.4-2.9c0.3-0.9,0.8-1.6,1.5-2.1c0.7-0.5,1.4-0.8,2.3-0.9c1.4-0.1,2.5,0.2,3.3,1.1c0.9,0.8,1.3,2.1,1.5,3.8l0.1,0.7
		l-7.2,0.6c0.1,1,0.5,1.9,1.1,2.4c0.6,0.6,1.4,0.9,2.3,0.8c0.6-0.1,1.2-0.2,1.6-0.5c0.4-0.3,0.8-0.7,1-1.1l1.2,0.8
		C956.9,136.6,955.6,137.4,953.9,137.5z M952.8,128c-0.7,0.1-1.3,0.4-1.7,1c-0.5,0.6-0.7,1.3-0.7,2.3l5.3-0.5l0-0.1
		c-0.1-0.9-0.4-1.6-0.9-2.1C954.1,128.2,953.5,128,952.8,128z M968.5,130.8c0.1,1.6-0.1,3-0.8,4s-1.6,1.6-2.9,1.7
		c-1.3,0.1-2.4-0.3-3.2-1.1l0,1.2l-1.6,0.1l-1.3-15l1.8-0.2l0.5,5.6c0.7-1,1.6-1.5,2.9-1.6s2.3,0.3,3.2,1.2c0.8,0.9,1.3,2.2,1.5,3.9
		L968.5,130.8L968.5,130.8z M966.7,130.8c-0.1-1.2-0.4-2.2-1-2.8c-0.5-0.6-1.2-0.9-2.1-0.8c-1.2,0.1-2,0.7-2.4,1.9l0.4,4.6
		c0.6,1.1,1.6,1.5,2.7,1.4c0.9-0.1,1.5-0.5,1.9-1.2C966.7,133.1,966.8,132.1,966.7,130.8z M986.8,132.5c-0.4,0.7-1,1.3-1.9,1.7
		s-1.8,0.7-3,0.8c-1.1,0.1-2.2-0.1-3.2-0.5c-1-0.5-1.7-1.2-2.3-2.1c-0.6-1-0.9-2.1-1.1-3.4l-0.1-1.2c-0.2-2.1,0.2-3.8,1-5.1
		c0.9-1.3,2.3-2,4-2.2c1.5-0.1,2.7,0.1,3.7,0.8c1,0.7,1.6,1.7,1.9,3.1l-1.9,0.2c-0.5-1.9-1.7-2.7-3.6-2.5c-1.2,0.1-2.2,0.6-2.7,1.6
		c-0.6,0.9-0.8,2.3-0.6,4l0.1,1.2c0.1,1.6,0.6,2.9,1.5,3.7c0.8,0.9,1.8,1.3,3.1,1.1c0.7-0.1,1.3-0.2,1.8-0.4
		c0.5-0.2,0.9-0.5,1.2-0.9l-0.3-3.2l-3.3,0.3l-0.1-1.5l5.1-0.5L986.8,132.5L986.8,132.5z M994.1,124.7c-0.3,0-0.6,0-0.9,0
		c-1.2,0.1-1.9,0.7-2.3,1.7l0.7,7.5l-1.8,0.2l-0.9-10.6l1.7-0.2l0.1,1.2c0.5-1,1.3-1.5,2.4-1.6c0.3,0,0.6,0,0.8,0.1L994.1,124.7
		L994.1,124.7z M1002.7,133c-0.1-0.2-0.3-0.6-0.3-1.1c-0.8,0.9-1.7,1.5-2.9,1.6c-1,0.1-1.9-0.1-2.6-0.6c-0.7-0.5-1.1-1.3-1.2-2.2
		c-0.1-1.1,0.3-2,1-2.7c0.8-0.7,1.9-1.1,3.4-1.2l1.7-0.2l-0.1-0.8c-0.1-0.6-0.3-1.1-0.7-1.5c-0.4-0.3-1-0.5-1.7-0.4
		c-0.6,0.1-1.2,0.3-1.6,0.6c-0.4,0.4-0.6,0.8-0.6,1.2l-1.8,0.2c0-0.5,0.1-1.1,0.4-1.6c0.3-0.5,0.8-1,1.4-1.3s1.3-0.6,2.1-0.6
		c1.2-0.1,2.2,0.1,2.9,0.7c0.7,0.5,1.2,1.4,1.3,2.4l0.4,4.9c0.1,1,0.3,1.7,0.6,2.3l0,0.2L1002.7,133L1002.7,133z M999.6,131.8
		c0.6-0.1,1.1-0.2,1.6-0.6c0.5-0.3,0.8-0.7,1-1.2l-0.2-2.2l-1.4,0.1c-2.2,0.2-3.3,0.9-3.2,2.2c0.1,0.6,0.3,1,0.7,1.3
		C998.5,131.8,999,131.9,999.6,131.8z M1015.5,126.6c0.1,1.6-0.1,3-0.8,4c-0.7,1-1.6,1.6-2.9,1.7c-1.3,0.1-2.3-0.2-3.1-0.9l0.5,5.1
		l-1.8,0.2l-1.3-14.7l1.6-0.1l0.2,1.2c0.7-1,1.6-1.5,2.9-1.7c1.3-0.1,2.3,0.3,3.2,1.2c0.8,0.9,1.3,2.2,1.5,3.9L1015.5,126.6
		L1015.5,126.6z M1013.7,126.6c-0.1-1.2-0.4-2.1-1-2.8c-0.6-0.6-1.3-0.9-2.2-0.9c-1.1,0.1-1.9,0.7-2.3,1.7l0.5,5.1
		c0.6,0.9,1.5,1.3,2.6,1.2c0.9-0.1,1.5-0.5,2-1.2C1013.7,129,1013.8,127.9,1013.7,126.6z M1019.2,122.1c0.7-1,1.7-1.6,3-1.8
		c2.2-0.2,3.5,1,3.7,3.5l0.6,7l-1.8,0.2l-0.6-7c-0.1-0.8-0.3-1.3-0.7-1.7c-0.4-0.3-0.9-0.5-1.6-0.4c-0.6,0.1-1.1,0.3-1.5,0.6
		s-0.7,0.8-0.9,1.3l0.7,7.6l-1.8,0.2l-1.3-15.1l1.8-0.2L1019.2,122.1L1019.2,122.1z M1028.1,117.2c0-0.3,0.1-0.5,0.2-0.8
		c0.1-0.2,0.4-0.3,0.8-0.4c0.3,0,0.6,0,0.8,0.2c0.2,0.2,0.3,0.4,0.3,0.7c0,0.3-0.1,0.5-0.2,0.8c-0.2,0.2-0.4,0.3-0.8,0.4
		c-0.3,0-0.6,0-0.8-0.2C1028.2,117.7,1028.1,117.5,1028.1,117.2z M1031.3,130.4l-1.8,0.2l-0.9-10.6l1.8-0.2L1031.3,130.4z
		 M1038.3,128.5c0.6-0.1,1.2-0.3,1.6-0.7c0.4-0.4,0.7-0.9,0.7-1.6l1.7-0.2c0,0.6-0.1,1.2-0.5,1.8c-0.3,0.6-0.8,1.1-1.4,1.4
		c-0.6,0.4-1.3,0.6-2,0.7c-1.4,0.1-2.6-0.2-3.6-1.1c-0.9-0.9-1.5-2.2-1.6-3.8l0-0.3c-0.1-1,0-2,0.3-2.8c0.3-0.8,0.8-1.5,1.5-2
		c0.7-0.5,1.5-0.8,2.4-0.9c1.2-0.1,2.2,0.2,3.1,0.8c0.8,0.6,1.4,1.5,1.5,2.7l-1.7,0.2c-0.1-0.7-0.4-1.2-0.9-1.6s-1.1-0.6-1.8-0.5
		c-0.9,0.1-1.6,0.5-2,1.2c-0.4,0.7-0.6,1.7-0.5,3l0,0.3c0.1,1.2,0.4,2.1,1,2.8C1036.6,128.3,1037.3,128.6,1038.3,128.5z
		 M1049.8,128.7l-1.3-14.3l4-0.4c1.2-0.1,2.3,0.1,3.3,0.5c1,0.5,1.8,1.2,2.4,2.2c0.6,1,1,2.1,1.1,3.4l0.1,0.9c0.1,1.3,0,2.5-0.5,3.6
		c-0.4,1.1-1.1,1.9-2,2.5c-0.9,0.6-2,1-3.3,1.1L1049.8,128.7L1049.8,128.7z M1050.6,115.8l1,11.2l2-0.2c1.4-0.1,2.5-0.7,3.2-1.6
		c0.7-1,1-2.3,0.9-4l-0.1-0.8c-0.1-1.6-0.6-2.9-1.5-3.7c-0.9-0.8-1.9-1.2-3.3-1.1L1050.6,115.8L1050.6,115.8z M1067.1,127.4
		c-1.4,0.1-2.6-0.2-3.6-1.1c-1-0.9-1.5-2.1-1.7-3.7l0-0.3c-0.1-1,0-2,0.4-2.9c0.3-0.9,0.8-1.6,1.5-2.1c0.7-0.5,1.4-0.8,2.3-0.9
		c1.4-0.1,2.5,0.2,3.3,1.1c0.9,0.8,1.3,2.1,1.5,3.8l0.1,0.7l-7.2,0.6c0.1,1,0.5,1.9,1.1,2.4c0.6,0.6,1.4,0.9,2.3,0.8
		c0.6-0.1,1.2-0.2,1.6-0.5c0.4-0.3,0.8-0.7,1-1.1l1.2,0.8C1070.1,126.5,1068.8,127.2,1067.1,127.4z M1066,117.9
		c-0.7,0.1-1.3,0.4-1.7,1c-0.5,0.6-0.7,1.3-0.7,2.3l5.3-0.5l0-0.1c-0.1-0.9-0.4-1.6-0.9-2.1C1067.4,118.1,1066.7,117.8,1066,117.9z
		 M1079.1,123.3c0-0.5-0.3-0.9-0.6-1.1c-0.4-0.2-1.1-0.4-2-0.5c-0.9-0.1-1.7-0.3-2.2-0.5c-0.6-0.2-1-0.5-1.3-0.9
		c-0.3-0.3-0.4-0.8-0.5-1.3c-0.1-0.9,0.2-1.6,0.9-2.3c0.7-0.7,1.6-1.1,2.7-1.2c1.2-0.1,2.2,0.1,3,0.7c0.8,0.6,1.2,1.3,1.3,2.3
		l-1.8,0.2c0-0.5-0.3-0.9-0.8-1.2c-0.5-0.3-1-0.5-1.6-0.4c-0.7,0.1-1.2,0.2-1.5,0.6c-0.3,0.3-0.5,0.7-0.5,1.2s0.2,0.8,0.6,0.9
		c0.4,0.2,1,0.3,1.9,0.5c0.9,0.1,1.7,0.3,2.2,0.5c0.6,0.2,1,0.6,1.3,0.9c0.3,0.4,0.5,0.8,0.5,1.4c0.1,0.9-0.2,1.7-0.9,2.4
		c-0.7,0.6-1.7,1-2.8,1.1c-0.8,0.1-1.6,0-2.3-0.2c-0.7-0.2-1.2-0.6-1.7-1.1c-0.4-0.5-0.6-1.1-0.7-1.7l1.8-0.2
		c0.1,0.6,0.4,1.1,0.8,1.4c0.5,0.3,1.1,0.4,1.8,0.4c0.7-0.1,1.2-0.2,1.6-0.6C1079,124.1,1079.2,123.7,1079.1,123.3z M1082.4,112.3
		c0-0.3,0.1-0.5,0.2-0.8s0.4-0.3,0.8-0.4c0.3,0,0.6,0,0.8,0.2c0.2,0.2,0.3,0.4,0.3,0.7c0,0.3-0.1,0.5-0.2,0.8
		c-0.2,0.2-0.4,0.3-0.8,0.4c-0.3,0-0.6,0-0.8-0.2C1082.5,112.8,1082.4,112.6,1082.4,112.3z M1085.5,125.5l-1.8,0.2l-0.9-10.6
		l1.8-0.2L1085.5,125.5z M1087.5,119.9c-0.1-1.6,0.1-3,0.8-4c0.7-1,1.7-1.6,2.9-1.7c1.3-0.1,2.3,0.3,3.1,1.1l0-1.2l1.6-0.1l0.9,10.3
		c0.1,1.4-0.2,2.5-0.9,3.3s-1.8,1.3-3.2,1.5c-0.8,0.1-1.5,0-2.3-0.3c-0.7-0.3-1.3-0.7-1.8-1.2l0.8-1.2c0.9,0.9,1.8,1.3,3,1.2
		c0.9-0.1,1.5-0.4,2-0.9c0.5-0.5,0.6-1.3,0.6-2.1l-0.1-0.9c-0.6,0.9-1.6,1.4-2.8,1.5c-1.2,0.1-2.3-0.3-3.1-1.2
		C1088.2,123,1087.7,121.7,1087.5,119.9z M1089.3,120c0.1,1.2,0.4,2.1,1,2.8c0.5,0.6,1.3,0.9,2.1,0.8c1.1-0.1,1.9-0.7,2.3-1.8
		l-0.4-4.8c-0.6-1-1.5-1.4-2.6-1.3c-0.9,0.1-1.5,0.5-2,1.2C1089.4,117.6,1089.2,118.6,1089.3,120z M1100.4,113.5l0.2,1.3
		c0.7-1.1,1.7-1.7,3-1.8c2.2-0.2,3.5,1,3.7,3.5l0.6,7l-1.8,0.2l-0.6-7.1c-0.1-0.8-0.3-1.3-0.7-1.7c-0.4-0.3-0.9-0.5-1.7-0.4
		c-0.6,0.1-1.1,0.3-1.5,0.6s-0.7,0.8-0.9,1.3l0.7,7.6l-1.8,0.2l-0.9-10.6L1100.4,113.5L1100.4,113.5z M1115.1,123.1
		c-1.4,0.1-2.6-0.2-3.6-1.1c-1-0.9-1.5-2.1-1.7-3.7l0-0.3c-0.1-1,0-2,0.4-2.9s0.8-1.6,1.5-2.1c0.7-0.5,1.4-0.8,2.3-0.9
		c1.4-0.1,2.5,0.2,3.3,1.1c0.9,0.8,1.3,2.1,1.5,3.8l0.1,0.7l-7.2,0.6c0.1,1,0.5,1.9,1.1,2.4c0.6,0.6,1.4,0.9,2.3,0.8
		c0.6-0.1,1.2-0.2,1.6-0.5c0.4-0.3,0.8-0.7,1-1.1l1.2,0.8C1118.1,122.2,1116.8,123,1115.1,123.1z M1114,113.6
		c-0.7,0.1-1.3,0.4-1.8,1c-0.5,0.6-0.7,1.3-0.7,2.3l5.3-0.5l0-0.1c-0.2-0.9-0.4-1.6-0.9-2.1C1115.4,113.8,1114.7,113.6,1114,113.6z
		 M1125.6,112.9c-0.3,0-0.6,0-0.9,0c-1.2,0.1-1.9,0.7-2.3,1.7l0.7,7.5l-1.8,0.2l-0.9-10.6l1.7-0.2l0.1,1.2c0.5-1,1.3-1.5,2.4-1.6
		c0.3,0,0.6,0,0.8,0.1L1125.6,112.9L1125.6,112.9z"/>
</g>
</svg>
