<?xml version="1.0" encoding="utf-8"?>
<!-- Generator: Adobe Illustrator 25.0.0, SVG Export Plug-In . SVG Version: 6.00 Build 0)  -->
<svg version="1.1" id="Livello_2" xmlns="http://www.w3.org/2000/svg" xmlns:xlink="http://www.w3.org/1999/xlink" x="0px" y="0px"
	 viewBox="0 0 364.9 210" style="enable-background:new 0 0 364.9 210;" xml:space="preserve">
<g id="Livello_3">
	<path id="starship_x5F_pointer_x5F_center" style="opacity:0.2;fill:#FFFFFF;enable-background:new    ;" d="M182.8,136
		c-17.1,0-31-13.9-31-31s13.9-31,31-31s31,13.9,31,31S199.9,136,182.8,136z M182.8,75c-16.5,0-30,13.5-30,30s13.5,30,30,30
		s30-13.5,30-30S199.4,75,182.8,75z"/>
	<path id="starship_x5F_pointer_x5F_corner" style="opacity:0.2;fill:#FFFFFF;enable-background:new    ;" d="M318.2,112.4
		c-2,38.1-19.9,73.3-49.6,97.6l-1.9-2.3c31-25.3,48.7-62.7,48.7-102.7S297.6,27.6,266.6,2.3l1.9-2.3c29.8,24.3,47.6,59.6,49.6,97.6
		l12.7,7.4L318.2,112.4z M99,2.3L97.1,0C67.3,24.3,49.5,59.6,47.5,97.6L34.7,105l12.7,7.4c2,38.1,19.9,73.3,49.6,97.6l1.9-2.3
		C68,182.4,50.3,144.9,50.3,105S68,27.6,99,2.3z"/>
	<path id="galaxy_x5F_level_x5F_measure" style="opacity:0.2;fill:#FFFFFF;enable-background:new    ;" d="M20.1,184.9H0v-1h20.1
		V184.9z M10,169.1H0v-1h10V169.1z M20.1,153.4H0v-1h20.1V153.4z M10,137.6H0v-1h10V137.6z M20.1,121.9H0v-1h20.1V121.9z
		 M27.2,106.1H0v-1h27.2V106.1z M20.1,90.3H0v-1h20.1V90.3z M10,74.6H0v-1h10V74.6z M20.1,58.8H0v-1h20.1V58.8z M10,43.1H0v-1h10
		V43.1z M20.1,27.3H0v-1h20.1V27.3z M344.8,26.3h20.1v1h-20.1V26.3z M354.9,42.1h10v1h-10V42.1z M344.8,57.8h20.1v1h-20.1V57.8z
		 M354.9,73.6h10v1h-10V73.6z M344.8,89.3h20.1v1h-20.1V89.3z M337.7,105.1h27.2v1h-27.2V105.1z M344.8,120.9h20.1v1h-20.1V120.9z
		 M354.9,136.6h10v1h-10V136.6z M344.8,152.4h20.1v1h-20.1V152.4z M354.9,168.1h10v1h-10V168.1z M344.8,183.9h20.1v1h-20.1V183.9z"
		/>
	<path id="galaxy_x5F_level_1_" style="fill:#FFFFFF;" d="M27.2,105.5H0v-1h27.2V105.5z M364.9,104.5h-27.2v1h27.2V104.5z"/>
	<path id="starship_x5F_level" style="fill:#00FF12;" d="M27.2,105.5H0v-1h27.2V105.5z M364.9,104.5h-27.2v1h27.2V104.5z"/>
	<path id="galaxy_x5F_rotation" style="opacity:0.2;fill:#FFFFFF;enable-background:new    ;" d="M147.7,105.5h-27.2v-1h27.2V105.5z
		 M245.2,104.5H218v1h27.2V104.5z"/>
</g>
</svg>
